<?xml version="1.0" encoding="UTF-8" standalone="no"?>
<!DOCTYPE svg PUBLIC "-//W3C//DTD SVG 1.1//EN"
 "http://www.w3.org/Graphics/SVG/1.1/DTD/svg11.dtd">
<!-- Generated by graphviz version 2.43.0 (0)
 -->
<!-- Title: Proc1 Pages: 1 -->
<svg width="516pt" height="582pt"
 viewBox="0.00 0.00 515.99 582.00" xmlns="http://www.w3.org/2000/svg" xmlns:xlink="http://www.w3.org/1999/xlink">
<g id="graph0" class="graph" transform="scale(1 1) rotate(0) translate(4 578)">
<title>Proc1</title>
<polygon fill="white" stroke="transparent" points="-4,4 -4,-578 511.99,-578 511.99,4 -4,4"/>
<!-- L0 -->
<g id="node1" class="node">
<title>L0</title>
<text text-anchor="start" x="359" y="-558.3" font-family="Times,serif" font-weight="bold" font-size="14.00">L0</text>
<text text-anchor="start" x="273" y="-536.3" font-family="Times,serif" font-size="14.00">MOV {1 Kint(0)} {Tint(0)}</text>
<text text-anchor="start" x="268.5" y="-515.3" font-family="Times,serif" font-size="14.00">MOV {10 Kint(1)} {Tint(1)}</text>
<text text-anchor="start" x="273" y="-494.3" font-family="Times,serif" font-size="14.00">MOV {1 Kint(0)} {Tint(2)}</text>
<text text-anchor="start" x="250.5" y="-473.3" font-family="Times,serif" font-size="14.00">LIii {0 Kint(2), Tint(2)} {Tint(3)}</text>
<text text-anchor="start" x="249" y="-452.3" font-family="Times,serif" font-size="14.00">SUBii {Tint(0), Tint(2)} {Tint(0)}</text>
<text text-anchor="start" x="338" y="-431.3" font-family="Times,serif" font-size="14.00">BR {L2}</text>
<polygon fill="none" stroke="black" points="244,-423 244,-574 494,-574 494,-423 244,-423"/>
</g>
<!-- L2 -->
<g id="node2" class="node">
<title>L2</title>
<text text-anchor="start" x="359" y="-371.3" font-family="Times,serif" font-weight="bold" font-size="14.00">L2</text>
<text text-anchor="start" x="249" y="-349.3" font-family="Times,serif" font-size="14.00">ADDii {Tint(0), Tint(2)} {Tint(0)}</text>
<text text-anchor="start" x="284" y="-328.3" font-family="Times,serif" font-size="14.00">CBR {Tint(3)} {L3, L4}</text>
<polygon fill="none" stroke="black" points="244,-320 244,-387 494,-387 494,-320 244,-320"/>
</g>
<!-- L0&#45;&gt;L2 -->
<g id="edge1" class="edge">
<title>L0&#45;&gt;L2</title>
<path fill="none" stroke="black" d="M369,-422.65C369,-414 369,-405.42 369,-397.42"/>
<polygon fill="black" stroke="black" points="372.5,-397.26 369,-387.26 365.5,-397.26 372.5,-397.26"/>
</g>
<!-- L3 -->
<g id="node3" class="node">
<title>L3</title>
<text text-anchor="start" x="359.5" y="-268.3" font-family="Times,serif" font-weight="bold" font-size="14.00">L3</text>
<text text-anchor="start" x="256" y="-246.3" font-family="Times,serif" font-size="14.00">LEii {Tint(1), Tint(0)} {Tint(4)}</text>
<text text-anchor="start" x="284.5" y="-225.3" font-family="Times,serif" font-size="14.00">CBR {Tint(4)} {L6, L5}</text>
<polygon fill="none" stroke="black" points="250.5,-217 250.5,-284 487.5,-284 487.5,-217 250.5,-217"/>
</g>
<!-- L2&#45;&gt;L3 -->
<g id="edge2" class="edge">
<title>L2&#45;&gt;L3</title>
<path fill="none" stroke="black" d="M369,-319.99C369,-311.87 369,-303.04 369,-294.5"/>
<polygon fill="black" stroke="black" points="372.5,-294.3 369,-284.3 365.5,-294.3 372.5,-294.3"/>
</g>
<!-- L4 -->
<g id="node4" class="node">
<title>L4</title>
<text text-anchor="start" x="106" y="-268.3" font-family="Times,serif" font-weight="bold" font-size="14.00">L4</text>
<text text-anchor="start" x="5" y="-246.3" font-family="Times,serif" font-size="14.00">LIii {Tint(0), Tint(1)} {Tint(4)}</text>
<text text-anchor="start" x="31" y="-225.3" font-family="Times,serif" font-size="14.00">CBR {Tint(4)} {L6, L5}</text>
<polygon fill="none" stroke="black" points="0,-217 0,-284 232,-284 232,-217 0,-217"/>
</g>
<!-- L2&#45;&gt;L4 -->
<g id="edge3" class="edge">
<title>L2&#45;&gt;L4</title>
<path fill="none" stroke="black" d="M287.56,-319.99C261.95,-309.77 233.52,-298.42 207.28,-287.94"/>
<polygon fill="black" stroke="black" points="208.31,-284.58 197.72,-284.13 205.71,-291.08 208.31,-284.58"/>
</g>
<!-- L6 -->
<g id="node5" class="node">
<title>L6</title>
<text text-anchor="start" x="147" y="-134.3" font-family="Times,serif" font-weight="bold" font-size="14.00">L6</text>
<text text-anchor="start" x="126" y="-112.3" font-family="Times,serif" font-size="14.00">BR {L1}</text>
<polygon fill="none" stroke="black" points="121,-103.5 121,-149.5 193,-149.5 193,-103.5 121,-103.5"/>
</g>
<!-- L3&#45;&gt;L6 -->
<g id="edge4" class="edge">
<title>L3&#45;&gt;L6</title>
<path fill="none" stroke="black" d="M307.4,-216.94C286.78,-205.8 263.76,-193.09 243,-181 228.91,-172.8 213.75,-163.52 200.14,-155.02"/>
<polygon fill="black" stroke="black" points="201.78,-151.92 191.45,-149.57 198.06,-157.85 201.78,-151.92"/>
</g>
<!-- L5 -->
<g id="node6" class="node">
<title>L5</title>
<text text-anchor="start" x="359.5" y="-165.3" font-family="Times,serif" font-weight="bold" font-size="14.00">L5</text>
<text text-anchor="start" x="272" y="-143.3" font-family="Times,serif" font-size="14.00">MOV {Tint(0)} {local(i, 0)}</text>
<text text-anchor="start" x="264" y="-122.3" font-family="Times,serif" font-size="14.00">LOADGLOBAL {print} {T(0)}</text>
<text text-anchor="start" x="257" y="-101.3" font-family="Times,serif" font-size="14.00">CALL {T(0), local(i, 0)} {T(0..)}</text>
<text text-anchor="start" x="338.5" y="-80.3" font-family="Times,serif" font-size="14.00">BR {L2}</text>
<polygon fill="none" stroke="black" points="251.5,-72 251.5,-181 486.5,-181 486.5,-72 251.5,-72"/>
</g>
<!-- L3&#45;&gt;L5 -->
<g id="edge5" class="edge">
<title>L3&#45;&gt;L5</title>
<path fill="none" stroke="black" d="M369,-216.81C369,-208.81 369,-199.97 369,-191.06"/>
<polygon fill="black" stroke="black" points="372.5,-191.02 369,-181.02 365.5,-191.02 372.5,-191.02"/>
</g>
<!-- L4&#45;&gt;L6 -->
<g id="edge6" class="edge">
<title>L4&#45;&gt;L6</title>
<path fill="none" stroke="black" d="M126.99,-216.81C132.94,-199.11 140.26,-177.32 146.18,-159.7"/>
<polygon fill="black" stroke="black" points="149.62,-160.46 149.48,-149.86 142.98,-158.23 149.62,-160.46"/>
</g>
<!-- L4&#45;&gt;L5 -->
<g id="edge7" class="edge">
<title>L4&#45;&gt;L5</title>
<path fill="none" stroke="black" d="M183.47,-216.97C203.54,-207.29 226.16,-196.38 248.54,-185.59"/>
<polygon fill="black" stroke="black" points="250.28,-188.64 257.76,-181.14 247.24,-182.33 250.28,-188.64"/>
</g>
<!-- L1 -->
<g id="node7" class="node">
<title>L1</title>
<ellipse fill="none" stroke="black" cx="157" cy="-18" rx="27" ry="18"/>
<text text-anchor="middle" x="157" y="-14.3" font-family="Times,serif" font-size="14.00">L1</text>
</g>
<!-- L6&#45;&gt;L1 -->
<g id="edge9" class="edge">
<title>L6&#45;&gt;L1</title>
<path fill="none" stroke="black" d="M157,-103.43C157,-86.81 157,-63.92 157,-46.16"/>
<polygon fill="black" stroke="black" points="160.5,-46.13 157,-36.13 153.5,-46.13 160.5,-46.13"/>
</g>
<!-- L5&#45;&gt;L2 -->
<g id="edge8" class="edge">
<title>L5&#45;&gt;L2</title>
<path fill="none" stroke="black" d="M468.15,-181.09C479.73,-191.46 489.92,-203.41 497,-217 510.76,-243.41 512.3,-258.45 497,-284 489.86,-295.92 479.86,-305.88 468.57,-314.17"/>
<polygon fill="black" stroke="black" points="466.42,-311.4 460.13,-319.92 470.37,-317.18 466.42,-311.4"/>
</g>
</g>
</svg>
