<?xml version="1.0" encoding="UTF-8" standalone="no"?>
<!DOCTYPE svg PUBLIC "-//W3C//DTD SVG 1.1//EN"
 "http://www.w3.org/Graphics/SVG/1.1/DTD/svg11.dtd">
<!-- Generated by graphviz version 2.43.0 (0)
 -->
<!-- Title: Proc1 Pages: 1 -->
<svg width="582pt" height="945pt"
 viewBox="0.00 0.00 582.02 945.00" xmlns="http://www.w3.org/2000/svg" xmlns:xlink="http://www.w3.org/1999/xlink">
<g id="graph0" class="graph" transform="scale(1 1) rotate(0) translate(4 941)">
<title>Proc1</title>
<polygon fill="white" stroke="transparent" points="-4,4 -4,-941 578.02,-941 578.02,4 -4,4"/>
<!-- L0 -->
<g id="node1" class="node">
<title>L0</title>
<text text-anchor="start" x="405" y="-921.3" font-family="Times,serif" font-weight="bold" font-size="14.00">L0</text>
<text text-anchor="start" x="319" y="-899.3" font-family="Times,serif" font-size="14.00">MOV {1 Kint(0)} {Tint(0)}</text>
<text text-anchor="start" x="314.5" y="-878.3" font-family="Times,serif" font-size="14.00">MOV {10 Kint(1)} {Tint(1)}</text>
<text text-anchor="start" x="319" y="-857.3" font-family="Times,serif" font-size="14.00">MOV {1 Kint(0)} {Tint(2)}</text>
<text text-anchor="start" x="296.5" y="-836.3" font-family="Times,serif" font-size="14.00">LIii {0 Kint(2), Tint(2)} {Tint(3)}</text>
<text text-anchor="start" x="295" y="-815.3" font-family="Times,serif" font-size="14.00">SUBii {Tint(0), Tint(2)} {Tint(0)}</text>
<text text-anchor="start" x="384" y="-794.3" font-family="Times,serif" font-size="14.00">BR {L2}</text>
<polygon fill="none" stroke="black" points="290,-786 290,-937 540,-937 540,-786 290,-786"/>
</g>
<!-- L2 -->
<g id="node2" class="node">
<title>L2</title>
<text text-anchor="start" x="405" y="-734.3" font-family="Times,serif" font-weight="bold" font-size="14.00">L2</text>
<text text-anchor="start" x="295" y="-712.3" font-family="Times,serif" font-size="14.00">ADDii {Tint(0), Tint(2)} {Tint(0)}</text>
<text text-anchor="start" x="330" y="-691.3" font-family="Times,serif" font-size="14.00">CBR {Tint(3)} {L3, L4}</text>
<polygon fill="none" stroke="black" points="290,-683 290,-750 540,-750 540,-683 290,-683"/>
</g>
<!-- L0&#45;&gt;L2 -->
<g id="edge1" class="edge">
<title>L0&#45;&gt;L2</title>
<path fill="none" stroke="black" d="M415,-785.65C415,-777 415,-768.42 415,-760.42"/>
<polygon fill="black" stroke="black" points="418.5,-760.26 415,-750.26 411.5,-760.26 418.5,-760.26"/>
</g>
<!-- L3 -->
<g id="node3" class="node">
<title>L3</title>
<text text-anchor="start" x="405.5" y="-631.3" font-family="Times,serif" font-weight="bold" font-size="14.00">L3</text>
<text text-anchor="start" x="302" y="-609.3" font-family="Times,serif" font-size="14.00">LEii {Tint(1), Tint(0)} {Tint(4)}</text>
<text text-anchor="start" x="330.5" y="-588.3" font-family="Times,serif" font-size="14.00">CBR {Tint(4)} {L6, L5}</text>
<polygon fill="none" stroke="black" points="296.5,-580 296.5,-647 533.5,-647 533.5,-580 296.5,-580"/>
</g>
<!-- L2&#45;&gt;L3 -->
<g id="edge2" class="edge">
<title>L2&#45;&gt;L3</title>
<path fill="none" stroke="black" d="M415,-682.99C415,-674.87 415,-666.04 415,-657.5"/>
<polygon fill="black" stroke="black" points="418.5,-657.3 415,-647.3 411.5,-657.3 418.5,-657.3"/>
</g>
<!-- L4 -->
<g id="node4" class="node">
<title>L4</title>
<text text-anchor="start" x="152" y="-631.3" font-family="Times,serif" font-weight="bold" font-size="14.00">L4</text>
<text text-anchor="start" x="51" y="-609.3" font-family="Times,serif" font-size="14.00">LIii {Tint(0), Tint(1)} {Tint(4)}</text>
<text text-anchor="start" x="77" y="-588.3" font-family="Times,serif" font-size="14.00">CBR {Tint(4)} {L6, L5}</text>
<polygon fill="none" stroke="black" points="46,-580 46,-647 278,-647 278,-580 46,-580"/>
</g>
<!-- L2&#45;&gt;L4 -->
<g id="edge3" class="edge">
<title>L2&#45;&gt;L4</title>
<path fill="none" stroke="black" d="M333.56,-682.99C307.95,-672.77 279.52,-661.42 253.28,-650.94"/>
<polygon fill="black" stroke="black" points="254.31,-647.58 243.72,-647.13 251.71,-654.08 254.31,-647.58"/>
</g>
<!-- L6 -->
<g id="node5" class="node">
<title>L6</title>
<text text-anchor="start" x="368" y="-455.3" font-family="Times,serif" font-weight="bold" font-size="14.00">L6</text>
<text text-anchor="start" x="347" y="-433.3" font-family="Times,serif" font-size="14.00">BR {L1}</text>
<polygon fill="none" stroke="black" points="342,-424.5 342,-470.5 414,-470.5 414,-424.5 342,-424.5"/>
</g>
<!-- L3&#45;&gt;L6 -->
<g id="edge4" class="edge">
<title>L3&#45;&gt;L6</title>
<path fill="none" stroke="black" d="M407.6,-579.71C401.1,-550.9 391.7,-509.24 385.25,-480.63"/>
<polygon fill="black" stroke="black" points="388.63,-479.72 383.02,-470.73 381.8,-481.26 388.63,-479.72"/>
</g>
<!-- L5 -->
<g id="node6" class="node">
<title>L5</title>
<text text-anchor="start" x="152" y="-528.3" font-family="Times,serif" font-weight="bold" font-size="14.00">L5</text>
<text text-anchor="start" x="64.5" y="-506.3" font-family="Times,serif" font-size="14.00">MOV {Tint(0)} {local(i, 0)}</text>
<text text-anchor="start" x="61.5" y="-485.3" font-family="Times,serif" font-size="14.00">MOV {10 Kint(1)} {Tint(5)}</text>
<text text-anchor="start" x="66" y="-464.3" font-family="Times,serif" font-size="14.00">MOV {1 Kint(0)} {Tint(6)}</text>
<text text-anchor="start" x="62.5" y="-443.3" font-family="Times,serif" font-size="14.00">UNMi {1 Kint(0)} {Tint(7)}</text>
<text text-anchor="start" x="73.5" y="-422.3" font-family="Times,serif" font-size="14.00">MOV {Tint(7)} {Tint(8)}</text>
<text text-anchor="start" x="43.5" y="-401.3" font-family="Times,serif" font-size="14.00">LIii {0 Kint(2), Tint(8)} {Tint(9)}</text>
<text text-anchor="start" x="42" y="-380.3" font-family="Times,serif" font-size="14.00">SUBii {Tint(5), Tint(8)} {Tint(5)}</text>
<text text-anchor="start" x="131" y="-359.3" font-family="Times,serif" font-size="14.00">BR {L7}</text>
<polygon fill="none" stroke="black" points="37,-351 37,-544 287,-544 287,-351 37,-351"/>
</g>
<!-- L3&#45;&gt;L5 -->
<g id="edge5" class="edge">
<title>L3&#45;&gt;L5</title>
<path fill="none" stroke="black" d="M364.71,-579.9C344.6,-566.87 320.4,-551.18 295.82,-535.25"/>
<polygon fill="black" stroke="black" points="297.41,-532.11 287.12,-529.6 293.61,-537.98 297.41,-532.11"/>
</g>
<!-- L4&#45;&gt;L6 -->
<g id="edge6" class="edge">
<title>L4&#45;&gt;L6</title>
<path fill="none" stroke="black" d="M238.48,-579.85C258.16,-569.76 278.65,-557.66 296,-544 319.59,-525.43 341.47,-499.29 356.69,-479.05"/>
<polygon fill="black" stroke="black" points="359.67,-480.9 362.79,-470.78 354.04,-476.75 359.67,-480.9"/>
</g>
<!-- L4&#45;&gt;L5 -->
<g id="edge7" class="edge">
<title>L4&#45;&gt;L5</title>
<path fill="none" stroke="black" d="M162,-579.71C162,-571.95 162,-563.26 162,-554.14"/>
<polygon fill="black" stroke="black" points="165.5,-554.11 162,-544.11 158.5,-554.11 165.5,-554.11"/>
</g>
<!-- L1 -->
<g id="node8" class="node">
<title>L1</title>
<ellipse fill="none" stroke="black" cx="378" cy="-281.5" rx="27" ry="18"/>
<text text-anchor="middle" x="378" y="-277.8" font-family="Times,serif" font-size="14.00">L1</text>
</g>
<!-- L6&#45;&gt;L1 -->
<g id="edge9" class="edge">
<title>L6&#45;&gt;L1</title>
<path fill="none" stroke="black" d="M378,-424.38C378,-394.69 378,-341.96 378,-309.82"/>
<polygon fill="black" stroke="black" points="381.5,-309.78 378,-299.78 374.5,-309.78 381.5,-309.78"/>
</g>
<!-- L7 -->
<g id="node7" class="node">
<title>L7</title>
<text text-anchor="start" x="148" y="-299.3" font-family="Times,serif" font-weight="bold" font-size="14.00">L7</text>
<text text-anchor="start" x="38" y="-277.3" font-family="Times,serif" font-size="14.00">ADDii {Tint(5), Tint(8)} {Tint(5)}</text>
<text text-anchor="start" x="73" y="-256.3" font-family="Times,serif" font-size="14.00">CBR {Tint(9)} {L8, L9}</text>
<polygon fill="none" stroke="black" points="33,-248 33,-315 283,-315 283,-248 33,-248"/>
</g>
<!-- L5&#45;&gt;L7 -->
<g id="edge8" class="edge">
<title>L5&#45;&gt;L7</title>
<path fill="none" stroke="black" d="M159.66,-350.63C159.45,-341.76 159.23,-333.11 159.04,-325.12"/>
<polygon fill="black" stroke="black" points="162.54,-324.93 158.79,-315.02 155.54,-325.1 162.54,-324.93"/>
</g>
<!-- L8 -->
<g id="node9" class="node">
<title>L8</title>
<text text-anchor="start" x="407" y="-196.3" font-family="Times,serif" font-weight="bold" font-size="14.00">L8</text>
<text text-anchor="start" x="299" y="-174.3" font-family="Times,serif" font-size="14.00">LEii {Tint(6), Tint(5)} {Tint(10)}</text>
<text text-anchor="start" x="318.5" y="-153.3" font-family="Times,serif" font-size="14.00">CBR {Tint(10)} {L11, L10}</text>
<polygon fill="none" stroke="black" points="294,-145 294,-212 540,-212 540,-145 294,-145"/>
</g>
<!-- L7&#45;&gt;L8 -->
<g id="edge10" class="edge">
<title>L7&#45;&gt;L8</title>
<path fill="none" stroke="black" d="M241.37,-247.99C267.7,-237.72 296.95,-226.32 323.91,-215.8"/>
<polygon fill="black" stroke="black" points="325.29,-219.02 333.34,-212.13 322.75,-212.5 325.29,-219.02"/>
</g>
<!-- L9 -->
<g id="node10" class="node">
<title>L9</title>
<text text-anchor="start" x="145.5" y="-196.3" font-family="Times,serif" font-weight="bold" font-size="14.00">L9</text>
<text text-anchor="start" x="40" y="-174.3" font-family="Times,serif" font-size="14.00">LIii {Tint(5), Tint(6)} {Tint(10)}</text>
<text text-anchor="start" x="57" y="-153.3" font-family="Times,serif" font-size="14.00">CBR {Tint(10)} {L11, L10}</text>
<polygon fill="none" stroke="black" points="34.5,-145 34.5,-212 275.5,-212 275.5,-145 34.5,-145"/>
</g>
<!-- L7&#45;&gt;L9 -->
<g id="edge11" class="edge">
<title>L7&#45;&gt;L9</title>
<path fill="none" stroke="black" d="M157.03,-247.99C156.79,-239.87 156.53,-231.04 156.28,-222.5"/>
<polygon fill="black" stroke="black" points="159.77,-222.19 155.97,-212.3 152.77,-222.4 159.77,-222.19"/>
</g>
<!-- L11 -->
<g id="node11" class="node">
<title>L11</title>
<text text-anchor="start" x="402" y="-62.3" font-family="Times,serif" font-weight="bold" font-size="14.00">L11</text>
<text text-anchor="start" x="386" y="-40.3" font-family="Times,serif" font-size="14.00">BR {L2}</text>
<polygon fill="none" stroke="black" points="381,-31.5 381,-77.5 453,-77.5 453,-31.5 381,-31.5"/>
</g>
<!-- L8&#45;&gt;L11 -->
<g id="edge12" class="edge">
<title>L8&#45;&gt;L11</title>
<path fill="none" stroke="black" d="M417,-144.81C417,-127.27 417,-105.73 417,-88.19"/>
<polygon fill="black" stroke="black" points="420.5,-87.86 417,-77.86 413.5,-87.86 420.5,-87.86"/>
</g>
<!-- L10 -->
<g id="node12" class="node">
<title>L10</title>
<text text-anchor="start" x="140" y="-93.3" font-family="Times,serif" font-weight="bold" font-size="14.00">L10</text>
<text text-anchor="start" x="57.5" y="-71.3" font-family="Times,serif" font-size="14.00">MOV {Tint(5)} {local(j, 1)}</text>
<text text-anchor="start" x="49.5" y="-50.3" font-family="Times,serif" font-size="14.00">LOADGLOBAL {print} {T(0)}</text>
<text text-anchor="start" x="5" y="-29.3" font-family="Times,serif" font-size="14.00">CALL {T(0), local(i, 0), local(j, 1)} {T(0..)}</text>
<text text-anchor="start" x="124" y="-8.3" font-family="Times,serif" font-size="14.00">BR {L7}</text>
<polygon fill="none" stroke="black" points="0,0 0,-109 310,-109 310,0 0,0"/>
</g>
<!-- L8&#45;&gt;L10 -->
<g id="edge13" class="edge">
<title>L8&#45;&gt;L10</title>
<path fill="none" stroke="black" d="M347.13,-144.97C326.19,-135.21 302.56,-124.21 279.22,-113.34"/>
<polygon fill="black" stroke="black" points="280.48,-110.07 269.94,-109.02 277.53,-116.42 280.48,-110.07"/>
</g>
<!-- L9&#45;&gt;L11 -->
<g id="edge14" class="edge">
<title>L9&#45;&gt;L11</title>
<path fill="none" stroke="black" d="M237.91,-144.83C264.11,-133.99 292.99,-121.49 319,-109 336.54,-100.58 355.4,-90.53 371.84,-81.43"/>
<polygon fill="black" stroke="black" points="373.68,-84.41 380.71,-76.49 370.27,-78.3 373.68,-84.41"/>
</g>
<!-- L9&#45;&gt;L10 -->
<g id="edge15" class="edge">
<title>L9&#45;&gt;L10</title>
<path fill="none" stroke="black" d="M155,-144.81C155,-136.81 155,-127.97 155,-119.06"/>
<polygon fill="black" stroke="black" points="158.5,-119.02 155,-109.02 151.5,-119.02 158.5,-119.02"/>
</g>
<!-- L11&#45;&gt;L2 -->
<g id="edge17" class="edge">
<title>L11&#45;&gt;L2</title>
<path fill="none" stroke="black" d="M453.03,-69.84C483.83,-84.1 526.6,-109.04 549,-145 581.15,-196.61 568,-219.69 568,-280.5 568,-448.5 568,-448.5 568,-448.5 568,-537.48 592.47,-573.73 542,-647 533.8,-658.9 522.85,-668.92 510.8,-677.29"/>
<polygon fill="black" stroke="black" points="508.77,-674.44 502.3,-682.83 512.59,-680.3 508.77,-674.44"/>
</g>
<!-- L10&#45;&gt;L7 -->
<g id="edge16" class="edge">
<title>L10&#45;&gt;L7</title>
<path fill="none" stroke="black" d="M54.01,-109.16C42.38,-119.49 32.14,-131.42 25,-145 11.15,-171.36 9.5,-186.58 25,-212 32.29,-223.96 42.41,-233.91 53.84,-242.19"/>
<polygon fill="black" stroke="black" points="52.12,-245.25 62.38,-247.91 56.02,-239.43 52.12,-245.25"/>
</g>
</g>
</svg>
