<?xml version="1.0" encoding="UTF-8" standalone="no"?>
<!DOCTYPE svg PUBLIC "-//W3C//DTD SVG 1.1//EN"
 "http://www.w3.org/Graphics/SVG/1.1/DTD/svg11.dtd">
<!-- Generated by graphviz version 2.43.0 (0)
 -->
<!-- Title: Proc1 Pages: 1 -->
<svg width="568pt" height="945pt"
 viewBox="0.00 0.00 568.14 945.00" xmlns="http://www.w3.org/2000/svg" xmlns:xlink="http://www.w3.org/1999/xlink">
<g id="graph0" class="graph" transform="scale(1 1) rotate(0) translate(4 941)">
<title>Proc1</title>
<polygon fill="white" stroke="transparent" points="-4,4 -4,-941 564.14,-941 564.14,4 -4,4"/>
<!-- L0 -->
<g id="node1" class="node">
<title>L0</title>
<text text-anchor="start" x="391.11" y="-921.3" font-family="Times,serif" font-weight="bold" font-size="14.00">L0</text>
<text text-anchor="start" x="305.11" y="-899.3" font-family="Times,serif" font-size="14.00">MOV {1 Kint(0)} {Tint(1)}</text>
<text text-anchor="start" x="300.61" y="-878.3" font-family="Times,serif" font-size="14.00">MOV {10 Kint(1)} {Tint(2)}</text>
<text text-anchor="start" x="305.11" y="-857.3" font-family="Times,serif" font-size="14.00">MOV {1 Kint(0)} {Tint(3)}</text>
<text text-anchor="start" x="282.61" y="-836.3" font-family="Times,serif" font-size="14.00">LIii {0 Kint(2), Tint(3)} {Tint(4)}</text>
<text text-anchor="start" x="281.11" y="-815.3" font-family="Times,serif" font-size="14.00">SUBii {Tint(1), Tint(3)} {Tint(1)}</text>
<text text-anchor="start" x="370.11" y="-794.3" font-family="Times,serif" font-size="14.00">BR {L2}</text>
<polygon fill="none" stroke="black" points="276.11,-786 276.11,-937 526.11,-937 526.11,-786 276.11,-786"/>
</g>
<!-- L2 -->
<g id="node2" class="node">
<title>L2</title>
<text text-anchor="start" x="391.11" y="-734.3" font-family="Times,serif" font-weight="bold" font-size="14.00">L2</text>
<text text-anchor="start" x="281.11" y="-712.3" font-family="Times,serif" font-size="14.00">ADDii {Tint(1), Tint(3)} {Tint(1)}</text>
<text text-anchor="start" x="316.11" y="-691.3" font-family="Times,serif" font-size="14.00">CBR {Tint(4)} {L3, L4}</text>
<polygon fill="none" stroke="black" points="276.11,-683 276.11,-750 526.11,-750 526.11,-683 276.11,-683"/>
</g>
<!-- L0&#45;&gt;L2 -->
<g id="edge1" class="edge">
<title>L0&#45;&gt;L2</title>
<path fill="none" stroke="black" d="M401.11,-785.65C401.11,-777 401.11,-768.42 401.11,-760.42"/>
<polygon fill="black" stroke="black" points="404.61,-760.26 401.11,-750.26 397.61,-760.26 404.61,-760.26"/>
</g>
<!-- L3 -->
<g id="node3" class="node">
<title>L3</title>
<text text-anchor="start" x="391.61" y="-631.3" font-family="Times,serif" font-weight="bold" font-size="14.00">L3</text>
<text text-anchor="start" x="288.11" y="-609.3" font-family="Times,serif" font-size="14.00">LEii {Tint(2), Tint(1)} {Tint(5)}</text>
<text text-anchor="start" x="316.61" y="-588.3" font-family="Times,serif" font-size="14.00">CBR {Tint(5)} {L6, L5}</text>
<polygon fill="none" stroke="black" points="282.61,-580 282.61,-647 519.61,-647 519.61,-580 282.61,-580"/>
</g>
<!-- L2&#45;&gt;L3 -->
<g id="edge2" class="edge">
<title>L2&#45;&gt;L3</title>
<path fill="none" stroke="black" d="M401.11,-682.99C401.11,-674.87 401.11,-666.04 401.11,-657.5"/>
<polygon fill="black" stroke="black" points="404.61,-657.3 401.11,-647.3 397.61,-657.3 404.61,-657.3"/>
</g>
<!-- L4 -->
<g id="node4" class="node">
<title>L4</title>
<text text-anchor="start" x="138.11" y="-631.3" font-family="Times,serif" font-weight="bold" font-size="14.00">L4</text>
<text text-anchor="start" x="37.11" y="-609.3" font-family="Times,serif" font-size="14.00">LIii {Tint(1), Tint(2)} {Tint(5)}</text>
<text text-anchor="start" x="63.11" y="-588.3" font-family="Times,serif" font-size="14.00">CBR {Tint(5)} {L6, L5}</text>
<polygon fill="none" stroke="black" points="32.11,-580 32.11,-647 264.11,-647 264.11,-580 32.11,-580"/>
</g>
<!-- L2&#45;&gt;L4 -->
<g id="edge3" class="edge">
<title>L2&#45;&gt;L4</title>
<path fill="none" stroke="black" d="M319.67,-682.99C294.07,-672.77 265.63,-661.42 239.39,-650.94"/>
<polygon fill="black" stroke="black" points="240.42,-647.58 229.84,-647.13 237.83,-654.08 240.42,-647.58"/>
</g>
<!-- L6 -->
<g id="node5" class="node">
<title>L6</title>
<text text-anchor="start" x="358.11" y="-455.3" font-family="Times,serif" font-weight="bold" font-size="14.00">L6</text>
<text text-anchor="start" x="337.11" y="-433.3" font-family="Times,serif" font-size="14.00">BR {L1}</text>
<polygon fill="none" stroke="black" points="332.11,-424.5 332.11,-470.5 404.11,-470.5 404.11,-424.5 332.11,-424.5"/>
</g>
<!-- L3&#45;&gt;L6 -->
<g id="edge4" class="edge">
<title>L3&#45;&gt;L6</title>
<path fill="none" stroke="black" d="M394.51,-579.71C388.72,-550.9 380.33,-509.24 374.58,-480.63"/>
<polygon fill="black" stroke="black" points="377.99,-479.85 372.59,-470.73 371.13,-481.23 377.99,-479.85"/>
</g>
<!-- L5 -->
<g id="node6" class="node">
<title>L5</title>
<text text-anchor="start" x="138.61" y="-528.3" font-family="Times,serif" font-weight="bold" font-size="14.00">L5</text>
<text text-anchor="start" x="60.11" y="-506.3" font-family="Times,serif" font-size="14.00">MOV {Tint(1)} {Tint(0)}</text>
<text text-anchor="start" x="48.11" y="-485.3" font-family="Times,serif" font-size="14.00">MOV {10 Kint(1)} {Tint(7)}</text>
<text text-anchor="start" x="52.61" y="-464.3" font-family="Times,serif" font-size="14.00">MOV {1 Kint(0)} {Tint(8)}</text>
<text text-anchor="start" x="49.11" y="-443.3" font-family="Times,serif" font-size="14.00">UNMi {1 Kint(0)} {Tint(9)}</text>
<text text-anchor="start" x="55.61" y="-422.3" font-family="Times,serif" font-size="14.00">MOV {Tint(9)} {Tint(10)}</text>
<text text-anchor="start" x="21.11" y="-401.3" font-family="Times,serif" font-size="14.00">LIii {0 Kint(2), Tint(10)} {Tint(11)}</text>
<text text-anchor="start" x="24.11" y="-380.3" font-family="Times,serif" font-size="14.00">SUBii {Tint(7), Tint(10)} {Tint(7)}</text>
<text text-anchor="start" x="117.61" y="-359.3" font-family="Times,serif" font-size="14.00">BR {L7}</text>
<polygon fill="none" stroke="black" points="15.61,-351 15.61,-544 280.61,-544 280.61,-351 15.61,-351"/>
</g>
<!-- L3&#45;&gt;L5 -->
<g id="edge5" class="edge">
<title>L3&#45;&gt;L5</title>
<path fill="none" stroke="black" d="M350.83,-579.9C332.68,-568.14 311.2,-554.22 289.12,-539.91"/>
<polygon fill="black" stroke="black" points="290.93,-536.91 280.64,-534.41 287.12,-542.78 290.93,-536.91"/>
</g>
<!-- L4&#45;&gt;L6 -->
<g id="edge6" class="edge">
<title>L4&#45;&gt;L6</title>
<path fill="none" stroke="black" d="M230.29,-579.87C250.54,-569.92 271.46,-557.87 289.11,-544 312.5,-525.62 333.67,-499.24 348.19,-478.86"/>
<polygon fill="black" stroke="black" points="351.15,-480.74 354,-470.54 345.41,-476.74 351.15,-480.74"/>
</g>
<!-- L4&#45;&gt;L5 -->
<g id="edge7" class="edge">
<title>L4&#45;&gt;L5</title>
<path fill="none" stroke="black" d="M148.11,-579.71C148.11,-571.95 148.11,-563.26 148.11,-554.14"/>
<polygon fill="black" stroke="black" points="151.61,-554.11 148.11,-544.11 144.61,-554.11 151.61,-554.11"/>
</g>
<!-- L1 -->
<g id="node8" class="node">
<title>L1</title>
<ellipse fill="none" stroke="black" cx="368.11" cy="-281.5" rx="27" ry="18"/>
<text text-anchor="middle" x="368.11" y="-277.8" font-family="Times,serif" font-size="14.00">L1</text>
</g>
<!-- L6&#45;&gt;L1 -->
<g id="edge9" class="edge">
<title>L6&#45;&gt;L1</title>
<path fill="none" stroke="black" d="M368.11,-424.38C368.11,-394.69 368.11,-341.96 368.11,-309.82"/>
<polygon fill="black" stroke="black" points="371.61,-309.78 368.11,-299.78 364.61,-309.78 371.61,-309.78"/>
</g>
<!-- L7 -->
<g id="node7" class="node">
<title>L7</title>
<text text-anchor="start" x="134.61" y="-299.3" font-family="Times,serif" font-weight="bold" font-size="14.00">L7</text>
<text text-anchor="start" x="20.11" y="-277.3" font-family="Times,serif" font-size="14.00">ADDii {Tint(7), Tint(10)} {Tint(7)}</text>
<text text-anchor="start" x="55.11" y="-256.3" font-family="Times,serif" font-size="14.00">CBR {Tint(11)} {L8, L9}</text>
<polygon fill="none" stroke="black" points="14.61,-248 14.61,-315 273.61,-315 273.61,-248 14.61,-248"/>
</g>
<!-- L5&#45;&gt;L7 -->
<g id="edge8" class="edge">
<title>L5&#45;&gt;L7</title>
<path fill="none" stroke="black" d="M145.77,-350.63C145.56,-341.76 145.35,-333.11 145.15,-325.12"/>
<polygon fill="black" stroke="black" points="148.65,-324.93 144.91,-315.02 141.65,-325.1 148.65,-324.93"/>
</g>
<!-- L8 -->
<g id="node9" class="node">
<title>L8</title>
<text text-anchor="start" x="393.11" y="-196.3" font-family="Times,serif" font-weight="bold" font-size="14.00">L8</text>
<text text-anchor="start" x="285.11" y="-174.3" font-family="Times,serif" font-size="14.00">LEii {Tint(8), Tint(7)} {Tint(12)}</text>
<text text-anchor="start" x="304.61" y="-153.3" font-family="Times,serif" font-size="14.00">CBR {Tint(12)} {L11, L10}</text>
<polygon fill="none" stroke="black" points="280.11,-145 280.11,-212 526.11,-212 526.11,-145 280.11,-145"/>
</g>
<!-- L7&#45;&gt;L8 -->
<g id="edge10" class="edge">
<title>L7&#45;&gt;L8</title>
<path fill="none" stroke="black" d="M227.49,-247.99C253.81,-237.72 283.06,-226.32 310.02,-215.8"/>
<polygon fill="black" stroke="black" points="311.4,-219.02 319.45,-212.13 308.86,-212.5 311.4,-219.02"/>
</g>
<!-- L9 -->
<g id="node10" class="node">
<title>L9</title>
<text text-anchor="start" x="131.61" y="-196.3" font-family="Times,serif" font-weight="bold" font-size="14.00">L9</text>
<text text-anchor="start" x="26.11" y="-174.3" font-family="Times,serif" font-size="14.00">LIii {Tint(7), Tint(8)} {Tint(12)}</text>
<text text-anchor="start" x="43.11" y="-153.3" font-family="Times,serif" font-size="14.00">CBR {Tint(12)} {L11, L10}</text>
<polygon fill="none" stroke="black" points="20.61,-145 20.61,-212 261.61,-212 261.61,-145 20.61,-145"/>
</g>
<!-- L7&#45;&gt;L9 -->
<g id="edge11" class="edge">
<title>L7&#45;&gt;L9</title>
<path fill="none" stroke="black" d="M143.15,-247.99C142.91,-239.87 142.64,-231.04 142.39,-222.5"/>
<polygon fill="black" stroke="black" points="145.88,-222.19 142.09,-212.3 138.88,-222.4 145.88,-222.19"/>
</g>
<!-- L11 -->
<g id="node11" class="node">
<title>L11</title>
<text text-anchor="start" x="388.11" y="-62.3" font-family="Times,serif" font-weight="bold" font-size="14.00">L11</text>
<text text-anchor="start" x="372.11" y="-40.3" font-family="Times,serif" font-size="14.00">BR {L2}</text>
<polygon fill="none" stroke="black" points="367.11,-31.5 367.11,-77.5 439.11,-77.5 439.11,-31.5 367.11,-31.5"/>
</g>
<!-- L8&#45;&gt;L11 -->
<g id="edge12" class="edge">
<title>L8&#45;&gt;L11</title>
<path fill="none" stroke="black" d="M403.11,-144.81C403.11,-127.27 403.11,-105.73 403.11,-88.19"/>
<polygon fill="black" stroke="black" points="406.61,-87.86 403.11,-77.86 399.61,-87.86 406.61,-87.86"/>
</g>
<!-- L10 -->
<g id="node12" class="node">
<title>L10</title>
<text text-anchor="start" x="126.11" y="-93.3" font-family="Times,serif" font-weight="bold" font-size="14.00">L10</text>
<text text-anchor="start" x="52.61" y="-71.3" font-family="Times,serif" font-size="14.00">MOV {Tint(7)} {Tint(6)}</text>
<text text-anchor="start" x="35.61" y="-50.3" font-family="Times,serif" font-size="14.00">LOADGLOBAL {print} {T(0)}</text>
<text text-anchor="start" x="9.11" y="-29.3" font-family="Times,serif" font-size="14.00">CALL {T(0), Tint(0), Tint(6)} {T(0..)}</text>
<text text-anchor="start" x="110.11" y="-8.3" font-family="Times,serif" font-size="14.00">BR {L7}</text>
<polygon fill="none" stroke="black" points="4.11,0 4.11,-109 278.11,-109 278.11,0 4.11,0"/>
</g>
<!-- L8&#45;&gt;L10 -->
<g id="edge13" class="edge">
<title>L8&#45;&gt;L10</title>
<path fill="none" stroke="black" d="M333.25,-144.97C312.3,-135.21 288.67,-124.21 265.33,-113.34"/>
<polygon fill="black" stroke="black" points="266.6,-110.07 256.05,-109.02 263.64,-116.42 266.6,-110.07"/>
</g>
<!-- L9&#45;&gt;L11 -->
<g id="edge14" class="edge">
<title>L9&#45;&gt;L11</title>
<path fill="none" stroke="black" d="M210.98,-144.97C257.53,-123.29 317.35,-95.43 357.79,-76.61"/>
<polygon fill="black" stroke="black" points="359.28,-79.77 366.87,-72.38 356.32,-73.43 359.28,-79.77"/>
</g>
<!-- L9&#45;&gt;L10 -->
<g id="edge15" class="edge">
<title>L9&#45;&gt;L10</title>
<path fill="none" stroke="black" d="M141.11,-144.81C141.11,-136.81 141.11,-127.97 141.11,-119.06"/>
<polygon fill="black" stroke="black" points="144.61,-119.02 141.11,-109.02 137.61,-119.02 144.61,-119.02"/>
</g>
<!-- L11&#45;&gt;L2 -->
<g id="edge17" class="edge">
<title>L11&#45;&gt;L2</title>
<path fill="none" stroke="black" d="M439.14,-69.84C469.94,-84.1 512.71,-109.04 535.11,-145 567.27,-196.61 554.11,-219.69 554.11,-280.5 554.11,-448.5 554.11,-448.5 554.11,-448.5 554.11,-537.48 578.59,-573.73 528.11,-647 519.91,-658.9 508.96,-668.92 496.91,-677.29"/>
<polygon fill="black" stroke="black" points="494.88,-674.44 488.42,-682.83 498.71,-680.3 494.88,-674.44"/>
</g>
<!-- L10&#45;&gt;L7 -->
<g id="edge16" class="edge">
<title>L10&#45;&gt;L7</title>
<path fill="none" stroke="black" d="M40.13,-109.16C28.49,-119.49 18.25,-131.42 11.11,-145 -2.74,-171.36 -4.39,-186.58 11.11,-212 18.4,-223.96 28.52,-233.91 39.95,-242.19"/>
<polygon fill="black" stroke="black" points="38.24,-245.25 48.49,-247.91 42.14,-239.43 38.24,-245.25"/>
</g>
</g>
</svg>
