<?xml version="1.0" encoding="UTF-8" standalone="no"?>
<!DOCTYPE svg PUBLIC "-//W3C//DTD SVG 1.1//EN"
 "http://www.w3.org/Graphics/SVG/1.1/DTD/svg11.dtd">
<!-- Generated by graphviz version 2.43.0 (0)
 -->
<!-- Title: Proc1 Pages: 1 -->
<svg width="727pt" height="1359pt"
 viewBox="0.00 0.00 727.12 1359.00" xmlns="http://www.w3.org/2000/svg" xmlns:xlink="http://www.w3.org/1999/xlink">
<g id="graph0" class="graph" transform="scale(1 1) rotate(0) translate(4 1355)">
<title>Proc1</title>
<polygon fill="white" stroke="transparent" points="-4,4 -4,-1355 723.12,-1355 723.12,4 -4,4"/>
<!-- L0 -->
<g id="node1" class="node">
<title>L0</title>
<text text-anchor="start" x="556" y="-1335.3" font-family="Times,serif" font-weight="bold" font-size="14.00">L0</text>
<text text-anchor="start" x="470" y="-1313.3" font-family="Times,serif" font-size="14.00">MOV {1 Kint(0)} {Tint(1)}</text>
<text text-anchor="start" x="465.5" y="-1292.3" font-family="Times,serif" font-size="14.00">MOV {10 Kint(1)} {Tint(2)}</text>
<text text-anchor="start" x="470" y="-1271.3" font-family="Times,serif" font-size="14.00">MOV {1 Kint(0)} {Tint(3)}</text>
<text text-anchor="start" x="447.5" y="-1250.3" font-family="Times,serif" font-size="14.00">LIii {0 Kint(2), Tint(3)} {Tint(4)}</text>
<text text-anchor="start" x="446" y="-1229.3" font-family="Times,serif" font-size="14.00">SUBii {Tint(1), Tint(3)} {Tint(1)}</text>
<text text-anchor="start" x="535" y="-1208.3" font-family="Times,serif" font-size="14.00">BR {L2}</text>
<polygon fill="none" stroke="black" points="441,-1200 441,-1351 691,-1351 691,-1200 441,-1200"/>
</g>
<!-- L2 -->
<g id="node2" class="node">
<title>L2</title>
<text text-anchor="start" x="556" y="-1148.3" font-family="Times,serif" font-weight="bold" font-size="14.00">L2</text>
<text text-anchor="start" x="446" y="-1126.3" font-family="Times,serif" font-size="14.00">ADDii {Tint(1), Tint(3)} {Tint(1)}</text>
<text text-anchor="start" x="481" y="-1105.3" font-family="Times,serif" font-size="14.00">CBR {Tint(4)} {L3, L4}</text>
<polygon fill="none" stroke="black" points="441,-1097 441,-1164 691,-1164 691,-1097 441,-1097"/>
</g>
<!-- L0&#45;&gt;L2 -->
<g id="edge1" class="edge">
<title>L0&#45;&gt;L2</title>
<path fill="none" stroke="black" d="M566,-1199.65C566,-1191 566,-1182.42 566,-1174.42"/>
<polygon fill="black" stroke="black" points="569.5,-1174.26 566,-1164.26 562.5,-1174.26 569.5,-1174.26"/>
</g>
<!-- L3 -->
<g id="node3" class="node">
<title>L3</title>
<text text-anchor="start" x="303.5" y="-1045.3" font-family="Times,serif" font-weight="bold" font-size="14.00">L3</text>
<text text-anchor="start" x="200" y="-1023.3" font-family="Times,serif" font-size="14.00">LEii {Tint(2), Tint(1)} {Tint(5)}</text>
<text text-anchor="start" x="228.5" y="-1002.3" font-family="Times,serif" font-size="14.00">CBR {Tint(5)} {L6, L5}</text>
<polygon fill="none" stroke="black" points="194.5,-994 194.5,-1061 431.5,-1061 431.5,-994 194.5,-994"/>
</g>
<!-- L2&#45;&gt;L3 -->
<g id="edge2" class="edge">
<title>L2&#45;&gt;L3</title>
<path fill="none" stroke="black" d="M484.56,-1096.99C458.95,-1086.77 430.52,-1075.42 404.28,-1064.94"/>
<polygon fill="black" stroke="black" points="405.31,-1061.58 394.72,-1061.13 402.71,-1068.08 405.31,-1061.58"/>
</g>
<!-- L4 -->
<g id="node4" class="node">
<title>L4</title>
<text text-anchor="start" x="556" y="-1045.3" font-family="Times,serif" font-weight="bold" font-size="14.00">L4</text>
<text text-anchor="start" x="455" y="-1023.3" font-family="Times,serif" font-size="14.00">LIii {Tint(1), Tint(2)} {Tint(5)}</text>
<text text-anchor="start" x="481" y="-1002.3" font-family="Times,serif" font-size="14.00">CBR {Tint(5)} {L6, L5}</text>
<polygon fill="none" stroke="black" points="450,-994 450,-1061 682,-1061 682,-994 450,-994"/>
</g>
<!-- L2&#45;&gt;L4 -->
<g id="edge3" class="edge">
<title>L2&#45;&gt;L4</title>
<path fill="none" stroke="black" d="M566,-1096.99C566,-1088.87 566,-1080.04 566,-1071.5"/>
<polygon fill="black" stroke="black" points="569.5,-1071.3 566,-1061.3 562.5,-1071.3 569.5,-1071.3"/>
</g>
<!-- L6 -->
<g id="node5" class="node">
<title>L6</title>
<text text-anchor="start" x="556" y="-869.3" font-family="Times,serif" font-weight="bold" font-size="14.00">L6</text>
<text text-anchor="start" x="535" y="-847.3" font-family="Times,serif" font-size="14.00">BR {L1}</text>
<polygon fill="none" stroke="black" points="530,-838.5 530,-884.5 602,-884.5 602,-838.5 530,-838.5"/>
</g>
<!-- L3&#45;&gt;L6 -->
<g id="edge4" class="edge">
<title>L3&#45;&gt;L6</title>
<path fill="none" stroke="black" d="M431.58,-995.87C469.51,-984.27 505.46,-970.77 520,-958 539.01,-941.3 550.87,-914.99 557.78,-894.21"/>
<polygon fill="black" stroke="black" points="561.16,-895.11 560.78,-884.52 554.48,-893.04 561.16,-895.11"/>
</g>
<!-- L5 -->
<g id="node6" class="node">
<title>L5</title>
<text text-anchor="start" x="369.5" y="-942.3" font-family="Times,serif" font-weight="bold" font-size="14.00">L5</text>
<text text-anchor="start" x="291" y="-920.3" font-family="Times,serif" font-size="14.00">MOV {Tint(1)} {Tint(0)}</text>
<text text-anchor="start" x="279" y="-899.3" font-family="Times,serif" font-size="14.00">MOV {10 Kint(1)} {Tint(7)}</text>
<text text-anchor="start" x="283.5" y="-878.3" font-family="Times,serif" font-size="14.00">MOV {1 Kint(0)} {Tint(8)}</text>
<text text-anchor="start" x="280" y="-857.3" font-family="Times,serif" font-size="14.00">UNMi {1 Kint(0)} {Tint(9)}</text>
<text text-anchor="start" x="286.5" y="-836.3" font-family="Times,serif" font-size="14.00">MOV {Tint(9)} {Tint(10)}</text>
<text text-anchor="start" x="252" y="-815.3" font-family="Times,serif" font-size="14.00">LIii {0 Kint(2), Tint(10)} {Tint(11)}</text>
<text text-anchor="start" x="255" y="-794.3" font-family="Times,serif" font-size="14.00">SUBii {Tint(7), Tint(10)} {Tint(7)}</text>
<text text-anchor="start" x="348.5" y="-773.3" font-family="Times,serif" font-size="14.00">BR {L7}</text>
<polygon fill="none" stroke="black" points="246.5,-765 246.5,-958 511.5,-958 511.5,-765 246.5,-765"/>
</g>
<!-- L3&#45;&gt;L5 -->
<g id="edge5" class="edge">
<title>L3&#45;&gt;L5</title>
<path fill="none" stroke="black" d="M326.2,-993.71C329.39,-985.78 332.97,-976.89 336.72,-967.56"/>
<polygon fill="black" stroke="black" points="340.04,-968.69 340.52,-958.11 333.54,-966.08 340.04,-968.69"/>
</g>
<!-- L4&#45;&gt;L6 -->
<g id="edge6" class="edge">
<title>L4&#45;&gt;L6</title>
<path fill="none" stroke="black" d="M566,-993.71C566,-965.03 566,-923.61 566,-895.01"/>
<polygon fill="black" stroke="black" points="569.5,-894.73 566,-884.73 562.5,-894.73 569.5,-894.73"/>
</g>
<!-- L4&#45;&gt;L5 -->
<g id="edge7" class="edge">
<title>L4&#45;&gt;L5</title>
<path fill="none" stroke="black" d="M528.61,-993.71C518.73,-985.04 507.52,-975.21 495.79,-964.93"/>
<polygon fill="black" stroke="black" points="497.84,-962.07 488.02,-958.11 493.23,-967.33 497.84,-962.07"/>
</g>
<!-- L1 -->
<g id="node8" class="node">
<title>L1</title>
<ellipse fill="none" stroke="black" cx="566" cy="-695.5" rx="27" ry="18"/>
<text text-anchor="middle" x="566" y="-691.8" font-family="Times,serif" font-size="14.00">L1</text>
</g>
<!-- L6&#45;&gt;L1 -->
<g id="edge9" class="edge">
<title>L6&#45;&gt;L1</title>
<path fill="none" stroke="black" d="M566,-838.38C566,-808.69 566,-755.96 566,-723.82"/>
<polygon fill="black" stroke="black" points="569.5,-723.78 566,-713.78 562.5,-723.78 569.5,-723.78"/>
</g>
<!-- L7 -->
<g id="node7" class="node">
<title>L7</title>
<text text-anchor="start" x="375.5" y="-713.3" font-family="Times,serif" font-weight="bold" font-size="14.00">L7</text>
<text text-anchor="start" x="261" y="-691.3" font-family="Times,serif" font-size="14.00">ADDii {Tint(7), Tint(10)} {Tint(7)}</text>
<text text-anchor="start" x="296" y="-670.3" font-family="Times,serif" font-size="14.00">CBR {Tint(11)} {L8, L9}</text>
<polygon fill="none" stroke="black" points="255.5,-662 255.5,-729 514.5,-729 514.5,-662 255.5,-662"/>
</g>
<!-- L5&#45;&gt;L7 -->
<g id="edge8" class="edge">
<title>L5&#45;&gt;L7</title>
<path fill="none" stroke="black" d="M382.51,-764.63C382.83,-755.76 383.15,-747.11 383.44,-739.12"/>
<polygon fill="black" stroke="black" points="386.94,-739.14 383.81,-729.02 379.95,-738.89 386.94,-739.14"/>
</g>
<!-- L8 -->
<g id="node9" class="node">
<title>L8</title>
<text text-anchor="start" x="175" y="-610.3" font-family="Times,serif" font-weight="bold" font-size="14.00">L8</text>
<text text-anchor="start" x="67" y="-588.3" font-family="Times,serif" font-size="14.00">LEii {Tint(8), Tint(7)} {Tint(12)}</text>
<text text-anchor="start" x="86.5" y="-567.3" font-family="Times,serif" font-size="14.00">CBR {Tint(12)} {L11, L10}</text>
<polygon fill="none" stroke="black" points="62,-559 62,-626 308,-626 308,-559 62,-559"/>
</g>
<!-- L7&#45;&gt;L8 -->
<g id="edge10" class="edge">
<title>L7&#45;&gt;L8</title>
<path fill="none" stroke="black" d="M320.62,-661.99C300.91,-652.04 279.08,-641.01 258.8,-630.77"/>
<polygon fill="black" stroke="black" points="260.11,-627.51 249.6,-626.13 256.95,-633.76 260.11,-627.51"/>
</g>
<!-- L9 -->
<g id="node10" class="node">
<title>L9</title>
<text text-anchor="start" x="437.5" y="-610.3" font-family="Times,serif" font-weight="bold" font-size="14.00">L9</text>
<text text-anchor="start" x="332" y="-588.3" font-family="Times,serif" font-size="14.00">LIii {Tint(7), Tint(8)} {Tint(12)}</text>
<text text-anchor="start" x="349" y="-567.3" font-family="Times,serif" font-size="14.00">CBR {Tint(12)} {L11, L10}</text>
<polygon fill="none" stroke="black" points="326.5,-559 326.5,-626 567.5,-626 567.5,-559 326.5,-559"/>
</g>
<!-- L7&#45;&gt;L9 -->
<g id="edge11" class="edge">
<title>L7&#45;&gt;L9</title>
<path fill="none" stroke="black" d="M404.96,-661.99C410.22,-653.42 415.96,-644.07 421.47,-635.1"/>
<polygon fill="black" stroke="black" points="424.62,-636.65 426.87,-626.3 418.65,-632.99 424.62,-636.65"/>
</g>
<!-- L11 -->
<g id="node11" class="node">
<title>L11</title>
<text text-anchor="start" x="432" y="-444.8" font-family="Times,serif" font-weight="bold" font-size="14.00">L11</text>
<text text-anchor="start" x="416" y="-422.8" font-family="Times,serif" font-size="14.00">BR {L2}</text>
<polygon fill="none" stroke="black" points="411,-414 411,-460 483,-460 483,-414 411,-414"/>
</g>
<!-- L8&#45;&gt;L11 -->
<g id="edge12" class="edge">
<title>L8&#45;&gt;L11</title>
<path fill="none" stroke="black" d="M262.41,-558.95C285.31,-548.39 310.1,-536.02 332,-523 360.2,-506.24 389.92,-484.14 412.08,-466.67"/>
<polygon fill="black" stroke="black" points="414.54,-469.19 420.19,-460.23 410.18,-463.71 414.54,-469.19"/>
</g>
<!-- L10 -->
<g id="node12" class="node">
<title>L10</title>
<text text-anchor="start" x="170.5" y="-507.8" font-family="Times,serif" font-weight="bold" font-size="14.00">L10</text>
<text text-anchor="start" x="97" y="-485.8" font-family="Times,serif" font-size="14.00">MOV {Tint(7)} {Tint(6)}</text>
<text text-anchor="start" x="85" y="-464.8" font-family="Times,serif" font-size="14.00">MOV {1 Kint(0)} {Tint(14)}</text>
<text text-anchor="start" x="85" y="-443.8" font-family="Times,serif" font-size="14.00">MOV {3 Kint(3)} {Tint(15)}</text>
<text text-anchor="start" x="85" y="-422.8" font-family="Times,serif" font-size="14.00">MOV {2 Kint(4)} {Tint(16)}</text>
<text text-anchor="start" x="58" y="-401.8" font-family="Times,serif" font-size="14.00">LIii {0 Kint(2), Tint(16)} {Tint(17)}</text>
<text text-anchor="start" x="52" y="-380.8" font-family="Times,serif" font-size="14.00">SUBii {Tint(14), Tint(16)} {Tint(14)}</text>
<text text-anchor="start" x="150" y="-359.8" font-family="Times,serif" font-size="14.00">BR {L12}</text>
<polygon fill="none" stroke="black" points="46.5,-351 46.5,-523 323.5,-523 323.5,-351 46.5,-351"/>
</g>
<!-- L8&#45;&gt;L10 -->
<g id="edge13" class="edge">
<title>L8&#45;&gt;L10</title>
<path fill="none" stroke="black" d="M185,-558.95C185,-551.13 185,-542.38 185,-533.26"/>
<polygon fill="black" stroke="black" points="188.5,-533.24 185,-523.24 181.5,-533.24 188.5,-533.24"/>
</g>
<!-- L9&#45;&gt;L11 -->
<g id="edge14" class="edge">
<title>L9&#45;&gt;L11</title>
<path fill="none" stroke="black" d="M447,-558.95C447,-532.8 447,-496.28 447,-470.22"/>
<polygon fill="black" stroke="black" points="450.5,-470.11 447,-460.11 443.5,-470.11 450.5,-470.11"/>
</g>
<!-- L9&#45;&gt;L10 -->
<g id="edge15" class="edge">
<title>L9&#45;&gt;L10</title>
<path fill="none" stroke="black" d="M391.44,-558.95C373.75,-548.58 353.27,-536.59 332.23,-524.26"/>
<polygon fill="black" stroke="black" points="333.9,-521.18 323.5,-519.15 330.36,-527.22 333.9,-521.18"/>
</g>
<!-- L11&#45;&gt;L2 -->
<g id="edge17" class="edge">
<title>L11&#45;&gt;L2</title>
<path fill="none" stroke="black" d="M483.02,-452.82C555.05,-485.12 710,-569.17 710,-694.5 710,-862.5 710,-862.5 710,-862.5 710,-951.13 739.75,-986.99 691,-1061 683.15,-1072.92 672.49,-1082.95 660.68,-1091.33"/>
<polygon fill="black" stroke="black" points="658.74,-1088.42 652.35,-1096.87 662.61,-1094.25 658.74,-1088.42"/>
</g>
<!-- L12 -->
<g id="node13" class="node">
<title>L12</title>
<text text-anchor="start" x="162.5" y="-299.3" font-family="Times,serif" font-weight="bold" font-size="14.00">L12</text>
<text text-anchor="start" x="44" y="-277.3" font-family="Times,serif" font-size="14.00">ADDii {Tint(14), Tint(16)} {Tint(14)}</text>
<text text-anchor="start" x="79" y="-256.3" font-family="Times,serif" font-size="14.00">CBR {Tint(17)} {L13, L14}</text>
<polygon fill="none" stroke="black" points="38.5,-248 38.5,-315 315.5,-315 315.5,-248 38.5,-248"/>
</g>
<!-- L10&#45;&gt;L12 -->
<g id="edge16" class="edge">
<title>L10&#45;&gt;L12</title>
<path fill="none" stroke="black" d="M180.56,-350.72C180.1,-341.99 179.65,-333.41 179.24,-325.43"/>
<polygon fill="black" stroke="black" points="182.73,-325.14 178.71,-315.34 175.74,-325.51 182.73,-325.14"/>
</g>
<!-- L13 -->
<g id="node14" class="node">
<title>L13</title>
<text text-anchor="start" x="435" y="-196.3" font-family="Times,serif" font-weight="bold" font-size="14.00">L13</text>
<text text-anchor="start" x="323" y="-174.3" font-family="Times,serif" font-size="14.00">LEii {Tint(15), Tint(14)} {Tint(18)}</text>
<text text-anchor="start" x="351.5" y="-153.3" font-family="Times,serif" font-size="14.00">CBR {Tint(18)} {L16, L15}</text>
<polygon fill="none" stroke="black" points="318,-145 318,-212 582,-212 582,-145 318,-145"/>
</g>
<!-- L12&#45;&gt;L13 -->
<g id="edge18" class="edge">
<title>L12&#45;&gt;L13</title>
<path fill="none" stroke="black" d="M264.88,-247.99C292.75,-237.68 323.73,-226.22 352.25,-215.67"/>
<polygon fill="black" stroke="black" points="353.65,-218.88 361.82,-212.13 351.22,-212.31 353.65,-218.88"/>
</g>
<!-- L14 -->
<g id="node15" class="node">
<title>L14</title>
<text text-anchor="start" x="155.5" y="-196.3" font-family="Times,serif" font-weight="bold" font-size="14.00">L14</text>
<text text-anchor="start" x="46" y="-174.3" font-family="Times,serif" font-size="14.00">LIii {Tint(14), Tint(15)} {Tint(18)}</text>
<text text-anchor="start" x="72" y="-153.3" font-family="Times,serif" font-size="14.00">CBR {Tint(18)} {L16, L15}</text>
<polygon fill="none" stroke="black" points="40.5,-145 40.5,-212 299.5,-212 299.5,-145 40.5,-145"/>
</g>
<!-- L12&#45;&gt;L14 -->
<g id="edge19" class="edge">
<title>L12&#45;&gt;L14</title>
<path fill="none" stroke="black" d="M174.75,-247.99C174.18,-239.87 173.57,-231.04 172.98,-222.5"/>
<polygon fill="black" stroke="black" points="176.46,-222.03 172.27,-212.3 169.47,-222.52 176.46,-222.03"/>
</g>
<!-- L16 -->
<g id="node16" class="node">
<title>L16</title>
<text text-anchor="start" x="435" y="-62.3" font-family="Times,serif" font-weight="bold" font-size="14.00">L16</text>
<text text-anchor="start" x="419" y="-40.3" font-family="Times,serif" font-size="14.00">BR {L7}</text>
<polygon fill="none" stroke="black" points="414,-31.5 414,-77.5 486,-77.5 486,-31.5 414,-31.5"/>
</g>
<!-- L13&#45;&gt;L16 -->
<g id="edge20" class="edge">
<title>L13&#45;&gt;L16</title>
<path fill="none" stroke="black" d="M450,-144.81C450,-127.27 450,-105.73 450,-88.19"/>
<polygon fill="black" stroke="black" points="453.5,-87.86 450,-77.86 446.5,-87.86 453.5,-87.86"/>
</g>
<!-- L15 -->
<g id="node17" class="node">
<title>L15</title>
<text text-anchor="start" x="155" y="-93.3" font-family="Times,serif" font-weight="bold" font-size="14.00">L15</text>
<text text-anchor="start" x="72.5" y="-71.3" font-family="Times,serif" font-size="14.00">MOV {Tint(14)} {Tint(13)}</text>
<text text-anchor="start" x="64.5" y="-50.3" font-family="Times,serif" font-size="14.00">LOADGLOBAL {print} {T(0)}</text>
<text text-anchor="start" x="5" y="-29.3" font-family="Times,serif" font-size="14.00">CALL {T(0), Tint(0), Tint(6), Tint(13)} {T(0..)}</text>
<text text-anchor="start" x="134.5" y="-8.3" font-family="Times,serif" font-size="14.00">BR {L12}</text>
<polygon fill="none" stroke="black" points="0,0 0,-109 340,-109 340,0 0,0"/>
</g>
<!-- L13&#45;&gt;L15 -->
<g id="edge21" class="edge">
<title>L13&#45;&gt;L15</title>
<path fill="none" stroke="black" d="M375.33,-144.97C352.75,-135.13 327.25,-124.02 302.09,-113.05"/>
<polygon fill="black" stroke="black" points="303.4,-109.81 292.84,-109.02 300.61,-116.23 303.4,-109.81"/>
</g>
<!-- L14&#45;&gt;L16 -->
<g id="edge22" class="edge">
<title>L14&#45;&gt;L16</title>
<path fill="none" stroke="black" d="M261.49,-144.94C289.83,-134.2 320.98,-121.73 349,-109 367.45,-100.62 387.24,-90.42 404.38,-81.18"/>
<polygon fill="black" stroke="black" points="406.49,-84.01 413.6,-76.16 403.14,-77.86 406.49,-84.01"/>
</g>
<!-- L14&#45;&gt;L15 -->
<g id="edge23" class="edge">
<title>L14&#45;&gt;L15</title>
<path fill="none" stroke="black" d="M170,-144.81C170,-136.81 170,-127.97 170,-119.06"/>
<polygon fill="black" stroke="black" points="173.5,-119.02 170,-109.02 166.5,-119.02 173.5,-119.02"/>
</g>
<!-- L16&#45;&gt;L7 -->
<g id="edge25" class="edge">
<title>L16&#45;&gt;L7</title>
<path fill="none" stroke="black" d="M486.21,-68.26C519.2,-81.9 566.43,-106.85 591,-145 623.93,-196.12 610,-219.69 610,-280.5 610,-438 610,-438 610,-438 610,-522.91 630.88,-561.2 576,-626 561.98,-642.55 543.66,-655.1 523.91,-664.62"/>
<polygon fill="black" stroke="black" points="522.41,-661.46 514.75,-668.79 525.3,-667.84 522.41,-661.46"/>
</g>
<!-- L15&#45;&gt;L12 -->
<g id="edge24" class="edge">
<title>L15&#45;&gt;L12</title>
<path fill="none" stroke="black" d="M61.14,-109.03C49.09,-119.33 38.49,-131.27 31,-145 16.74,-171.14 15.03,-186.87 31,-212 38.61,-223.98 48.94,-233.9 60.6,-242.11"/>
<polygon fill="black" stroke="black" points="59.02,-245.26 69.3,-247.79 62.84,-239.39 59.02,-245.26"/>
</g>
</g>
</svg>
