<?xml version="1.0" encoding="UTF-8" standalone="no"?>
<!DOCTYPE svg PUBLIC "-//W3C//DTD SVG 1.1//EN"
 "http://www.w3.org/Graphics/SVG/1.1/DTD/svg11.dtd">
<!-- Generated by graphviz version 2.43.0 (0)
 -->
<!-- Title: Proc1 Pages: 1 -->
<svg width="749pt" height="1359pt"
 viewBox="0.00 0.00 748.62 1359.00" xmlns="http://www.w3.org/2000/svg" xmlns:xlink="http://www.w3.org/1999/xlink">
<g id="graph0" class="graph" transform="scale(1 1) rotate(0) translate(4 1355)">
<title>Proc1</title>
<polygon fill="white" stroke="transparent" points="-4,4 -4,-1355 744.62,-1355 744.62,4 -4,4"/>
<!-- L0 -->
<g id="node1" class="node">
<title>L0</title>
<text text-anchor="start" x="577.5" y="-1335.3" font-family="Times,serif" font-weight="bold" font-size="14.00">L0</text>
<text text-anchor="start" x="491.5" y="-1313.3" font-family="Times,serif" font-size="14.00">MOV {1 Kint(0)} {Tint(0)}</text>
<text text-anchor="start" x="487" y="-1292.3" font-family="Times,serif" font-size="14.00">MOV {10 Kint(1)} {Tint(1)}</text>
<text text-anchor="start" x="491.5" y="-1271.3" font-family="Times,serif" font-size="14.00">MOV {1 Kint(0)} {Tint(2)}</text>
<text text-anchor="start" x="469" y="-1250.3" font-family="Times,serif" font-size="14.00">LIii {0 Kint(2), Tint(2)} {Tint(3)}</text>
<text text-anchor="start" x="467.5" y="-1229.3" font-family="Times,serif" font-size="14.00">SUBii {Tint(0), Tint(2)} {Tint(0)}</text>
<text text-anchor="start" x="556.5" y="-1208.3" font-family="Times,serif" font-size="14.00">BR {L2}</text>
<polygon fill="none" stroke="black" points="462.5,-1200 462.5,-1351 712.5,-1351 712.5,-1200 462.5,-1200"/>
</g>
<!-- L2 -->
<g id="node2" class="node">
<title>L2</title>
<text text-anchor="start" x="577.5" y="-1148.3" font-family="Times,serif" font-weight="bold" font-size="14.00">L2</text>
<text text-anchor="start" x="467.5" y="-1126.3" font-family="Times,serif" font-size="14.00">ADDii {Tint(0), Tint(2)} {Tint(0)}</text>
<text text-anchor="start" x="502.5" y="-1105.3" font-family="Times,serif" font-size="14.00">CBR {Tint(3)} {L3, L4}</text>
<polygon fill="none" stroke="black" points="462.5,-1097 462.5,-1164 712.5,-1164 712.5,-1097 462.5,-1097"/>
</g>
<!-- L0&#45;&gt;L2 -->
<g id="edge1" class="edge">
<title>L0&#45;&gt;L2</title>
<path fill="none" stroke="black" d="M587.5,-1199.65C587.5,-1191 587.5,-1182.42 587.5,-1174.42"/>
<polygon fill="black" stroke="black" points="591,-1174.26 587.5,-1164.26 584,-1174.26 591,-1174.26"/>
</g>
<!-- L3 -->
<g id="node3" class="node">
<title>L3</title>
<text text-anchor="start" x="325" y="-1045.3" font-family="Times,serif" font-weight="bold" font-size="14.00">L3</text>
<text text-anchor="start" x="221.5" y="-1023.3" font-family="Times,serif" font-size="14.00">LEii {Tint(1), Tint(0)} {Tint(4)}</text>
<text text-anchor="start" x="250" y="-1002.3" font-family="Times,serif" font-size="14.00">CBR {Tint(4)} {L6, L5}</text>
<polygon fill="none" stroke="black" points="216,-994 216,-1061 453,-1061 453,-994 216,-994"/>
</g>
<!-- L2&#45;&gt;L3 -->
<g id="edge2" class="edge">
<title>L2&#45;&gt;L3</title>
<path fill="none" stroke="black" d="M506.06,-1096.99C480.45,-1086.77 452.02,-1075.42 425.78,-1064.94"/>
<polygon fill="black" stroke="black" points="426.81,-1061.58 416.22,-1061.13 424.21,-1068.08 426.81,-1061.58"/>
</g>
<!-- L4 -->
<g id="node4" class="node">
<title>L4</title>
<text text-anchor="start" x="577.5" y="-1045.3" font-family="Times,serif" font-weight="bold" font-size="14.00">L4</text>
<text text-anchor="start" x="476.5" y="-1023.3" font-family="Times,serif" font-size="14.00">LIii {Tint(0), Tint(1)} {Tint(4)}</text>
<text text-anchor="start" x="502.5" y="-1002.3" font-family="Times,serif" font-size="14.00">CBR {Tint(4)} {L6, L5}</text>
<polygon fill="none" stroke="black" points="471.5,-994 471.5,-1061 703.5,-1061 703.5,-994 471.5,-994"/>
</g>
<!-- L2&#45;&gt;L4 -->
<g id="edge3" class="edge">
<title>L2&#45;&gt;L4</title>
<path fill="none" stroke="black" d="M587.5,-1096.99C587.5,-1088.87 587.5,-1080.04 587.5,-1071.5"/>
<polygon fill="black" stroke="black" points="591,-1071.3 587.5,-1061.3 584,-1071.3 591,-1071.3"/>
</g>
<!-- L6 -->
<g id="node5" class="node">
<title>L6</title>
<text text-anchor="start" x="577.5" y="-869.3" font-family="Times,serif" font-weight="bold" font-size="14.00">L6</text>
<text text-anchor="start" x="556.5" y="-847.3" font-family="Times,serif" font-size="14.00">BR {L1}</text>
<polygon fill="none" stroke="black" points="551.5,-838.5 551.5,-884.5 623.5,-884.5 623.5,-838.5 551.5,-838.5"/>
</g>
<!-- L3&#45;&gt;L6 -->
<g id="edge4" class="edge">
<title>L3&#45;&gt;L6</title>
<path fill="none" stroke="black" d="M453.15,-996.16C491.48,-984.53 527.87,-970.94 542.5,-958 561.38,-941.3 572.96,-914.99 579.63,-894.21"/>
<polygon fill="black" stroke="black" points="583.02,-895.1 582.53,-884.52 576.31,-893.1 583.02,-895.1"/>
</g>
<!-- L5 -->
<g id="node6" class="node">
<title>L5</title>
<text text-anchor="start" x="398.5" y="-942.3" font-family="Times,serif" font-weight="bold" font-size="14.00">L5</text>
<text text-anchor="start" x="311" y="-920.3" font-family="Times,serif" font-size="14.00">MOV {Tint(0)} {local(i, 0)}</text>
<text text-anchor="start" x="308" y="-899.3" font-family="Times,serif" font-size="14.00">MOV {10 Kint(1)} {Tint(5)}</text>
<text text-anchor="start" x="312.5" y="-878.3" font-family="Times,serif" font-size="14.00">MOV {1 Kint(0)} {Tint(6)}</text>
<text text-anchor="start" x="309" y="-857.3" font-family="Times,serif" font-size="14.00">UNMi {1 Kint(0)} {Tint(7)}</text>
<text text-anchor="start" x="320" y="-836.3" font-family="Times,serif" font-size="14.00">MOV {Tint(7)} {Tint(8)}</text>
<text text-anchor="start" x="290" y="-815.3" font-family="Times,serif" font-size="14.00">LIii {0 Kint(2), Tint(8)} {Tint(9)}</text>
<text text-anchor="start" x="288.5" y="-794.3" font-family="Times,serif" font-size="14.00">SUBii {Tint(5), Tint(8)} {Tint(5)}</text>
<text text-anchor="start" x="377.5" y="-773.3" font-family="Times,serif" font-size="14.00">BR {L7}</text>
<polygon fill="none" stroke="black" points="283.5,-765 283.5,-958 533.5,-958 533.5,-765 283.5,-765"/>
</g>
<!-- L3&#45;&gt;L5 -->
<g id="edge5" class="edge">
<title>L3&#45;&gt;L5</title>
<path fill="none" stroke="black" d="M349.3,-993.71C352.91,-985.7 356.97,-976.7 361.23,-967.27"/>
<polygon fill="black" stroke="black" points="364.44,-968.66 365.36,-958.11 358.06,-965.79 364.44,-968.66"/>
</g>
<!-- L4&#45;&gt;L6 -->
<g id="edge6" class="edge">
<title>L4&#45;&gt;L6</title>
<path fill="none" stroke="black" d="M587.5,-993.71C587.5,-965.03 587.5,-923.61 587.5,-895.01"/>
<polygon fill="black" stroke="black" points="591,-894.73 587.5,-884.73 584,-894.73 591,-894.73"/>
</g>
<!-- L4&#45;&gt;L5 -->
<g id="edge7" class="edge">
<title>L4&#45;&gt;L5</title>
<path fill="none" stroke="black" d="M551.71,-993.71C542.25,-985.04 531.52,-975.21 520.3,-964.93"/>
<polygon fill="black" stroke="black" points="522.59,-962.28 512.85,-958.11 517.86,-967.45 522.59,-962.28"/>
</g>
<!-- L1 -->
<g id="node8" class="node">
<title>L1</title>
<ellipse fill="none" stroke="black" cx="587.5" cy="-695.5" rx="27" ry="18"/>
<text text-anchor="middle" x="587.5" y="-691.8" font-family="Times,serif" font-size="14.00">L1</text>
</g>
<!-- L6&#45;&gt;L1 -->
<g id="edge9" class="edge">
<title>L6&#45;&gt;L1</title>
<path fill="none" stroke="black" d="M587.5,-838.38C587.5,-808.69 587.5,-755.96 587.5,-723.82"/>
<polygon fill="black" stroke="black" points="591,-723.78 587.5,-713.78 584,-723.78 591,-723.78"/>
</g>
<!-- L7 -->
<g id="node7" class="node">
<title>L7</title>
<text text-anchor="start" x="402.5" y="-713.3" font-family="Times,serif" font-weight="bold" font-size="14.00">L7</text>
<text text-anchor="start" x="292.5" y="-691.3" font-family="Times,serif" font-size="14.00">ADDii {Tint(5), Tint(8)} {Tint(5)}</text>
<text text-anchor="start" x="327.5" y="-670.3" font-family="Times,serif" font-size="14.00">CBR {Tint(9)} {L8, L9}</text>
<polygon fill="none" stroke="black" points="287.5,-662 287.5,-729 537.5,-729 537.5,-662 287.5,-662"/>
</g>
<!-- L5&#45;&gt;L7 -->
<g id="edge8" class="edge">
<title>L5&#45;&gt;L7</title>
<path fill="none" stroke="black" d="M410.84,-764.63C411.05,-755.76 411.27,-747.11 411.46,-739.12"/>
<polygon fill="black" stroke="black" points="414.96,-739.1 411.71,-729.02 407.96,-738.93 414.96,-739.1"/>
</g>
<!-- L8 -->
<g id="node9" class="node">
<title>L8</title>
<text text-anchor="start" x="199.5" y="-610.3" font-family="Times,serif" font-weight="bold" font-size="14.00">L8</text>
<text text-anchor="start" x="91.5" y="-588.3" font-family="Times,serif" font-size="14.00">LEii {Tint(6), Tint(5)} {Tint(10)}</text>
<text text-anchor="start" x="111" y="-567.3" font-family="Times,serif" font-size="14.00">CBR {Tint(10)} {L11, L10}</text>
<polygon fill="none" stroke="black" points="86.5,-559 86.5,-626 332.5,-626 332.5,-559 86.5,-559"/>
</g>
<!-- L7&#45;&gt;L8 -->
<g id="edge10" class="edge">
<title>L7&#45;&gt;L8</title>
<path fill="none" stroke="black" d="M347.15,-661.99C327.06,-651.99 304.79,-640.91 284.13,-630.63"/>
<polygon fill="black" stroke="black" points="285.59,-627.45 275.07,-626.13 282.47,-633.71 285.59,-627.45"/>
</g>
<!-- L9 -->
<g id="node10" class="node">
<title>L9</title>
<text text-anchor="start" x="462" y="-610.3" font-family="Times,serif" font-weight="bold" font-size="14.00">L9</text>
<text text-anchor="start" x="356.5" y="-588.3" font-family="Times,serif" font-size="14.00">LIii {Tint(5), Tint(6)} {Tint(10)}</text>
<text text-anchor="start" x="373.5" y="-567.3" font-family="Times,serif" font-size="14.00">CBR {Tint(10)} {L11, L10}</text>
<polygon fill="none" stroke="black" points="351,-559 351,-626 592,-626 592,-559 351,-559"/>
</g>
<!-- L7&#45;&gt;L9 -->
<g id="edge11" class="edge">
<title>L7&#45;&gt;L9</title>
<path fill="none" stroke="black" d="M431.49,-661.99C436.5,-653.42 441.96,-644.07 447.2,-635.1"/>
<polygon fill="black" stroke="black" points="450.32,-636.7 452.34,-626.3 444.27,-633.17 450.32,-636.7"/>
</g>
<!-- L11 -->
<g id="node11" class="node">
<title>L11</title>
<text text-anchor="start" x="456.5" y="-444.8" font-family="Times,serif" font-weight="bold" font-size="14.00">L11</text>
<text text-anchor="start" x="440.5" y="-422.8" font-family="Times,serif" font-size="14.00">BR {L2}</text>
<polygon fill="none" stroke="black" points="435.5,-414 435.5,-460 507.5,-460 507.5,-414 435.5,-414"/>
</g>
<!-- L8&#45;&gt;L11 -->
<g id="edge12" class="edge">
<title>L8&#45;&gt;L11</title>
<path fill="none" stroke="black" d="M286.91,-558.95C309.81,-548.39 334.6,-536.02 356.5,-523 384.7,-506.24 414.42,-484.14 436.58,-466.67"/>
<polygon fill="black" stroke="black" points="439.04,-469.19 444.69,-460.23 434.68,-463.71 439.04,-469.19"/>
</g>
<!-- L10 -->
<g id="node12" class="node">
<title>L10</title>
<text text-anchor="start" x="195" y="-507.8" font-family="Times,serif" font-weight="bold" font-size="14.00">L10</text>
<text text-anchor="start" x="112.5" y="-485.8" font-family="Times,serif" font-size="14.00">MOV {Tint(5)} {local(j, 1)}</text>
<text text-anchor="start" x="109.5" y="-464.8" font-family="Times,serif" font-size="14.00">MOV {1 Kint(0)} {Tint(11)}</text>
<text text-anchor="start" x="109.5" y="-443.8" font-family="Times,serif" font-size="14.00">MOV {3 Kint(3)} {Tint(12)}</text>
<text text-anchor="start" x="109.5" y="-422.8" font-family="Times,serif" font-size="14.00">MOV {2 Kint(4)} {Tint(13)}</text>
<text text-anchor="start" x="82.5" y="-401.8" font-family="Times,serif" font-size="14.00">LIii {0 Kint(2), Tint(13)} {Tint(14)}</text>
<text text-anchor="start" x="76.5" y="-380.8" font-family="Times,serif" font-size="14.00">SUBii {Tint(11), Tint(13)} {Tint(11)}</text>
<text text-anchor="start" x="174.5" y="-359.8" font-family="Times,serif" font-size="14.00">BR {L12}</text>
<polygon fill="none" stroke="black" points="71,-351 71,-523 348,-523 348,-351 71,-351"/>
</g>
<!-- L8&#45;&gt;L10 -->
<g id="edge13" class="edge">
<title>L8&#45;&gt;L10</title>
<path fill="none" stroke="black" d="M209.5,-558.95C209.5,-551.13 209.5,-542.38 209.5,-533.26"/>
<polygon fill="black" stroke="black" points="213,-533.24 209.5,-523.24 206,-533.24 213,-533.24"/>
</g>
<!-- L9&#45;&gt;L11 -->
<g id="edge14" class="edge">
<title>L9&#45;&gt;L11</title>
<path fill="none" stroke="black" d="M471.5,-558.95C471.5,-532.8 471.5,-496.28 471.5,-470.22"/>
<polygon fill="black" stroke="black" points="475,-470.11 471.5,-460.11 468,-470.11 475,-470.11"/>
</g>
<!-- L9&#45;&gt;L10 -->
<g id="edge15" class="edge">
<title>L9&#45;&gt;L10</title>
<path fill="none" stroke="black" d="M415.94,-558.95C398.25,-548.58 377.77,-536.59 356.73,-524.26"/>
<polygon fill="black" stroke="black" points="358.4,-521.18 348,-519.15 354.86,-527.22 358.4,-521.18"/>
</g>
<!-- L11&#45;&gt;L2 -->
<g id="edge17" class="edge">
<title>L11&#45;&gt;L2</title>
<path fill="none" stroke="black" d="M507.65,-453.18C579.09,-485.89 731.5,-570.22 731.5,-694.5 731.5,-862.5 731.5,-862.5 731.5,-862.5 731.5,-951.13 761.25,-986.99 712.5,-1061 704.65,-1072.92 693.99,-1082.95 682.18,-1091.33"/>
<polygon fill="black" stroke="black" points="680.24,-1088.42 673.85,-1096.87 684.11,-1094.25 680.24,-1088.42"/>
</g>
<!-- L12 -->
<g id="node13" class="node">
<title>L12</title>
<text text-anchor="start" x="187" y="-299.3" font-family="Times,serif" font-weight="bold" font-size="14.00">L12</text>
<text text-anchor="start" x="68.5" y="-277.3" font-family="Times,serif" font-size="14.00">ADDii {Tint(11), Tint(13)} {Tint(11)}</text>
<text text-anchor="start" x="103.5" y="-256.3" font-family="Times,serif" font-size="14.00">CBR {Tint(14)} {L13, L14}</text>
<polygon fill="none" stroke="black" points="63,-248 63,-315 340,-315 340,-248 63,-248"/>
</g>
<!-- L10&#45;&gt;L12 -->
<g id="edge16" class="edge">
<title>L10&#45;&gt;L12</title>
<path fill="none" stroke="black" d="M205.06,-350.72C204.6,-341.99 204.15,-333.41 203.74,-325.43"/>
<polygon fill="black" stroke="black" points="207.23,-325.14 203.21,-315.34 200.24,-325.51 207.23,-325.14"/>
</g>
<!-- L13 -->
<g id="node14" class="node">
<title>L13</title>
<text text-anchor="start" x="459.5" y="-196.3" font-family="Times,serif" font-weight="bold" font-size="14.00">L13</text>
<text text-anchor="start" x="347.5" y="-174.3" font-family="Times,serif" font-size="14.00">LEii {Tint(12), Tint(11)} {Tint(15)}</text>
<text text-anchor="start" x="376" y="-153.3" font-family="Times,serif" font-size="14.00">CBR {Tint(15)} {L16, L15}</text>
<polygon fill="none" stroke="black" points="342.5,-145 342.5,-212 606.5,-212 606.5,-145 342.5,-145"/>
</g>
<!-- L12&#45;&gt;L13 -->
<g id="edge18" class="edge">
<title>L12&#45;&gt;L13</title>
<path fill="none" stroke="black" d="M289.38,-247.99C317.25,-237.68 348.23,-226.22 376.75,-215.67"/>
<polygon fill="black" stroke="black" points="378.15,-218.88 386.32,-212.13 375.72,-212.31 378.15,-218.88"/>
</g>
<!-- L14 -->
<g id="node15" class="node">
<title>L14</title>
<text text-anchor="start" x="180" y="-196.3" font-family="Times,serif" font-weight="bold" font-size="14.00">L14</text>
<text text-anchor="start" x="70.5" y="-174.3" font-family="Times,serif" font-size="14.00">LIii {Tint(11), Tint(12)} {Tint(15)}</text>
<text text-anchor="start" x="96.5" y="-153.3" font-family="Times,serif" font-size="14.00">CBR {Tint(15)} {L16, L15}</text>
<polygon fill="none" stroke="black" points="65,-145 65,-212 324,-212 324,-145 65,-145"/>
</g>
<!-- L12&#45;&gt;L14 -->
<g id="edge19" class="edge">
<title>L12&#45;&gt;L14</title>
<path fill="none" stroke="black" d="M199.25,-247.99C198.68,-239.87 198.07,-231.04 197.48,-222.5"/>
<polygon fill="black" stroke="black" points="200.96,-222.03 196.77,-212.3 193.97,-222.52 200.96,-222.03"/>
</g>
<!-- L16 -->
<g id="node16" class="node">
<title>L16</title>
<text text-anchor="start" x="459.5" y="-62.3" font-family="Times,serif" font-weight="bold" font-size="14.00">L16</text>
<text text-anchor="start" x="443.5" y="-40.3" font-family="Times,serif" font-size="14.00">BR {L7}</text>
<polygon fill="none" stroke="black" points="438.5,-31.5 438.5,-77.5 510.5,-77.5 510.5,-31.5 438.5,-31.5"/>
</g>
<!-- L13&#45;&gt;L16 -->
<g id="edge20" class="edge">
<title>L13&#45;&gt;L16</title>
<path fill="none" stroke="black" d="M474.5,-144.81C474.5,-127.27 474.5,-105.73 474.5,-88.19"/>
<polygon fill="black" stroke="black" points="478,-87.86 474.5,-77.86 471,-87.86 478,-87.86"/>
</g>
<!-- L15 -->
<g id="node17" class="node">
<title>L15</title>
<text text-anchor="start" x="180" y="-93.3" font-family="Times,serif" font-weight="bold" font-size="14.00">L15</text>
<text text-anchor="start" x="91" y="-71.3" font-family="Times,serif" font-size="14.00">MOV {Tint(11)} {local(k, 2)}</text>
<text text-anchor="start" x="89.5" y="-50.3" font-family="Times,serif" font-size="14.00">LOADGLOBAL {print} {T(0)}</text>
<text text-anchor="start" x="5.5" y="-29.3" font-family="Times,serif" font-size="14.00">CALL {T(0), local(i, 0), local(j, 1), local(k, 2)} {T(0..)}</text>
<text text-anchor="start" x="159.5" y="-8.3" font-family="Times,serif" font-size="14.00">BR {L12}</text>
<polygon fill="none" stroke="black" points="0,0 0,-109 389,-109 389,0 0,0"/>
</g>
<!-- L13&#45;&gt;L15 -->
<g id="edge21" class="edge">
<title>L13&#45;&gt;L15</title>
<path fill="none" stroke="black" d="M399.83,-144.97C377.25,-135.13 351.75,-124.02 326.59,-113.05"/>
<polygon fill="black" stroke="black" points="327.9,-109.81 317.34,-109.02 325.11,-116.23 327.9,-109.81"/>
</g>
<!-- L14&#45;&gt;L16 -->
<g id="edge22" class="edge">
<title>L14&#45;&gt;L16</title>
<path fill="none" stroke="black" d="M309.54,-144.95C338.89,-134.96 369.92,-122.88 397.5,-109 411.56,-101.92 425.98,-92.56 438.49,-83.65"/>
<polygon fill="black" stroke="black" points="440.79,-86.3 446.81,-77.58 436.67,-80.64 440.79,-86.3"/>
</g>
<!-- L14&#45;&gt;L15 -->
<g id="edge23" class="edge">
<title>L14&#45;&gt;L15</title>
<path fill="none" stroke="black" d="M194.5,-144.81C194.5,-136.81 194.5,-127.97 194.5,-119.06"/>
<polygon fill="black" stroke="black" points="198,-119.02 194.5,-109.02 191,-119.02 198,-119.02"/>
</g>
<!-- L16&#45;&gt;L7 -->
<g id="edge25" class="edge">
<title>L16&#45;&gt;L7</title>
<path fill="none" stroke="black" d="M510.71,-68.26C543.7,-81.9 590.93,-106.85 615.5,-145 648.43,-196.12 634.5,-219.69 634.5,-280.5 634.5,-438 634.5,-438 634.5,-438 634.5,-522.91 655.21,-561.06 600.5,-626 591.05,-637.22 567.37,-648.49 539.89,-658.56"/>
<polygon fill="black" stroke="black" points="538.68,-655.27 530.43,-661.92 541.03,-661.87 538.68,-655.27"/>
</g>
<!-- L15&#45;&gt;L12 -->
<g id="edge24" class="edge">
<title>L15&#45;&gt;L12</title>
<path fill="none" stroke="black" d="M85.64,-109.03C73.59,-119.33 62.99,-131.27 55.5,-145 41.24,-171.14 39.53,-186.87 55.5,-212 63.11,-223.98 73.44,-233.9 85.1,-242.11"/>
<polygon fill="black" stroke="black" points="83.52,-245.26 93.8,-247.79 87.34,-239.39 83.52,-245.26"/>
</g>
</g>
</svg>
