<?xml version="1.0" encoding="UTF-8" standalone="no"?>
<!DOCTYPE svg PUBLIC "-//W3C//DTD SVG 1.1//EN"
 "http://www.w3.org/Graphics/SVG/1.1/DTD/svg11.dtd">
<!-- Generated by graphviz version 2.43.0 (0)
 -->
<!-- Title: Proc1 Pages: 1 -->
<svg width="562pt" height="807pt"
 viewBox="0.00 0.00 562.29 807.00" xmlns="http://www.w3.org/2000/svg" xmlns:xlink="http://www.w3.org/1999/xlink">
<g id="graph0" class="graph" transform="scale(1 1) rotate(0) translate(4 803)">
<title>Proc1</title>
<polygon fill="white" stroke="transparent" points="-4,4 -4,-803 558.29,-803 558.29,4 -4,4"/>
<!-- L0 -->
<g id="node1" class="node">
<title>L0</title>
<text text-anchor="start" x="278.79" y="-783.3" font-family="Times,serif" font-weight="bold" font-size="14.00">L0</text>
<text text-anchor="start" x="192.79" y="-761.3" font-family="Times,serif" font-size="14.00">MOV {1 Kint(0)} {Tint(1)}</text>
<text text-anchor="start" x="188.29" y="-740.3" font-family="Times,serif" font-size="14.00">MOV {10 Kint(1)} {Tint(2)}</text>
<text text-anchor="start" x="192.79" y="-719.3" font-family="Times,serif" font-size="14.00">MOV {1 Kint(0)} {Tint(3)}</text>
<text text-anchor="start" x="170.29" y="-698.3" font-family="Times,serif" font-size="14.00">LIii {0 Kint(2), Tint(3)} {Tint(4)}</text>
<text text-anchor="start" x="168.79" y="-677.3" font-family="Times,serif" font-size="14.00">SUBii {Tint(1), Tint(3)} {Tint(1)}</text>
<text text-anchor="start" x="257.79" y="-656.3" font-family="Times,serif" font-size="14.00">BR {L2}</text>
<polygon fill="none" stroke="black" points="163.79,-648 163.79,-799 413.79,-799 413.79,-648 163.79,-648"/>
</g>
<!-- L2 -->
<g id="node2" class="node">
<title>L2</title>
<text text-anchor="start" x="278.79" y="-596.3" font-family="Times,serif" font-weight="bold" font-size="14.00">L2</text>
<text text-anchor="start" x="168.79" y="-574.3" font-family="Times,serif" font-size="14.00">ADDii {Tint(1), Tint(3)} {Tint(1)}</text>
<text text-anchor="start" x="203.79" y="-553.3" font-family="Times,serif" font-size="14.00">CBR {Tint(4)} {L3, L4}</text>
<polygon fill="none" stroke="black" points="163.79,-545 163.79,-612 413.79,-612 413.79,-545 163.79,-545"/>
</g>
<!-- L0&#45;&gt;L2 -->
<g id="edge1" class="edge">
<title>L0&#45;&gt;L2</title>
<path fill="none" stroke="black" d="M288.79,-647.65C288.79,-639 288.79,-630.42 288.79,-622.42"/>
<polygon fill="black" stroke="black" points="292.29,-622.26 288.79,-612.26 285.29,-622.26 292.29,-622.26"/>
</g>
<!-- L3 -->
<g id="node3" class="node">
<title>L3</title>
<text text-anchor="start" x="426.29" y="-493.3" font-family="Times,serif" font-weight="bold" font-size="14.00">L3</text>
<text text-anchor="start" x="322.79" y="-471.3" font-family="Times,serif" font-size="14.00">LEii {Tint(2), Tint(1)} {Tint(5)}</text>
<text text-anchor="start" x="351.29" y="-450.3" font-family="Times,serif" font-size="14.00">CBR {Tint(5)} {L6, L5}</text>
<polygon fill="none" stroke="black" points="317.29,-442 317.29,-509 554.29,-509 554.29,-442 317.29,-442"/>
</g>
<!-- L2&#45;&gt;L3 -->
<g id="edge2" class="edge">
<title>L2&#45;&gt;L3</title>
<path fill="none" stroke="black" d="M336.11,-544.99C350.07,-535.39 365.49,-524.8 379.93,-514.88"/>
<polygon fill="black" stroke="black" points="382.05,-517.67 388.31,-509.13 378.08,-511.9 382.05,-517.67"/>
</g>
<!-- L4 -->
<g id="node4" class="node">
<title>L4</title>
<text text-anchor="start" x="133.79" y="-493.3" font-family="Times,serif" font-weight="bold" font-size="14.00">L4</text>
<text text-anchor="start" x="32.79" y="-471.3" font-family="Times,serif" font-size="14.00">LIii {Tint(1), Tint(2)} {Tint(5)}</text>
<text text-anchor="start" x="58.79" y="-450.3" font-family="Times,serif" font-size="14.00">CBR {Tint(5)} {L6, L5}</text>
<polygon fill="none" stroke="black" points="27.79,-442 27.79,-509 259.79,-509 259.79,-442 27.79,-442"/>
</g>
<!-- L2&#45;&gt;L4 -->
<g id="edge3" class="edge">
<title>L2&#45;&gt;L4</title>
<path fill="none" stroke="black" d="M242.11,-544.99C228.41,-535.44 213.29,-524.91 199.1,-515.03"/>
<polygon fill="black" stroke="black" points="201.08,-512.14 190.88,-509.3 197.08,-517.89 201.08,-512.14"/>
</g>
<!-- L6 -->
<g id="node5" class="node">
<title>L6</title>
<text text-anchor="start" x="132.79" y="-102.8" font-family="Times,serif" font-weight="bold" font-size="14.00">L6</text>
<text text-anchor="start" x="111.79" y="-80.8" font-family="Times,serif" font-size="14.00">BR {L1}</text>
<polygon fill="none" stroke="black" points="106.79,-72 106.79,-118 178.79,-118 178.79,-72 106.79,-72"/>
</g>
<!-- L3&#45;&gt;L6 -->
<g id="edge4" class="edge">
<title>L3&#45;&gt;L6</title>
<path fill="none" stroke="black" d="M430.75,-441.94C419.17,-377.99 384.87,-235.14 299.79,-154 269.36,-124.98 223.16,-110.23 188.75,-102.9"/>
<polygon fill="black" stroke="black" points="189.42,-99.46 178.93,-100.94 188.05,-106.33 189.42,-99.46"/>
</g>
<!-- L5 -->
<g id="node6" class="node">
<title>L5</title>
<text text-anchor="start" x="134.29" y="-390.3" font-family="Times,serif" font-weight="bold" font-size="14.00">L5</text>
<text text-anchor="start" x="55.79" y="-368.3" font-family="Times,serif" font-size="14.00">MOV {Tint(1)} {Tint(0)}</text>
<text text-anchor="start" x="113.29" y="-347.3" font-family="Times,serif" font-size="14.00">BR {L7}</text>
<polygon fill="none" stroke="black" points="50.29,-339 50.29,-406 237.29,-406 237.29,-339 50.29,-339"/>
</g>
<!-- L3&#45;&gt;L5 -->
<g id="edge5" class="edge">
<title>L3&#45;&gt;L5</title>
<path fill="none" stroke="black" d="M341.79,-441.99C311.57,-431.53 277.94,-419.9 247.09,-409.23"/>
<polygon fill="black" stroke="black" points="248.21,-405.91 237.61,-405.95 245.92,-412.53 248.21,-405.91"/>
</g>
<!-- L4&#45;&gt;L6 -->
<g id="edge6" class="edge">
<title>L4&#45;&gt;L6</title>
<path fill="none" stroke="black" d="M78.66,-441.84C64.4,-432.04 50.65,-420.07 40.79,-406 -3.02,-343.45 -11.71,-307.24 15.79,-236 33.53,-190.05 74.12,-149.86 104.67,-124.47"/>
<polygon fill="black" stroke="black" points="107.05,-127.05 112.6,-118.02 102.63,-121.61 107.05,-127.05"/>
</g>
<!-- L4&#45;&gt;L5 -->
<g id="edge7" class="edge">
<title>L4&#45;&gt;L5</title>
<path fill="none" stroke="black" d="M143.79,-441.99C143.79,-433.87 143.79,-425.04 143.79,-416.5"/>
<polygon fill="black" stroke="black" points="147.29,-416.3 143.79,-406.3 140.29,-416.3 147.29,-416.3"/>
</g>
<!-- L1 -->
<g id="node8" class="node">
<title>L1</title>
<ellipse fill="none" stroke="black" cx="142.79" cy="-18" rx="27" ry="18"/>
<text text-anchor="middle" x="142.79" y="-14.3" font-family="Times,serif" font-size="14.00">L1</text>
</g>
<!-- L6&#45;&gt;L1 -->
<g id="edge9" class="edge">
<title>L6&#45;&gt;L1</title>
<path fill="none" stroke="black" d="M142.79,-71.9C142.79,-63.88 142.79,-54.72 142.79,-46.31"/>
<polygon fill="black" stroke="black" points="146.29,-46.18 142.79,-36.18 139.29,-46.18 146.29,-46.18"/>
</g>
<!-- L7 -->
<g id="node7" class="node">
<title>L7</title>
<text text-anchor="start" x="133.29" y="-287.3" font-family="Times,serif" font-weight="bold" font-size="14.00">L7</text>
<text text-anchor="start" x="30.79" y="-265.3" font-family="Times,serif" font-size="14.00">EQii {Tint(0), 2 Kint(3)} {T(0)}</text>
<text text-anchor="start" x="67.79" y="-244.3" font-family="Times,serif" font-size="14.00">CBR {T(0)} {L8, L9}</text>
<polygon fill="none" stroke="black" points="25.29,-236 25.29,-303 260.29,-303 260.29,-236 25.29,-236"/>
</g>
<!-- L5&#45;&gt;L7 -->
<g id="edge8" class="edge">
<title>L5&#45;&gt;L7</title>
<path fill="none" stroke="black" d="M143.47,-338.99C143.39,-330.87 143.3,-322.04 143.22,-313.5"/>
<polygon fill="black" stroke="black" points="146.71,-313.26 143.12,-303.3 139.71,-313.33 146.71,-313.26"/>
</g>
<!-- L8 -->
<g id="node9" class="node">
<title>L8</title>
<text text-anchor="start" x="132.79" y="-184.8" font-family="Times,serif" font-weight="bold" font-size="14.00">L8</text>
<text text-anchor="start" x="111.79" y="-162.8" font-family="Times,serif" font-size="14.00">BR {L6}</text>
<polygon fill="none" stroke="black" points="106.79,-154 106.79,-200 178.79,-200 178.79,-154 106.79,-154"/>
</g>
<!-- L7&#45;&gt;L8 -->
<g id="edge10" class="edge">
<title>L7&#45;&gt;L8</title>
<path fill="none" stroke="black" d="M142.79,-235.83C142.79,-227.5 142.79,-218.55 142.79,-210.24"/>
<polygon fill="black" stroke="black" points="146.29,-210.15 142.79,-200.15 139.29,-210.15 146.29,-210.15"/>
</g>
<!-- L9 -->
<g id="node10" class="node">
<title>L9</title>
<text text-anchor="start" x="244.79" y="-184.8" font-family="Times,serif" font-weight="bold" font-size="14.00">L9</text>
<text text-anchor="start" x="223.79" y="-162.8" font-family="Times,serif" font-size="14.00">BR {L2}</text>
<polygon fill="none" stroke="black" points="218.79,-154 218.79,-200 290.79,-200 290.79,-154 218.79,-154"/>
</g>
<!-- L7&#45;&gt;L9 -->
<g id="edge11" class="edge">
<title>L7&#45;&gt;L9</title>
<path fill="none" stroke="black" d="M183.23,-235.83C195.02,-226.29 207.82,-215.95 219.29,-206.68"/>
<polygon fill="black" stroke="black" points="221.8,-209.16 227.37,-200.15 217.4,-203.72 221.8,-209.16"/>
</g>
<!-- L8&#45;&gt;L6 -->
<g id="edge12" class="edge">
<title>L8&#45;&gt;L6</title>
<path fill="none" stroke="black" d="M142.79,-153.72C142.79,-145.83 142.79,-136.79 142.79,-128.24"/>
<polygon fill="black" stroke="black" points="146.29,-128.16 142.79,-118.16 139.29,-128.16 146.29,-128.16"/>
</g>
<!-- L9&#45;&gt;L2 -->
<g id="edge13" class="edge">
<title>L9&#45;&gt;L2</title>
<path fill="none" stroke="black" d="M261.11,-200.13C263.93,-210.87 267.01,-224.01 268.79,-236 284.64,-342.56 288.07,-469.58 288.72,-534.55"/>
<polygon fill="black" stroke="black" points="285.23,-534.84 288.81,-544.81 292.23,-534.78 285.23,-534.84"/>
</g>
</g>
</svg>
