<?xml version="1.0" encoding="UTF-8" standalone="no"?>
<!DOCTYPE svg PUBLIC "-//W3C//DTD SVG 1.1//EN"
 "http://www.w3.org/Graphics/SVG/1.1/DTD/svg11.dtd">
<!-- Generated by graphviz version 2.43.0 (0)
 -->
<!-- Title: Proc1 Pages: 1 -->
<svg width="543pt" height="807pt"
 viewBox="0.00 0.00 543.31 807.00" xmlns="http://www.w3.org/2000/svg" xmlns:xlink="http://www.w3.org/1999/xlink">
<g id="graph0" class="graph" transform="scale(1 1) rotate(0) translate(4 803)">
<title>Proc1</title>
<polygon fill="white" stroke="transparent" points="-4,4 -4,-803 539.31,-803 539.31,4 -4,4"/>
<!-- L0 -->
<g id="node1" class="node">
<title>L0</title>
<text text-anchor="start" x="359" y="-783.3" font-family="Times,serif" font-weight="bold" font-size="14.00">L0</text>
<text text-anchor="start" x="273" y="-761.3" font-family="Times,serif" font-size="14.00">MOV {1 Kint(0)} {Tint(0)}</text>
<text text-anchor="start" x="268.5" y="-740.3" font-family="Times,serif" font-size="14.00">MOV {10 Kint(1)} {Tint(1)}</text>
<text text-anchor="start" x="273" y="-719.3" font-family="Times,serif" font-size="14.00">MOV {1 Kint(0)} {Tint(2)}</text>
<text text-anchor="start" x="250.5" y="-698.3" font-family="Times,serif" font-size="14.00">LIii {0 Kint(2), Tint(2)} {Tint(3)}</text>
<text text-anchor="start" x="249" y="-677.3" font-family="Times,serif" font-size="14.00">SUBii {Tint(0), Tint(2)} {Tint(0)}</text>
<text text-anchor="start" x="338" y="-656.3" font-family="Times,serif" font-size="14.00">BR {L2}</text>
<polygon fill="none" stroke="black" points="244,-648 244,-799 494,-799 494,-648 244,-648"/>
</g>
<!-- L2 -->
<g id="node2" class="node">
<title>L2</title>
<text text-anchor="start" x="359" y="-596.3" font-family="Times,serif" font-weight="bold" font-size="14.00">L2</text>
<text text-anchor="start" x="249" y="-574.3" font-family="Times,serif" font-size="14.00">ADDii {Tint(0), Tint(2)} {Tint(0)}</text>
<text text-anchor="start" x="284" y="-553.3" font-family="Times,serif" font-size="14.00">CBR {Tint(3)} {L3, L4}</text>
<polygon fill="none" stroke="black" points="244,-545 244,-612 494,-612 494,-545 244,-545"/>
</g>
<!-- L0&#45;&gt;L2 -->
<g id="edge1" class="edge">
<title>L0&#45;&gt;L2</title>
<path fill="none" stroke="black" d="M369,-647.65C369,-639 369,-630.42 369,-622.42"/>
<polygon fill="black" stroke="black" points="372.5,-622.26 369,-612.26 365.5,-622.26 372.5,-622.26"/>
</g>
<!-- L3 -->
<g id="node3" class="node">
<title>L3</title>
<text text-anchor="start" x="359.5" y="-493.3" font-family="Times,serif" font-weight="bold" font-size="14.00">L3</text>
<text text-anchor="start" x="256" y="-471.3" font-family="Times,serif" font-size="14.00">LEii {Tint(1), Tint(0)} {Tint(4)}</text>
<text text-anchor="start" x="284.5" y="-450.3" font-family="Times,serif" font-size="14.00">CBR {Tint(4)} {L6, L5}</text>
<polygon fill="none" stroke="black" points="250.5,-442 250.5,-509 487.5,-509 487.5,-442 250.5,-442"/>
</g>
<!-- L2&#45;&gt;L3 -->
<g id="edge2" class="edge">
<title>L2&#45;&gt;L3</title>
<path fill="none" stroke="black" d="M369,-544.99C369,-536.87 369,-528.04 369,-519.5"/>
<polygon fill="black" stroke="black" points="372.5,-519.3 369,-509.3 365.5,-519.3 372.5,-519.3"/>
</g>
<!-- L4 -->
<g id="node4" class="node">
<title>L4</title>
<text text-anchor="start" x="106" y="-493.3" font-family="Times,serif" font-weight="bold" font-size="14.00">L4</text>
<text text-anchor="start" x="5" y="-471.3" font-family="Times,serif" font-size="14.00">LIii {Tint(0), Tint(1)} {Tint(4)}</text>
<text text-anchor="start" x="31" y="-450.3" font-family="Times,serif" font-size="14.00">CBR {Tint(4)} {L6, L5}</text>
<polygon fill="none" stroke="black" points="0,-442 0,-509 232,-509 232,-442 0,-442"/>
</g>
<!-- L2&#45;&gt;L4 -->
<g id="edge3" class="edge">
<title>L2&#45;&gt;L4</title>
<path fill="none" stroke="black" d="M287.56,-544.99C261.95,-534.77 233.52,-523.42 207.28,-512.94"/>
<polygon fill="black" stroke="black" points="208.31,-509.58 197.72,-509.13 205.71,-516.08 208.31,-509.58"/>
</g>
<!-- L6 -->
<g id="node5" class="node">
<title>L6</title>
<text text-anchor="start" x="223" y="-102.8" font-family="Times,serif" font-weight="bold" font-size="14.00">L6</text>
<text text-anchor="start" x="202" y="-80.8" font-family="Times,serif" font-size="14.00">BR {L1}</text>
<polygon fill="none" stroke="black" points="197,-72 197,-118 269,-118 269,-72 197,-72"/>
</g>
<!-- L3&#45;&gt;L6 -->
<g id="edge4" class="edge">
<title>L3&#45;&gt;L6</title>
<path fill="none" stroke="black" d="M376.28,-441.78C385.2,-394.41 395.96,-304.86 368,-236 348.97,-189.13 305.98,-149.18 273.6,-124.09"/>
<polygon fill="black" stroke="black" points="275.69,-121.29 265.61,-118.04 271.47,-126.87 275.69,-121.29"/>
</g>
<!-- L5 -->
<g id="node6" class="node">
<title>L5</title>
<text text-anchor="start" x="223.5" y="-390.3" font-family="Times,serif" font-weight="bold" font-size="14.00">L5</text>
<text text-anchor="start" x="136" y="-368.3" font-family="Times,serif" font-size="14.00">MOV {Tint(0)} {local(i, 0)}</text>
<text text-anchor="start" x="202.5" y="-347.3" font-family="Times,serif" font-size="14.00">BR {L7}</text>
<polygon fill="none" stroke="black" points="130.5,-339 130.5,-406 335.5,-406 335.5,-339 130.5,-339"/>
</g>
<!-- L3&#45;&gt;L5 -->
<g id="edge5" class="edge">
<title>L3&#45;&gt;L5</title>
<path fill="none" stroke="black" d="M325.22,-441.99C312.49,-432.53 298.45,-422.11 285.25,-412.31"/>
<polygon fill="black" stroke="black" points="287.28,-409.45 277.16,-406.3 283.11,-415.07 287.28,-409.45"/>
</g>
<!-- L4&#45;&gt;L6 -->
<g id="edge6" class="edge">
<title>L4&#45;&gt;L6</title>
<path fill="none" stroke="black" d="M104.41,-441.84C89.59,-394.55 68.97,-305.09 97,-236 116.03,-189.11 159.14,-149.28 191.76,-124.23"/>
<polygon fill="black" stroke="black" points="193.91,-127 199.8,-118.19 189.71,-121.4 193.91,-127"/>
</g>
<!-- L4&#45;&gt;L5 -->
<g id="edge7" class="edge">
<title>L4&#45;&gt;L5</title>
<path fill="none" stroke="black" d="M153.66,-441.99C164.41,-432.71 176.24,-422.5 187.4,-412.86"/>
<polygon fill="black" stroke="black" points="189.72,-415.48 195.01,-406.3 185.15,-410.18 189.72,-415.48"/>
</g>
<!-- L1 -->
<g id="node8" class="node">
<title>L1</title>
<ellipse fill="none" stroke="black" cx="233" cy="-18" rx="27" ry="18"/>
<text text-anchor="middle" x="233" y="-14.3" font-family="Times,serif" font-size="14.00">L1</text>
</g>
<!-- L6&#45;&gt;L1 -->
<g id="edge9" class="edge">
<title>L6&#45;&gt;L1</title>
<path fill="none" stroke="black" d="M233,-71.9C233,-63.88 233,-54.72 233,-46.31"/>
<polygon fill="black" stroke="black" points="236.5,-46.18 233,-36.18 229.5,-46.18 236.5,-46.18"/>
</g>
<!-- L7 -->
<g id="node7" class="node">
<title>L7</title>
<text text-anchor="start" x="223.5" y="-287.3" font-family="Times,serif" font-weight="bold" font-size="14.00">L7</text>
<text text-anchor="start" x="112" y="-265.3" font-family="Times,serif" font-size="14.00">EQii {local(i, 0), 2 Kint(3)} {T(0)}</text>
<text text-anchor="start" x="158" y="-244.3" font-family="Times,serif" font-size="14.00">CBR {T(0)} {L8, L9}</text>
<polygon fill="none" stroke="black" points="106.5,-236 106.5,-303 359.5,-303 359.5,-236 106.5,-236"/>
</g>
<!-- L5&#45;&gt;L7 -->
<g id="edge8" class="edge">
<title>L5&#45;&gt;L7</title>
<path fill="none" stroke="black" d="M233,-338.99C233,-330.87 233,-322.04 233,-313.5"/>
<polygon fill="black" stroke="black" points="236.5,-313.3 233,-303.3 229.5,-313.3 236.5,-313.3"/>
</g>
<!-- L8 -->
<g id="node9" class="node">
<title>L8</title>
<text text-anchor="start" x="223" y="-184.8" font-family="Times,serif" font-weight="bold" font-size="14.00">L8</text>
<text text-anchor="start" x="202" y="-162.8" font-family="Times,serif" font-size="14.00">BR {L6}</text>
<polygon fill="none" stroke="black" points="197,-154 197,-200 269,-200 269,-154 197,-154"/>
</g>
<!-- L7&#45;&gt;L8 -->
<g id="edge10" class="edge">
<title>L7&#45;&gt;L8</title>
<path fill="none" stroke="black" d="M233,-235.83C233,-227.5 233,-218.55 233,-210.24"/>
<polygon fill="black" stroke="black" points="236.5,-210.15 233,-200.15 229.5,-210.15 236.5,-210.15"/>
</g>
<!-- L9 -->
<g id="node10" class="node">
<title>L9</title>
<text text-anchor="start" x="442" y="-184.8" font-family="Times,serif" font-weight="bold" font-size="14.00">L9</text>
<text text-anchor="start" x="421" y="-162.8" font-family="Times,serif" font-size="14.00">BR {L2}</text>
<polygon fill="none" stroke="black" points="416,-154 416,-200 488,-200 488,-154 416,-154"/>
</g>
<!-- L7&#45;&gt;L9 -->
<g id="edge11" class="edge">
<title>L7&#45;&gt;L9</title>
<path fill="none" stroke="black" d="M311.75,-235.96C343.57,-222.81 379.14,-208.11 406.51,-196.8"/>
<polygon fill="black" stroke="black" points="407.92,-200 415.82,-192.95 405.24,-193.53 407.92,-200"/>
</g>
<!-- L8&#45;&gt;L6 -->
<g id="edge12" class="edge">
<title>L8&#45;&gt;L6</title>
<path fill="none" stroke="black" d="M233,-153.72C233,-145.83 233,-136.79 233,-128.24"/>
<polygon fill="black" stroke="black" points="236.5,-128.16 233,-118.16 229.5,-128.16 236.5,-128.16"/>
</g>
<!-- L9&#45;&gt;L2 -->
<g id="edge13" class="edge">
<title>L9&#45;&gt;L2</title>
<path fill="none" stroke="black" d="M474.78,-200.14C483.51,-210.16 492.46,-222.74 497,-236 536.31,-350.79 558.43,-404.96 496,-509 488.84,-520.93 478.82,-530.9 467.5,-539.21"/>
<polygon fill="black" stroke="black" points="465.35,-536.45 459.06,-544.97 469.29,-542.23 465.35,-536.45"/>
</g>
<!-- L10 -->
<g id="node11" class="node">
<title>L10</title>
<text text-anchor="start" x="437" y="-277.3" font-family="Times,serif" font-weight="bold" font-size="14.00">L10</text>
<text text-anchor="start" x="421" y="-255.3" font-family="Times,serif" font-size="14.00">BR {L9}</text>
<polygon fill="none" stroke="black" points="416,-246.5 416,-292.5 488,-292.5 488,-246.5 416,-246.5"/>
</g>
<!-- L10&#45;&gt;L9 -->
<g id="edge14" class="edge">
<title>L10&#45;&gt;L9</title>
<path fill="none" stroke="black" d="M452,-246.13C452,-235.28 452,-222.05 452,-210.14"/>
<polygon fill="black" stroke="black" points="455.5,-210.11 452,-200.11 448.5,-210.11 455.5,-210.11"/>
</g>
</g>
</svg>
