<?xml version="1.0" encoding="UTF-8" standalone="no"?>
<!DOCTYPE svg PUBLIC "-//W3C//DTD SVG 1.1//EN"
 "http://www.w3.org/Graphics/SVG/1.1/DTD/svg11.dtd">
<!-- Generated by graphviz version 2.43.0 (0)
 -->
<!-- Title: Proc1 Pages: 1 -->
<svg width="317pt" height="435pt"
 viewBox="0.00 0.00 317.00 435.00" xmlns="http://www.w3.org/2000/svg" xmlns:xlink="http://www.w3.org/1999/xlink">
<g id="graph0" class="graph" transform="scale(1 1) rotate(0) translate(4 431)">
<title>Proc1</title>
<polygon fill="white" stroke="transparent" points="-4,4 -4,-431 313,-431 313,4 -4,4"/>
<!-- L0 -->
<g id="node1" class="node">
<title>L0</title>
<text text-anchor="start" x="178" y="-411.8" font-family="Times,serif" font-weight="bold" font-size="14.00">L0</text>
<text text-anchor="start" x="157" y="-389.8" font-family="Times,serif" font-size="14.00">BR {L2}</text>
<polygon fill="none" stroke="black" points="152,-381 152,-427 224,-427 224,-381 152,-381"/>
</g>
<!-- L2 -->
<g id="node2" class="node">
<title>L2</title>
<text text-anchor="start" x="178" y="-329.3" font-family="Times,serif" font-weight="bold" font-size="14.00">L2</text>
<text text-anchor="start" x="72" y="-307.3" font-family="Times,serif" font-size="14.00">LIii {1 Kint(0), 2 Kint(1)} {T(0)}</text>
<text text-anchor="start" x="112.5" y="-286.3" font-family="Times,serif" font-size="14.00">CBR {T(0)} {L3, L4}</text>
<polygon fill="none" stroke="black" points="67,-278 67,-345 309,-345 309,-278 67,-278"/>
</g>
<!-- L0&#45;&gt;L2 -->
<g id="edge1" class="edge">
<title>L0&#45;&gt;L2</title>
<path fill="none" stroke="black" d="M188,-380.63C188,-372.95 188,-364.09 188,-355.34"/>
<polygon fill="black" stroke="black" points="191.5,-355.21 188,-345.21 184.5,-355.21 191.5,-355.21"/>
</g>
<!-- L3 -->
<g id="node3" class="node">
<title>L3</title>
<text text-anchor="start" x="106" y="-226.8" font-family="Times,serif" font-weight="bold" font-size="14.00">L3</text>
<text text-anchor="start" x="10.5" y="-204.8" font-family="Times,serif" font-size="14.00">LOADGLOBAL {print} {T(1)}</text>
<text text-anchor="start" x="5" y="-183.8" font-family="Times,serif" font-size="14.00">CALL {T(1), &#39;hi&#39; Ks(2)} {T(1..)}</text>
<text text-anchor="start" x="85" y="-162.8" font-family="Times,serif" font-size="14.00">BR {L4}</text>
<polygon fill="none" stroke="black" points="0,-154 0,-242 232,-242 232,-154 0,-154"/>
</g>
<!-- L2&#45;&gt;L3 -->
<g id="edge2" class="edge">
<title>L2&#45;&gt;L3</title>
<path fill="none" stroke="black" d="M166.98,-277.95C161.45,-269.39 155.35,-259.93 149.34,-250.64"/>
<polygon fill="black" stroke="black" points="152.24,-248.67 143.88,-242.17 146.36,-252.47 152.24,-248.67"/>
</g>
<!-- L4 -->
<g id="node4" class="node">
<title>L4</title>
<text text-anchor="start" x="178" y="-102.8" font-family="Times,serif" font-weight="bold" font-size="14.00">L4</text>
<text text-anchor="start" x="157" y="-80.8" font-family="Times,serif" font-size="14.00">BR {L1}</text>
<polygon fill="none" stroke="black" points="152,-72 152,-118 224,-118 224,-72 152,-72"/>
</g>
<!-- L2&#45;&gt;L4 -->
<g id="edge3" class="edge">
<title>L2&#45;&gt;L4</title>
<path fill="none" stroke="black" d="M220.16,-277.95C228.6,-267.35 236.58,-254.95 241,-242 253.65,-204.99 255.15,-190.46 241,-154 236.96,-143.58 230.07,-133.89 222.58,-125.53"/>
<polygon fill="black" stroke="black" points="225.04,-123.04 215.6,-118.24 219.99,-127.89 225.04,-123.04"/>
</g>
<!-- L3&#45;&gt;L4 -->
<g id="edge4" class="edge">
<title>L3&#45;&gt;L4</title>
<path fill="none" stroke="black" d="M146.74,-153.87C153.34,-144.63 160.17,-135.04 166.33,-126.39"/>
<polygon fill="black" stroke="black" points="169.29,-128.28 172.24,-118.11 163.59,-124.22 169.29,-128.28"/>
</g>
<!-- L1 -->
<g id="node5" class="node">
<title>L1</title>
<ellipse fill="none" stroke="black" cx="188" cy="-18" rx="27" ry="18"/>
<text text-anchor="middle" x="188" y="-14.3" font-family="Times,serif" font-size="14.00">L1</text>
</g>
<!-- L4&#45;&gt;L1 -->
<g id="edge5" class="edge">
<title>L4&#45;&gt;L1</title>
<path fill="none" stroke="black" d="M188,-71.9C188,-63.88 188,-54.72 188,-46.31"/>
<polygon fill="black" stroke="black" points="191.5,-46.18 188,-36.18 184.5,-46.18 191.5,-46.18"/>
</g>
</g>
</svg>
