<?xml version="1.0" encoding="UTF-8" standalone="no"?>
<!DOCTYPE svg PUBLIC "-//W3C//DTD SVG 1.1//EN"
 "http://www.w3.org/Graphics/SVG/1.1/DTD/svg11.dtd">
<!-- Generated by graphviz version 2.43.0 (0)
 -->
<!-- Title: Proc1 Pages: 1 -->
<svg width="494pt" height="435pt"
 viewBox="0.00 0.00 494.00 435.00" xmlns="http://www.w3.org/2000/svg" xmlns:xlink="http://www.w3.org/1999/xlink">
<g id="graph0" class="graph" transform="scale(1 1) rotate(0) translate(4 431)">
<title>Proc1</title>
<polygon fill="white" stroke="transparent" points="-4,4 -4,-431 490,-431 490,4 -4,4"/>
<!-- L0 -->
<g id="node1" class="node">
<title>L0</title>
<text text-anchor="start" x="232" y="-411.8" font-family="Times,serif" font-weight="bold" font-size="14.00">L0</text>
<text text-anchor="start" x="211" y="-389.8" font-family="Times,serif" font-size="14.00">BR {L2}</text>
<polygon fill="none" stroke="black" points="206,-381 206,-427 278,-427 278,-381 206,-381"/>
</g>
<!-- L2 -->
<g id="node2" class="node">
<title>L2</title>
<text text-anchor="start" x="232" y="-329.3" font-family="Times,serif" font-weight="bold" font-size="14.00">L2</text>
<text text-anchor="start" x="126" y="-307.3" font-family="Times,serif" font-size="14.00">LIii {1 Kint(0), 2 Kint(1)} {T(0)}</text>
<text text-anchor="start" x="166.5" y="-286.3" font-family="Times,serif" font-size="14.00">CBR {T(0)} {L3, L4}</text>
<polygon fill="none" stroke="black" points="121,-278 121,-345 363,-345 363,-278 121,-278"/>
</g>
<!-- L0&#45;&gt;L2 -->
<g id="edge1" class="edge">
<title>L0&#45;&gt;L2</title>
<path fill="none" stroke="black" d="M242,-380.63C242,-372.95 242,-364.09 242,-355.34"/>
<polygon fill="black" stroke="black" points="245.5,-355.21 242,-345.21 238.5,-355.21 245.5,-355.21"/>
</g>
<!-- L3 -->
<g id="node3" class="node">
<title>L3</title>
<text text-anchor="start" x="106" y="-226.8" font-family="Times,serif" font-weight="bold" font-size="14.00">L3</text>
<text text-anchor="start" x="10.5" y="-204.8" font-family="Times,serif" font-size="14.00">LOADGLOBAL {print} {T(1)}</text>
<text text-anchor="start" x="5" y="-183.8" font-family="Times,serif" font-size="14.00">CALL {T(1), &#39;hi&#39; Ks(2)} {T(1..)}</text>
<text text-anchor="start" x="85" y="-162.8" font-family="Times,serif" font-size="14.00">BR {L5}</text>
<polygon fill="none" stroke="black" points="0,-154 0,-242 232,-242 232,-154 0,-154"/>
</g>
<!-- L2&#45;&gt;L3 -->
<g id="edge2" class="edge">
<title>L2&#45;&gt;L3</title>
<path fill="none" stroke="black" d="M205.22,-277.95C194.95,-268.86 183.55,-258.77 172.42,-248.93"/>
<polygon fill="black" stroke="black" points="174.59,-246.18 164.78,-242.17 169.95,-251.42 174.59,-246.18"/>
</g>
<!-- L4 -->
<g id="node4" class="node">
<title>L4</title>
<text text-anchor="start" x="358" y="-226.8" font-family="Times,serif" font-weight="bold" font-size="14.00">L4</text>
<text text-anchor="start" x="262.5" y="-204.8" font-family="Times,serif" font-size="14.00">LOADGLOBAL {print} {T(2)}</text>
<text text-anchor="start" x="255" y="-183.8" font-family="Times,serif" font-size="14.00">CALL {T(2), &#39;no&#39; Ks(3)} {T(2..)}</text>
<text text-anchor="start" x="337" y="-162.8" font-family="Times,serif" font-size="14.00">BR {L5}</text>
<polygon fill="none" stroke="black" points="250,-154 250,-242 486,-242 486,-154 250,-154"/>
</g>
<!-- L2&#45;&gt;L4 -->
<g id="edge3" class="edge">
<title>L2&#45;&gt;L4</title>
<path fill="none" stroke="black" d="M278.78,-277.95C289.05,-268.86 300.45,-258.77 311.58,-248.93"/>
<polygon fill="black" stroke="black" points="314.05,-251.42 319.22,-242.17 309.41,-246.18 314.05,-251.42"/>
</g>
<!-- L5 -->
<g id="node5" class="node">
<title>L5</title>
<text text-anchor="start" x="232" y="-102.8" font-family="Times,serif" font-weight="bold" font-size="14.00">L5</text>
<text text-anchor="start" x="211" y="-80.8" font-family="Times,serif" font-size="14.00">BR {L1}</text>
<polygon fill="none" stroke="black" points="206,-72 206,-118 278,-118 278,-72 206,-72"/>
</g>
<!-- L3&#45;&gt;L5 -->
<g id="edge4" class="edge">
<title>L3&#45;&gt;L5</title>
<path fill="none" stroke="black" d="M169.8,-153.87C182.18,-143.95 195.04,-133.64 206.42,-124.52"/>
<polygon fill="black" stroke="black" points="208.81,-127.09 214.42,-118.11 204.43,-121.63 208.81,-127.09"/>
</g>
<!-- L4&#45;&gt;L5 -->
<g id="edge5" class="edge">
<title>L4&#45;&gt;L5</title>
<path fill="none" stroke="black" d="M314.2,-153.87C301.82,-143.95 288.96,-133.64 277.58,-124.52"/>
<polygon fill="black" stroke="black" points="279.57,-121.63 269.58,-118.11 275.19,-127.09 279.57,-121.63"/>
</g>
<!-- L1 -->
<g id="node6" class="node">
<title>L1</title>
<ellipse fill="none" stroke="black" cx="242" cy="-18" rx="27" ry="18"/>
<text text-anchor="middle" x="242" y="-14.3" font-family="Times,serif" font-size="14.00">L1</text>
</g>
<!-- L5&#45;&gt;L1 -->
<g id="edge6" class="edge">
<title>L5&#45;&gt;L1</title>
<path fill="none" stroke="black" d="M242,-71.9C242,-63.88 242,-54.72 242,-46.31"/>
<polygon fill="black" stroke="black" points="245.5,-46.18 242,-36.18 238.5,-46.18 245.5,-46.18"/>
</g>
</g>
</svg>
