<?xml version="1.0" encoding="UTF-8" standalone="no"?>
<!DOCTYPE svg PUBLIC "-//W3C//DTD SVG 1.1//EN"
 "http://www.w3.org/Graphics/SVG/1.1/DTD/svg11.dtd">
<!-- Generated by graphviz version 2.43.0 (0)
 -->
<!-- Title: Proc1 Pages: 1 -->
<svg width="828pt" height="767pt"
 viewBox="0.00 0.00 828.00 767.00" xmlns="http://www.w3.org/2000/svg" xmlns:xlink="http://www.w3.org/1999/xlink">
<g id="graph0" class="graph" transform="scale(1 1) rotate(0) translate(4 763)">
<title>Proc1</title>
<polygon fill="white" stroke="transparent" points="-4,4 -4,-763 824,-763 824,4 -4,4"/>
<!-- L0 -->
<g id="node1" class="node">
<title>L0</title>
<text text-anchor="start" x="244.5" y="-743.8" font-family="Times,serif" font-weight="bold" font-size="14.00">L0</text>
<text text-anchor="start" x="223.5" y="-721.8" font-family="Times,serif" font-size="14.00">BR {L2}</text>
<polygon fill="none" stroke="black" points="218.5,-713 218.5,-759 290.5,-759 290.5,-713 218.5,-713"/>
</g>
<!-- L2 -->
<g id="node2" class="node">
<title>L2</title>
<text text-anchor="start" x="245" y="-661.3" font-family="Times,serif" font-weight="bold" font-size="14.00">L2</text>
<text text-anchor="start" x="163" y="-639.3" font-family="Times,serif" font-size="14.00">LOADGLOBAL {a} {T(0)}</text>
<text text-anchor="start" x="162.5" y="-618.3" font-family="Times,serif" font-size="14.00">LOADGLOBAL {b} {T(1)}</text>
<text text-anchor="start" x="176.5" y="-597.3" font-family="Times,serif" font-size="14.00">LT {T(0), T(1)} {T(2)}</text>
<text text-anchor="start" x="179.5" y="-576.3" font-family="Times,serif" font-size="14.00">CBR {T(2)} {L5, L3}</text>
<polygon fill="none" stroke="black" points="157,-568 157,-677 352,-677 352,-568 157,-568"/>
</g>
<!-- L0&#45;&gt;L2 -->
<g id="edge1" class="edge">
<title>L0&#45;&gt;L2</title>
<path fill="none" stroke="black" d="M254.5,-712.97C254.5,-705.42 254.5,-696.55 254.5,-687.38"/>
<polygon fill="black" stroke="black" points="258,-687.35 254.5,-677.35 251,-687.35 258,-687.35"/>
</g>
<!-- L5 -->
<g id="node3" class="node">
<title>L5</title>
<text text-anchor="start" x="122" y="-506.3" font-family="Times,serif" font-weight="bold" font-size="14.00">L5</text>
<text text-anchor="start" x="26.5" y="-484.3" font-family="Times,serif" font-size="14.00">LOADGLOBAL {print} {T(0)}</text>
<text text-anchor="start" x="5.5" y="-463.3" font-family="Times,serif" font-size="14.00">CALL {T(0), &#39;case 1&#39; Ks(0)} {T(0..)}</text>
<text text-anchor="start" x="101" y="-442.3" font-family="Times,serif" font-size="14.00">BR {L9}</text>
<polygon fill="none" stroke="black" points="0,-433.5 0,-521.5 263,-521.5 263,-433.5 0,-433.5"/>
</g>
<!-- L2&#45;&gt;L5 -->
<g id="edge2" class="edge">
<title>L2&#45;&gt;L5</title>
<path fill="none" stroke="black" d="M208.35,-567.85C197.51,-555.24 185.99,-541.85 175.26,-529.38"/>
<polygon fill="black" stroke="black" points="177.87,-527.04 168.7,-521.74 172.56,-531.61 177.87,-527.04"/>
</g>
<!-- L3 -->
<g id="node4" class="node">
<title>L3</title>
<text text-anchor="start" x="369" y="-516.3" font-family="Times,serif" font-weight="bold" font-size="14.00">L3</text>
<text text-anchor="start" x="287" y="-494.3" font-family="Times,serif" font-size="14.00">LOADGLOBAL {a} {T(1)}</text>
<text text-anchor="start" x="286.5" y="-473.3" font-family="Times,serif" font-size="14.00">LOADGLOBAL {b} {T(0)}</text>
<text text-anchor="start" x="298" y="-452.3" font-family="Times,serif" font-size="14.00">EQ {T(1), T(0)} {T(3)}</text>
<text text-anchor="start" x="303.5" y="-431.3" font-family="Times,serif" font-size="14.00">CBR {T(3)} {L6, L4}</text>
<polygon fill="none" stroke="black" points="281,-423 281,-532 476,-532 476,-423 281,-423"/>
</g>
<!-- L2&#45;&gt;L3 -->
<g id="edge3" class="edge">
<title>L2&#45;&gt;L3</title>
<path fill="none" stroke="black" d="M301.03,-567.85C308.86,-558.81 317.06,-549.36 325.05,-540.14"/>
<polygon fill="black" stroke="black" points="327.81,-542.3 331.71,-532.46 322.52,-537.72 327.81,-542.3"/>
</g>
<!-- L9 -->
<g id="node9" class="node">
<title>L9</title>
<text text-anchor="start" x="299.5" y="-102.8" font-family="Times,serif" font-weight="bold" font-size="14.00">L9</text>
<text text-anchor="start" x="278.5" y="-80.8" font-family="Times,serif" font-size="14.00">BR {L1}</text>
<polygon fill="none" stroke="black" points="273.5,-72 273.5,-118 345.5,-118 345.5,-72 273.5,-72"/>
</g>
<!-- L5&#45;&gt;L9 -->
<g id="edge8" class="edge">
<title>L5&#45;&gt;L9</title>
<path fill="none" stroke="black" d="M129.44,-433.3C128.9,-392.14 131.82,-329.04 150.5,-278 173.55,-215.02 190.64,-202.94 236.5,-154 246.39,-143.45 258.26,-133.2 269.53,-124.33"/>
<polygon fill="black" stroke="black" points="271.8,-127 277.6,-118.12 267.53,-121.45 271.8,-127"/>
</g>
<!-- L6 -->
<g id="node5" class="node">
<title>L6</title>
<text text-anchor="start" x="280" y="-361.3" font-family="Times,serif" font-weight="bold" font-size="14.00">L6</text>
<text text-anchor="start" x="184.5" y="-339.3" font-family="Times,serif" font-size="14.00">LOADGLOBAL {print} {T(1)}</text>
<text text-anchor="start" x="165.5" y="-318.3" font-family="Times,serif" font-size="14.00">CALL {T(1), &#39;case2&#39; Ks(1)} {T(1..)}</text>
<text text-anchor="start" x="259" y="-297.3" font-family="Times,serif" font-size="14.00">BR {L9}</text>
<polygon fill="none" stroke="black" points="160,-288.5 160,-376.5 419,-376.5 419,-288.5 160,-288.5"/>
</g>
<!-- L3&#45;&gt;L6 -->
<g id="edge4" class="edge">
<title>L3&#45;&gt;L6</title>
<path fill="none" stroke="black" d="M345.11,-422.85C337.49,-410.6 329.4,-397.61 321.83,-385.44"/>
<polygon fill="black" stroke="black" points="324.67,-383.38 316.41,-376.74 318.73,-387.08 324.67,-383.38"/>
</g>
<!-- L4 -->
<g id="node6" class="node">
<title>L4</title>
<text text-anchor="start" x="525" y="-371.3" font-family="Times,serif" font-weight="bold" font-size="14.00">L4</text>
<text text-anchor="start" x="443" y="-349.3" font-family="Times,serif" font-size="14.00">LOADGLOBAL {a} {T(0)}</text>
<text text-anchor="start" x="442.5" y="-328.3" font-family="Times,serif" font-size="14.00">LOADGLOBAL {b} {T(1)}</text>
<text text-anchor="start" x="455" y="-307.3" font-family="Times,serif" font-size="14.00">LE {T(1), T(0)} {T(4)}</text>
<text text-anchor="start" x="459.5" y="-286.3" font-family="Times,serif" font-size="14.00">CBR {T(4)} {L7, L8}</text>
<polygon fill="none" stroke="black" points="437,-278 437,-387 632,-387 632,-278 437,-278"/>
</g>
<!-- L3&#45;&gt;L4 -->
<g id="edge5" class="edge">
<title>L3&#45;&gt;L4</title>
<path fill="none" stroke="black" d="M437.03,-422.85C447.26,-413.47 457.96,-403.66 468.38,-394.11"/>
<polygon fill="black" stroke="black" points="470.89,-396.55 475.9,-387.22 466.16,-391.39 470.89,-396.55"/>
</g>
<!-- L6&#45;&gt;L9 -->
<g id="edge9" class="edge">
<title>L6&#45;&gt;L9</title>
<path fill="none" stroke="black" d="M264.79,-288.2C247.2,-251.4 229.73,-197.74 248.5,-154 253.18,-143.09 261.03,-133.27 269.57,-124.94"/>
<polygon fill="black" stroke="black" points="272.14,-127.33 277.18,-118.01 267.43,-122.15 272.14,-127.33"/>
</g>
<!-- L7 -->
<g id="node7" class="node">
<title>L7</title>
<text text-anchor="start" x="380" y="-226.8" font-family="Times,serif" font-weight="bold" font-size="14.00">L7</text>
<text text-anchor="start" x="284.5" y="-204.8" font-family="Times,serif" font-size="14.00">LOADGLOBAL {print} {T(5)}</text>
<text text-anchor="start" x="263.5" y="-183.8" font-family="Times,serif" font-size="14.00">CALL {T(5), &#39;case 3&#39; Ks(2)} {T(5..)}</text>
<text text-anchor="start" x="359" y="-162.8" font-family="Times,serif" font-size="14.00">BR {L9}</text>
<polygon fill="none" stroke="black" points="258,-154 258,-242 521,-242 521,-154 258,-154"/>
</g>
<!-- L4&#45;&gt;L7 -->
<g id="edge6" class="edge">
<title>L4&#45;&gt;L7</title>
<path fill="none" stroke="black" d="M475.94,-277.99C465.44,-268.4 454.54,-258.43 444.15,-248.94"/>
<polygon fill="black" stroke="black" points="446.44,-246.29 436.7,-242.13 441.72,-251.46 446.44,-246.29"/>
</g>
<!-- L8 -->
<g id="node8" class="node">
<title>L8</title>
<text text-anchor="start" x="670" y="-226.8" font-family="Times,serif" font-weight="bold" font-size="14.00">L8</text>
<text text-anchor="start" x="574.5" y="-204.8" font-family="Times,serif" font-size="14.00">LOADGLOBAL {print} {T(6)}</text>
<text text-anchor="start" x="544.5" y="-183.8" font-family="Times,serif" font-size="14.00">CALL {T(6), &#39;last case&#39; Ks(3)} {T(6..)}</text>
<text text-anchor="start" x="649" y="-162.8" font-family="Times,serif" font-size="14.00">BR {L9}</text>
<polygon fill="none" stroke="black" points="539,-154 539,-242 820,-242 820,-154 539,-154"/>
</g>
<!-- L4&#45;&gt;L8 -->
<g id="edge7" class="edge">
<title>L4&#45;&gt;L8</title>
<path fill="none" stroke="black" d="M593.06,-277.99C603.56,-268.4 614.46,-258.43 624.85,-248.94"/>
<polygon fill="black" stroke="black" points="627.28,-251.46 632.3,-242.13 622.56,-246.29 627.28,-251.46"/>
</g>
<!-- L7&#45;&gt;L9 -->
<g id="edge10" class="edge">
<title>L7&#45;&gt;L9</title>
<path fill="none" stroke="black" d="M355.34,-153.87C347.94,-144.53 340.26,-134.84 333.36,-126.12"/>
<polygon fill="black" stroke="black" points="335.96,-123.77 327.01,-118.11 330.48,-128.12 335.96,-123.77"/>
</g>
<!-- L8&#45;&gt;L9 -->
<g id="edge11" class="edge">
<title>L8&#45;&gt;L9</title>
<path fill="none" stroke="black" d="M538.6,-156.51C535.54,-155.67 532.5,-154.83 529.5,-154 469.61,-137.52 400.29,-119.4 355.72,-107.88"/>
<polygon fill="black" stroke="black" points="356.33,-104.42 345.77,-105.31 354.58,-111.2 356.33,-104.42"/>
</g>
<!-- L1 -->
<g id="node10" class="node">
<title>L1</title>
<ellipse fill="none" stroke="black" cx="309.5" cy="-18" rx="27" ry="18"/>
<text text-anchor="middle" x="309.5" y="-14.3" font-family="Times,serif" font-size="14.00">L1</text>
</g>
<!-- L9&#45;&gt;L1 -->
<g id="edge12" class="edge">
<title>L9&#45;&gt;L1</title>
<path fill="none" stroke="black" d="M309.5,-71.9C309.5,-63.88 309.5,-54.72 309.5,-46.31"/>
<polygon fill="black" stroke="black" points="313,-46.18 309.5,-36.18 306,-46.18 313,-46.18"/>
</g>
</g>
</svg>
