<?xml version="1.0" encoding="UTF-8" standalone="no"?>
<!DOCTYPE svg PUBLIC "-//W3C//DTD SVG 1.1//EN"
 "http://www.w3.org/Graphics/SVG/1.1/DTD/svg11.dtd">
<!-- Generated by graphviz version 2.43.0 (0)
 -->
<!-- Title: Proc1 Pages: 1 -->
<svg width="687pt" height="866pt"
 viewBox="0.00 0.00 687.00 866.00" xmlns="http://www.w3.org/2000/svg" xmlns:xlink="http://www.w3.org/1999/xlink">
<g id="graph0" class="graph" transform="scale(1 1) rotate(0) translate(4 862)">
<title>Proc1</title>
<polygon fill="white" stroke="transparent" points="-4,4 -4,-862 683,-862 683,4 -4,4"/>
<!-- L0 -->
<g id="node1" class="node">
<title>L0</title>
<text text-anchor="start" x="178" y="-842.8" font-family="Times,serif" font-weight="bold" font-size="14.00">L0</text>
<text text-anchor="start" x="157" y="-820.8" font-family="Times,serif" font-size="14.00">BR {L2}</text>
<polygon fill="none" stroke="black" points="152,-812 152,-858 224,-858 224,-812 152,-812"/>
</g>
<!-- L2 -->
<g id="node2" class="node">
<title>L2</title>
<text text-anchor="start" x="178.5" y="-760.3" font-family="Times,serif" font-weight="bold" font-size="14.00">L2</text>
<text text-anchor="start" x="66" y="-738.3" font-family="Times,serif" font-size="14.00">EQ {local(a, 0), local(b, 1)} {T(0)}</text>
<text text-anchor="start" x="113" y="-717.3" font-family="Times,serif" font-size="14.00">CBR {T(0)} {L5, L3}</text>
<polygon fill="none" stroke="black" points="60.5,-709 60.5,-776 315.5,-776 315.5,-709 60.5,-709"/>
</g>
<!-- L0&#45;&gt;L2 -->
<g id="edge1" class="edge">
<title>L0&#45;&gt;L2</title>
<path fill="none" stroke="black" d="M188,-811.63C188,-803.95 188,-795.09 188,-786.34"/>
<polygon fill="black" stroke="black" points="191.5,-786.21 188,-776.21 184.5,-786.21 191.5,-786.21"/>
</g>
<!-- L5 -->
<g id="node3" class="node">
<title>L5</title>
<text text-anchor="start" x="358.5" y="-647.3" font-family="Times,serif" font-weight="bold" font-size="14.00">L5</text>
<text text-anchor="start" x="333" y="-625.3" font-family="Times,serif" font-size="14.00">BR {L19}</text>
<polygon fill="none" stroke="black" points="327.5,-616.5 327.5,-662.5 408.5,-662.5 408.5,-616.5 327.5,-616.5"/>
</g>
<!-- L2&#45;&gt;L5 -->
<g id="edge2" class="edge">
<title>L2&#45;&gt;L5</title>
<path fill="none" stroke="black" d="M252.78,-708.85C273.81,-697.86 297.1,-685.27 318,-673 320.77,-671.38 323.6,-669.67 326.44,-667.92"/>
<polygon fill="black" stroke="black" points="328.3,-670.88 334.92,-662.61 324.58,-664.95 328.3,-670.88"/>
</g>
<!-- L3 -->
<g id="node4" class="node">
<title>L3</title>
<text text-anchor="start" x="172" y="-657.3" font-family="Times,serif" font-weight="bold" font-size="14.00">L3</text>
<text text-anchor="start" x="60" y="-635.3" font-family="Times,serif" font-size="14.00">EQ {local(a, 0), local(c, 2)} {T(1)}</text>
<text text-anchor="start" x="106.5" y="-614.3" font-family="Times,serif" font-size="14.00">CBR {T(1)} {L6, L4}</text>
<polygon fill="none" stroke="black" points="55,-606 55,-673 309,-673 309,-606 55,-606"/>
</g>
<!-- L2&#45;&gt;L3 -->
<g id="edge3" class="edge">
<title>L2&#45;&gt;L3</title>
<path fill="none" stroke="black" d="M186.07,-708.99C185.59,-700.87 185.06,-692.04 184.55,-683.5"/>
<polygon fill="black" stroke="black" points="188.04,-683.07 183.95,-673.3 181.05,-683.49 188.04,-683.07"/>
</g>
<!-- L19 -->
<g id="node9" class="node">
<title>L19</title>
<text text-anchor="start" x="373.5" y="-544.3" font-family="Times,serif" font-weight="bold" font-size="14.00">L19</text>
<text text-anchor="start" x="353" y="-522.3" font-family="Times,serif" font-size="14.00">BR {L20}</text>
<polygon fill="none" stroke="black" points="347.5,-513.5 347.5,-559.5 428.5,-559.5 428.5,-513.5 347.5,-513.5"/>
</g>
<!-- L5&#45;&gt;L19 -->
<g id="edge8" class="edge">
<title>L5&#45;&gt;L19</title>
<path fill="none" stroke="black" d="M372.44,-616.08C375.15,-602.39 378.66,-584.66 381.66,-569.5"/>
<polygon fill="black" stroke="black" points="385.13,-569.99 383.64,-559.51 378.27,-568.63 385.13,-569.99"/>
</g>
<!-- L6 -->
<g id="node5" class="node">
<title>L6</title>
<text text-anchor="start" x="309.5" y="-451.8" font-family="Times,serif" font-weight="bold" font-size="14.00">L6</text>
<text text-anchor="start" x="284" y="-429.8" font-family="Times,serif" font-size="14.00">BR {L20}</text>
<polygon fill="none" stroke="black" points="278.5,-421 278.5,-467 359.5,-467 359.5,-421 278.5,-421"/>
</g>
<!-- L3&#45;&gt;L6 -->
<g id="edge4" class="edge">
<title>L3&#45;&gt;L6</title>
<path fill="none" stroke="black" d="M260.11,-605.85C275.05,-596.32 289.1,-584.47 299,-570 317.62,-542.78 321.28,-504.51 321.13,-477.51"/>
<polygon fill="black" stroke="black" points="324.62,-477.32 320.89,-467.4 317.62,-477.48 324.62,-477.32"/>
</g>
<!-- L4 -->
<g id="node6" class="node">
<title>L4</title>
<text text-anchor="start" x="153.5" y="-554.3" font-family="Times,serif" font-weight="bold" font-size="14.00">L4</text>
<text text-anchor="start" x="41" y="-532.3" font-family="Times,serif" font-size="14.00">EQ {local(a, 0), local(d, 3)} {T(2)}</text>
<text text-anchor="start" x="88" y="-511.3" font-family="Times,serif" font-size="14.00">CBR {T(2)} {L7, L8}</text>
<polygon fill="none" stroke="black" points="35.5,-503 35.5,-570 290.5,-570 290.5,-503 35.5,-503"/>
</g>
<!-- L3&#45;&gt;L4 -->
<g id="edge5" class="edge">
<title>L3&#45;&gt;L4</title>
<path fill="none" stroke="black" d="M175.88,-605.99C174.34,-597.78 172.66,-588.84 171.04,-580.22"/>
<polygon fill="black" stroke="black" points="174.46,-579.48 169.17,-570.3 167.58,-580.77 174.46,-579.48"/>
</g>
<!-- L20 -->
<g id="node10" class="node">
<title>L20</title>
<text text-anchor="start" x="301.5" y="-359.3" font-family="Times,serif" font-weight="bold" font-size="14.00">L20</text>
<text text-anchor="start" x="281" y="-337.3" font-family="Times,serif" font-size="14.00">BR {L21}</text>
<polygon fill="none" stroke="black" points="275.5,-328.5 275.5,-374.5 356.5,-374.5 356.5,-328.5 275.5,-328.5"/>
</g>
<!-- L6&#45;&gt;L20 -->
<g id="edge9" class="edge">
<title>L6&#45;&gt;L20</title>
<path fill="none" stroke="black" d="M318.26,-420.63C317.9,-409.78 317.46,-396.55 317.07,-384.64"/>
<polygon fill="black" stroke="black" points="320.56,-384.49 316.73,-374.61 313.57,-384.72 320.56,-384.49"/>
</g>
<!-- L7 -->
<g id="node7" class="node">
<title>L7</title>
<text text-anchor="start" x="210.5" y="-451.8" font-family="Times,serif" font-weight="bold" font-size="14.00">L7</text>
<text text-anchor="start" x="185" y="-429.8" font-family="Times,serif" font-size="14.00">BR {L20}</text>
<polygon fill="none" stroke="black" points="179.5,-421 179.5,-467 260.5,-467 260.5,-421 179.5,-421"/>
</g>
<!-- L4&#45;&gt;L7 -->
<g id="edge6" class="edge">
<title>L4&#45;&gt;L7</title>
<path fill="none" stroke="black" d="M183.58,-502.83C189.12,-494.03 195.09,-484.55 200.56,-475.86"/>
<polygon fill="black" stroke="black" points="203.68,-477.48 206.05,-467.15 197.76,-473.75 203.68,-477.48"/>
</g>
<!-- L8 -->
<g id="node8" class="node">
<title>L8</title>
<text text-anchor="start" x="111.5" y="-451.8" font-family="Times,serif" font-weight="bold" font-size="14.00">L8</text>
<text text-anchor="start" x="86" y="-429.8" font-family="Times,serif" font-size="14.00">BR {L13}</text>
<polygon fill="none" stroke="black" points="80.5,-421 80.5,-467 161.5,-467 161.5,-421 80.5,-421"/>
</g>
<!-- L4&#45;&gt;L8 -->
<g id="edge7" class="edge">
<title>L4&#45;&gt;L8</title>
<path fill="none" stroke="black" d="M147.84,-502.83C143.84,-494.22 139.54,-484.95 135.58,-476.41"/>
<polygon fill="black" stroke="black" points="138.67,-474.75 131.28,-467.15 132.32,-477.7 138.67,-474.75"/>
</g>
<!-- L7&#45;&gt;L20 -->
<g id="edge10" class="edge">
<title>L7&#45;&gt;L20</title>
<path fill="none" stroke="black" d="M243.73,-420.63C256.17,-408.9 271.56,-394.39 284.94,-381.78"/>
<polygon fill="black" stroke="black" points="287.67,-384.02 292.54,-374.61 282.87,-378.93 287.67,-384.02"/>
</g>
<!-- L13 -->
<g id="node11" class="node">
<title>L13</title>
<text text-anchor="start" x="112" y="-369.3" font-family="Times,serif" font-weight="bold" font-size="14.00">L13</text>
<text text-anchor="start" x="5" y="-347.3" font-family="Times,serif" font-size="14.00">EQ {local(a, 0), local(e, 4)} {T(3)}</text>
<text text-anchor="start" x="42.5" y="-326.3" font-family="Times,serif" font-size="14.00">CBR {T(3)} {L14, L15}</text>
<polygon fill="none" stroke="black" points="0,-318 0,-385 254,-385 254,-318 0,-318"/>
</g>
<!-- L8&#45;&gt;L13 -->
<g id="edge11" class="edge">
<title>L8&#45;&gt;L13</title>
<path fill="none" stroke="black" d="M122.48,-420.63C122.99,-412.95 123.58,-404.09 124.16,-395.34"/>
<polygon fill="black" stroke="black" points="127.66,-395.42 124.83,-385.21 120.68,-394.96 127.66,-395.42"/>
</g>
<!-- L19&#45;&gt;L20 -->
<g id="edge23" class="edge">
<title>L19&#45;&gt;L20</title>
<path fill="none" stroke="black" d="M387.2,-513.08C385.66,-489.33 381.15,-451.15 368,-421 362,-407.23 352.68,-393.71 343.59,-382.36"/>
<polygon fill="black" stroke="black" points="346.14,-379.96 337.05,-374.51 340.76,-384.44 346.14,-379.96"/>
</g>
<!-- L21 -->
<g id="node18" class="node">
<title>L21</title>
<text text-anchor="start" x="211.5" y="-184.8" font-family="Times,serif" font-weight="bold" font-size="14.00">L21</text>
<text text-anchor="start" x="191" y="-162.8" font-family="Times,serif" font-size="14.00">BR {L22}</text>
<polygon fill="none" stroke="black" points="185.5,-154 185.5,-200 266.5,-200 266.5,-154 185.5,-154"/>
</g>
<!-- L20&#45;&gt;L21 -->
<g id="edge24" class="edge">
<title>L20&#45;&gt;L21</title>
<path fill="none" stroke="black" d="M310.62,-328.39C304.25,-304.56 292.29,-266 275,-236 269.36,-226.21 262,-216.47 254.7,-207.84"/>
<polygon fill="black" stroke="black" points="257.29,-205.49 248.07,-200.27 252.03,-210.1 257.29,-205.49"/>
</g>
<!-- L14 -->
<g id="node16" class="node">
<title>L14</title>
<text text-anchor="start" x="112.5" y="-266.8" font-family="Times,serif" font-weight="bold" font-size="14.00">L14</text>
<text text-anchor="start" x="92" y="-244.8" font-family="Times,serif" font-size="14.00">BR {L21}</text>
<polygon fill="none" stroke="black" points="86.5,-236 86.5,-282 167.5,-282 167.5,-236 86.5,-236"/>
</g>
<!-- L13&#45;&gt;L14 -->
<g id="edge16" class="edge">
<title>L13&#45;&gt;L14</title>
<path fill="none" stroke="black" d="M127,-317.83C127,-309.5 127,-300.55 127,-292.24"/>
<polygon fill="black" stroke="black" points="130.5,-292.15 127,-282.15 123.5,-292.15 130.5,-292.15"/>
</g>
<!-- L15 -->
<g id="node17" class="node">
<title>L15</title>
<text text-anchor="start" x="211.5" y="-266.8" font-family="Times,serif" font-weight="bold" font-size="14.00">L15</text>
<text text-anchor="start" x="191" y="-244.8" font-family="Times,serif" font-size="14.00">BR {L21}</text>
<polygon fill="none" stroke="black" points="185.5,-236 185.5,-282 266.5,-282 266.5,-236 185.5,-236"/>
</g>
<!-- L13&#45;&gt;L15 -->
<g id="edge17" class="edge">
<title>L13&#45;&gt;L15</title>
<path fill="none" stroke="black" d="M162.74,-317.83C173.07,-308.39 184.26,-298.15 194.33,-288.95"/>
<polygon fill="black" stroke="black" points="196.75,-291.48 201.77,-282.15 192.02,-286.32 196.75,-291.48"/>
</g>
<!-- L9 -->
<g id="node12" class="node">
<title>L9</title>
<text text-anchor="start" x="457.5" y="-647.3" font-family="Times,serif" font-weight="bold" font-size="14.00">L9</text>
<text text-anchor="start" x="432" y="-625.3" font-family="Times,serif" font-size="14.00">BR {L19}</text>
<polygon fill="none" stroke="black" points="426.5,-616.5 426.5,-662.5 507.5,-662.5 507.5,-616.5 426.5,-616.5"/>
</g>
<!-- L9&#45;&gt;L19 -->
<g id="edge12" class="edge">
<title>L9&#45;&gt;L19</title>
<path fill="none" stroke="black" d="M449.47,-616.08C438.34,-601.86 423.81,-583.29 411.67,-567.77"/>
<polygon fill="black" stroke="black" points="414.13,-565.23 405.21,-559.51 408.62,-569.54 414.13,-565.23"/>
</g>
<!-- L10 -->
<g id="node13" class="node">
<title>L10</title>
<text text-anchor="start" x="628" y="-750.3" font-family="Times,serif" font-weight="bold" font-size="14.00">L10</text>
<text text-anchor="start" x="612" y="-728.3" font-family="Times,serif" font-size="14.00">BR {L9}</text>
<polygon fill="none" stroke="black" points="607,-719.5 607,-765.5 679,-765.5 679,-719.5 607,-719.5"/>
</g>
<!-- L10&#45;&gt;L9 -->
<g id="edge13" class="edge">
<title>L10&#45;&gt;L9</title>
<path fill="none" stroke="black" d="M613.4,-719.21C608.34,-715.67 603.08,-712.14 598,-709 571.96,-692.91 541.75,-676.94 516.91,-664.48"/>
<polygon fill="black" stroke="black" points="518.19,-661.2 507.67,-659.88 515.07,-667.47 518.19,-661.2"/>
</g>
<!-- L11 -->
<g id="node14" class="node">
<title>L11</title>
<text text-anchor="start" x="358" y="-750.3" font-family="Times,serif" font-weight="bold" font-size="14.00">L11</text>
<text text-anchor="start" x="342" y="-728.3" font-family="Times,serif" font-size="14.00">BR {L9}</text>
<polygon fill="none" stroke="black" points="337,-719.5 337,-765.5 409,-765.5 409,-719.5 337,-719.5"/>
</g>
<!-- L11&#45;&gt;L9 -->
<g id="edge14" class="edge">
<title>L11&#45;&gt;L9</title>
<path fill="none" stroke="black" d="M393.86,-719.08C407.34,-704.6 425.03,-685.6 439.63,-669.91"/>
<polygon fill="black" stroke="black" points="442.27,-672.21 446.52,-662.51 437.15,-667.44 442.27,-672.21"/>
</g>
<!-- L12 -->
<g id="node15" class="node">
<title>L12</title>
<text text-anchor="start" x="448" y="-750.3" font-family="Times,serif" font-weight="bold" font-size="14.00">L12</text>
<text text-anchor="start" x="432" y="-728.3" font-family="Times,serif" font-size="14.00">BR {L9}</text>
<polygon fill="none" stroke="black" points="427,-719.5 427,-765.5 499,-765.5 499,-719.5 427,-719.5"/>
</g>
<!-- L12&#45;&gt;L9 -->
<g id="edge15" class="edge">
<title>L12&#45;&gt;L9</title>
<path fill="none" stroke="black" d="M463.89,-719.08C464.43,-705.39 465.13,-687.66 465.73,-672.5"/>
<polygon fill="black" stroke="black" points="469.23,-672.64 466.13,-662.51 462.24,-672.36 469.23,-672.64"/>
</g>
<!-- L14&#45;&gt;L21 -->
<g id="edge18" class="edge">
<title>L14&#45;&gt;L21</title>
<path fill="none" stroke="black" d="M154.31,-235.93C165.57,-226.83 178.75,-216.18 190.72,-206.51"/>
<polygon fill="black" stroke="black" points="193.2,-209.01 198.77,-200 188.8,-203.56 193.2,-209.01"/>
</g>
<!-- L15&#45;&gt;L21 -->
<g id="edge19" class="edge">
<title>L15&#45;&gt;L21</title>
<path fill="none" stroke="black" d="M226,-235.72C226,-227.83 226,-218.79 226,-210.24"/>
<polygon fill="black" stroke="black" points="229.5,-210.16 226,-200.16 222.5,-210.16 229.5,-210.16"/>
</g>
<!-- L22 -->
<g id="node22" class="node">
<title>L22</title>
<text text-anchor="start" x="211" y="-102.8" font-family="Times,serif" font-weight="bold" font-size="14.00">L22</text>
<text text-anchor="start" x="195" y="-80.8" font-family="Times,serif" font-size="14.00">BR {L1}</text>
<polygon fill="none" stroke="black" points="190,-72 190,-118 262,-118 262,-72 190,-72"/>
</g>
<!-- L21&#45;&gt;L22 -->
<g id="edge25" class="edge">
<title>L21&#45;&gt;L22</title>
<path fill="none" stroke="black" d="M226,-153.72C226,-145.83 226,-136.79 226,-128.24"/>
<polygon fill="black" stroke="black" points="229.5,-128.16 226,-118.16 222.5,-128.16 229.5,-128.16"/>
</g>
<!-- L16 -->
<g id="node19" class="node">
<title>L16</title>
<text text-anchor="start" x="538" y="-750.3" font-family="Times,serif" font-weight="bold" font-size="14.00">L16</text>
<text text-anchor="start" x="522" y="-728.3" font-family="Times,serif" font-size="14.00">BR {L9}</text>
<polygon fill="none" stroke="black" points="517,-719.5 517,-765.5 589,-765.5 589,-719.5 517,-719.5"/>
</g>
<!-- L16&#45;&gt;L9 -->
<g id="edge20" class="edge">
<title>L16&#45;&gt;L9</title>
<path fill="none" stroke="black" d="M533.91,-719.08C521.69,-704.73 505.69,-685.94 492.41,-670.34"/>
<polygon fill="black" stroke="black" points="494.88,-667.85 485.74,-662.51 489.56,-672.39 494.88,-667.85"/>
</g>
<!-- L17 -->
<g id="node20" class="node">
<title>L17</title>
<text text-anchor="start" x="587.5" y="-842.8" font-family="Times,serif" font-weight="bold" font-size="14.00">L17</text>
<text text-anchor="start" x="567" y="-820.8" font-family="Times,serif" font-size="14.00">BR {L16}</text>
<polygon fill="none" stroke="black" points="561.5,-812 561.5,-858 642.5,-858 642.5,-812 561.5,-812"/>
</g>
<!-- L17&#45;&gt;L16 -->
<g id="edge21" class="edge">
<title>L17&#45;&gt;L16</title>
<path fill="none" stroke="black" d="M589.89,-811.63C583.84,-800.45 576.41,-786.74 569.82,-774.56"/>
<polygon fill="black" stroke="black" points="572.81,-772.74 564.97,-765.61 566.66,-776.07 572.81,-772.74"/>
</g>
<!-- L18 -->
<g id="node21" class="node">
<title>L18</title>
<text text-anchor="start" x="488.5" y="-842.8" font-family="Times,serif" font-weight="bold" font-size="14.00">L18</text>
<text text-anchor="start" x="468" y="-820.8" font-family="Times,serif" font-size="14.00">BR {L16}</text>
<polygon fill="none" stroke="black" points="462.5,-812 462.5,-858 543.5,-858 543.5,-812 462.5,-812"/>
</g>
<!-- L18&#45;&gt;L16 -->
<g id="edge22" class="edge">
<title>L18&#45;&gt;L16</title>
<path fill="none" stroke="black" d="M515.36,-811.63C521.54,-800.45 529.11,-786.74 535.84,-774.56"/>
<polygon fill="black" stroke="black" points="539.01,-776.06 540.78,-765.61 532.88,-772.67 539.01,-776.06"/>
</g>
<!-- L1 -->
<g id="node23" class="node">
<title>L1</title>
<ellipse fill="none" stroke="black" cx="226" cy="-18" rx="27" ry="18"/>
<text text-anchor="middle" x="226" y="-14.3" font-family="Times,serif" font-size="14.00">L1</text>
</g>
<!-- L22&#45;&gt;L1 -->
<g id="edge26" class="edge">
<title>L22&#45;&gt;L1</title>
<path fill="none" stroke="black" d="M226,-71.9C226,-63.88 226,-54.72 226,-46.31"/>
<polygon fill="black" stroke="black" points="229.5,-46.18 226,-36.18 222.5,-46.18 229.5,-46.18"/>
</g>
</g>
</svg>
