<?xml version="1.0" encoding="UTF-8" standalone="no"?>
<!DOCTYPE svg PUBLIC "-//W3C//DTD SVG 1.1//EN"
 "http://www.w3.org/Graphics/SVG/1.1/DTD/svg11.dtd">
<!-- Generated by graphviz version 2.43.0 (0)
 -->
<!-- Title: Proc1 Pages: 1 -->
<svg width="712pt" height="805pt"
 viewBox="0.00 0.00 712.00 805.00" xmlns="http://www.w3.org/2000/svg" xmlns:xlink="http://www.w3.org/1999/xlink">
<g id="graph0" class="graph" transform="scale(1 1) rotate(0) translate(4 801)">
<title>Proc1</title>
<polygon fill="white" stroke="transparent" points="-4,4 -4,-801 708,-801 708,4 -4,4"/>
<!-- L0 -->
<g id="node1" class="node">
<title>L0</title>
<text text-anchor="start" x="545" y="-781.8" font-family="Times,serif" font-weight="bold" font-size="14.00">L0</text>
<text text-anchor="start" x="524" y="-759.8" font-family="Times,serif" font-size="14.00">BR {L2}</text>
<polygon fill="none" stroke="black" points="519,-751 519,-797 591,-797 591,-751 519,-751"/>
</g>
<!-- L2 -->
<g id="node2" class="node">
<title>L2</title>
<text text-anchor="start" x="545.5" y="-699.3" font-family="Times,serif" font-weight="bold" font-size="14.00">L2</text>
<text text-anchor="start" x="433" y="-677.3" font-family="Times,serif" font-size="14.00">EQ {local(a, 0), local(b, 1)} {T(0)}</text>
<text text-anchor="start" x="480" y="-656.3" font-family="Times,serif" font-size="14.00">CBR {T(0)} {L5, L3}</text>
<polygon fill="none" stroke="black" points="427.5,-648 427.5,-715 682.5,-715 682.5,-648 427.5,-648"/>
</g>
<!-- L0&#45;&gt;L2 -->
<g id="edge1" class="edge">
<title>L0&#45;&gt;L2</title>
<path fill="none" stroke="black" d="M555,-750.63C555,-742.95 555,-734.09 555,-725.34"/>
<polygon fill="black" stroke="black" points="558.5,-725.21 555,-715.21 551.5,-725.21 558.5,-725.21"/>
</g>
<!-- L5 -->
<g id="node3" class="node">
<title>L5</title>
<text text-anchor="start" x="386" y="-586.3" font-family="Times,serif" font-weight="bold" font-size="14.00">L5</text>
<text text-anchor="start" x="365" y="-564.3" font-family="Times,serif" font-size="14.00">BR {L9}</text>
<polygon fill="none" stroke="black" points="360,-555.5 360,-601.5 432,-601.5 432,-555.5 360,-555.5"/>
</g>
<!-- L2&#45;&gt;L5 -->
<g id="edge2" class="edge">
<title>L2&#45;&gt;L5</title>
<path fill="none" stroke="black" d="M498.75,-647.98C480.16,-636.89 459.5,-624.21 441,-612 438.82,-610.56 436.59,-609.06 434.36,-607.53"/>
<polygon fill="black" stroke="black" points="435.97,-604.39 425.77,-601.54 431.97,-610.13 435.97,-604.39"/>
</g>
<!-- L3 -->
<g id="node4" class="node">
<title>L3</title>
<text text-anchor="start" x="567" y="-596.3" font-family="Times,serif" font-weight="bold" font-size="14.00">L3</text>
<text text-anchor="start" x="455" y="-574.3" font-family="Times,serif" font-size="14.00">EQ {local(a, 0), local(c, 2)} {T(1)}</text>
<text text-anchor="start" x="501.5" y="-553.3" font-family="Times,serif" font-size="14.00">CBR {T(1)} {L6, L4}</text>
<polygon fill="none" stroke="black" points="450,-545 450,-612 704,-612 704,-545 450,-545"/>
</g>
<!-- L2&#45;&gt;L3 -->
<g id="edge3" class="edge">
<title>L2&#45;&gt;L3</title>
<path fill="none" stroke="black" d="M562.08,-647.99C563.87,-639.78 565.82,-630.84 567.69,-622.22"/>
<polygon fill="black" stroke="black" points="571.15,-622.81 569.86,-612.3 564.31,-621.32 571.15,-622.81"/>
</g>
<!-- L9 -->
<g id="node9" class="node">
<title>L9</title>
<text text-anchor="start" x="206.5" y="-493.8" font-family="Times,serif" font-weight="bold" font-size="14.00">L9</text>
<text text-anchor="start" x="111" y="-471.8" font-family="Times,serif" font-size="14.00">LOADGLOBAL {print} {T(4)}</text>
<text text-anchor="start" x="95" y="-450.8" font-family="Times,serif" font-size="14.00">CALL {T(4), &#39;hello&#39; Ks(0)} {T(4..)}</text>
<text text-anchor="start" x="181" y="-429.8" font-family="Times,serif" font-size="14.00">BR {L19}</text>
<polygon fill="none" stroke="black" points="89.5,-421 89.5,-509 342.5,-509 342.5,-421 89.5,-421"/>
</g>
<!-- L5&#45;&gt;L9 -->
<g id="edge8" class="edge">
<title>L5&#45;&gt;L9</title>
<path fill="none" stroke="black" d="M366.26,-555.41C361.23,-551.85 356.01,-548.26 351,-545 335.11,-534.65 317.85,-524.07 301.14,-514.15"/>
<polygon fill="black" stroke="black" points="302.85,-511.1 292.46,-509.03 299.3,-517.13 302.85,-511.1"/>
</g>
<!-- L6 -->
<g id="node5" class="node">
<title>L6</title>
<text text-anchor="start" x="616.5" y="-277.3" font-family="Times,serif" font-weight="bold" font-size="14.00">L6</text>
<text text-anchor="start" x="591" y="-255.3" font-family="Times,serif" font-size="14.00">BR {L19}</text>
<polygon fill="none" stroke="black" points="585.5,-246.5 585.5,-292.5 666.5,-292.5 666.5,-246.5 585.5,-246.5"/>
</g>
<!-- L3&#45;&gt;L6 -->
<g id="edge4" class="edge">
<title>L3&#45;&gt;L6</title>
<path fill="none" stroke="black" d="M605.88,-544.86C613.62,-534.16 620.95,-521.73 625,-509 647.51,-438.16 638.94,-349.39 631.81,-302.68"/>
<polygon fill="black" stroke="black" points="635.23,-301.87 630.19,-292.55 628.32,-302.98 635.23,-301.87"/>
</g>
<!-- L4 -->
<g id="node6" class="node">
<title>L4</title>
<text text-anchor="start" x="478.5" y="-482.8" font-family="Times,serif" font-weight="bold" font-size="14.00">L4</text>
<text text-anchor="start" x="366" y="-460.8" font-family="Times,serif" font-size="14.00">EQ {local(a, 0), local(d, 3)} {T(2)}</text>
<text text-anchor="start" x="413" y="-439.8" font-family="Times,serif" font-size="14.00">CBR {T(2)} {L7, L8}</text>
<polygon fill="none" stroke="black" points="360.5,-431.5 360.5,-498.5 615.5,-498.5 615.5,-431.5 360.5,-431.5"/>
</g>
<!-- L3&#45;&gt;L4 -->
<g id="edge5" class="edge">
<title>L3&#45;&gt;L4</title>
<path fill="none" stroke="black" d="M551.02,-544.95C541.51,-533.03 530.62,-519.4 520.6,-506.84"/>
<polygon fill="black" stroke="black" points="523.14,-504.42 514.17,-498.78 517.67,-508.78 523.14,-504.42"/>
</g>
<!-- L19 -->
<g id="node10" class="node">
<title>L19</title>
<text text-anchor="start" x="453" y="-102.8" font-family="Times,serif" font-weight="bold" font-size="14.00">L19</text>
<text text-anchor="start" x="437" y="-80.8" font-family="Times,serif" font-size="14.00">BR {L1}</text>
<polygon fill="none" stroke="black" points="432,-72 432,-118 504,-118 504,-72 432,-72"/>
</g>
<!-- L6&#45;&gt;L19 -->
<g id="edge9" class="edge">
<title>L6&#45;&gt;L19</title>
<path fill="none" stroke="black" d="M614.89,-246.49C601.85,-222.05 578.47,-182.31 551,-154 539.75,-142.41 525.89,-131.67 512.73,-122.66"/>
<polygon fill="black" stroke="black" points="514.49,-119.62 504.23,-117 510.61,-125.45 514.49,-119.62"/>
</g>
<!-- L7 -->
<g id="node7" class="node">
<title>L7</title>
<text text-anchor="start" x="487.5" y="-369.8" font-family="Times,serif" font-weight="bold" font-size="14.00">L7</text>
<text text-anchor="start" x="462" y="-347.8" font-family="Times,serif" font-size="14.00">BR {L19}</text>
<polygon fill="none" stroke="black" points="456.5,-339 456.5,-385 537.5,-385 537.5,-339 456.5,-339"/>
</g>
<!-- L4&#45;&gt;L7 -->
<g id="edge6" class="edge">
<title>L4&#45;&gt;L7</title>
<path fill="none" stroke="black" d="M490.9,-431.49C491.93,-419.92 493.09,-406.9 494.12,-395.35"/>
<polygon fill="black" stroke="black" points="497.62,-395.5 495.02,-385.23 490.64,-394.88 497.62,-395.5"/>
</g>
<!-- L8 -->
<g id="node8" class="node">
<title>L8</title>
<text text-anchor="start" x="379.5" y="-369.8" font-family="Times,serif" font-weight="bold" font-size="14.00">L8</text>
<text text-anchor="start" x="354" y="-347.8" font-family="Times,serif" font-size="14.00">BR {L13}</text>
<polygon fill="none" stroke="black" points="348.5,-339 348.5,-385 429.5,-385 429.5,-339 348.5,-339"/>
</g>
<!-- L4&#45;&gt;L8 -->
<g id="edge7" class="edge">
<title>L4&#45;&gt;L8</title>
<path fill="none" stroke="black" d="M456.13,-431.49C443.87,-418.98 429.94,-404.77 417.97,-392.55"/>
<polygon fill="black" stroke="black" points="420.29,-389.92 410.79,-385.23 415.29,-394.82 420.29,-389.92"/>
</g>
<!-- L7&#45;&gt;L19 -->
<g id="edge10" class="edge">
<title>L7&#45;&gt;L19</title>
<path fill="none" stroke="black" d="M507.05,-338.91C511.34,-328.29 515.85,-315.24 518,-303 529.44,-237.77 541.06,-216.08 518,-154 514.21,-143.8 507.73,-134.19 500.67,-125.84"/>
<polygon fill="black" stroke="black" points="503.1,-123.31 493.8,-118.25 497.91,-128.01 503.1,-123.31"/>
</g>
<!-- L13 -->
<g id="node11" class="node">
<title>L13</title>
<text text-anchor="start" x="367" y="-287.3" font-family="Times,serif" font-weight="bold" font-size="14.00">L13</text>
<text text-anchor="start" x="260" y="-265.3" font-family="Times,serif" font-size="14.00">EQ {local(a, 0), local(e, 4)} {T(3)}</text>
<text text-anchor="start" x="297.5" y="-244.3" font-family="Times,serif" font-size="14.00">CBR {T(3)} {L14, L15}</text>
<polygon fill="none" stroke="black" points="255,-236 255,-303 509,-303 509,-236 255,-236"/>
</g>
<!-- L8&#45;&gt;L13 -->
<g id="edge11" class="edge">
<title>L8&#45;&gt;L13</title>
<path fill="none" stroke="black" d="M387.27,-338.63C386.68,-330.95 385.99,-322.09 385.31,-313.34"/>
<polygon fill="black" stroke="black" points="388.79,-312.91 384.53,-303.21 381.81,-313.45 388.79,-312.91"/>
</g>
<!-- L9&#45;&gt;L19 -->
<g id="edge12" class="edge">
<title>L9&#45;&gt;L19</title>
<path fill="none" stroke="black" d="M214.21,-420.73C213.91,-373.24 218.39,-295.81 246,-236 266.58,-191.43 279.62,-181.92 320,-154 351.23,-132.4 391.65,-117.26 422.36,-107.88"/>
<polygon fill="black" stroke="black" points="423.37,-111.23 431.96,-105.04 421.38,-104.52 423.37,-111.23"/>
</g>
<!-- L1 -->
<g id="node20" class="node">
<title>L1</title>
<ellipse fill="none" stroke="black" cx="468" cy="-18" rx="27" ry="18"/>
<text text-anchor="middle" x="468" y="-14.3" font-family="Times,serif" font-size="14.00">L1</text>
</g>
<!-- L19&#45;&gt;L1 -->
<g id="edge23" class="edge">
<title>L19&#45;&gt;L1</title>
<path fill="none" stroke="black" d="M468,-71.9C468,-63.88 468,-54.72 468,-46.31"/>
<polygon fill="black" stroke="black" points="471.5,-46.18 468,-36.18 464.5,-46.18 471.5,-46.18"/>
</g>
<!-- L14 -->
<g id="node15" class="node">
<title>L14</title>
<text text-anchor="start" x="453.5" y="-184.8" font-family="Times,serif" font-weight="bold" font-size="14.00">L14</text>
<text text-anchor="start" x="433" y="-162.8" font-family="Times,serif" font-size="14.00">BR {L19}</text>
<polygon fill="none" stroke="black" points="427.5,-154 427.5,-200 508.5,-200 508.5,-154 427.5,-154"/>
</g>
<!-- L13&#45;&gt;L14 -->
<g id="edge16" class="edge">
<title>L13&#45;&gt;L14</title>
<path fill="none" stroke="black" d="M413.05,-235.83C421.84,-226.57 431.36,-216.55 439.97,-207.5"/>
<polygon fill="black" stroke="black" points="442.6,-209.81 446.95,-200.15 437.52,-204.99 442.6,-209.81"/>
</g>
<!-- L15 -->
<g id="node16" class="node">
<title>L15</title>
<text text-anchor="start" x="354.5" y="-184.8" font-family="Times,serif" font-weight="bold" font-size="14.00">L15</text>
<text text-anchor="start" x="334" y="-162.8" font-family="Times,serif" font-size="14.00">BR {L19}</text>
<polygon fill="none" stroke="black" points="328.5,-154 328.5,-200 409.5,-200 409.5,-154 328.5,-154"/>
</g>
<!-- L13&#45;&gt;L15 -->
<g id="edge17" class="edge">
<title>L13&#45;&gt;L15</title>
<path fill="none" stroke="black" d="M377.31,-235.83C376.11,-227.5 374.82,-218.55 373.63,-210.24"/>
<polygon fill="black" stroke="black" points="377.07,-209.55 372.18,-200.15 370.14,-210.55 377.07,-209.55"/>
</g>
<!-- L10 -->
<g id="node12" class="node">
<title>L10</title>
<text text-anchor="start" x="21" y="-586.3" font-family="Times,serif" font-weight="bold" font-size="14.00">L10</text>
<text text-anchor="start" x="5" y="-564.3" font-family="Times,serif" font-size="14.00">BR {L9}</text>
<polygon fill="none" stroke="black" points="0,-555.5 0,-601.5 72,-601.5 72,-555.5 0,-555.5"/>
</g>
<!-- L10&#45;&gt;L9 -->
<g id="edge13" class="edge">
<title>L10&#45;&gt;L9</title>
<path fill="none" stroke="black" d="M65.74,-555.41C70.77,-551.85 75.99,-548.26 81,-545 96.89,-534.65 114.15,-524.07 130.86,-514.15"/>
<polygon fill="black" stroke="black" points="132.7,-517.13 139.54,-509.03 129.15,-511.1 132.7,-517.13"/>
</g>
<!-- L11 -->
<g id="node13" class="node">
<title>L11</title>
<text text-anchor="start" x="111" y="-586.3" font-family="Times,serif" font-weight="bold" font-size="14.00">L11</text>
<text text-anchor="start" x="95" y="-564.3" font-family="Times,serif" font-size="14.00">BR {L9}</text>
<polygon fill="none" stroke="black" points="90,-555.5 90,-601.5 162,-601.5 162,-555.5 90,-555.5"/>
</g>
<!-- L11&#45;&gt;L9 -->
<g id="edge14" class="edge">
<title>L11&#45;&gt;L9</title>
<path fill="none" stroke="black" d="M143.78,-555.47C152.69,-544.44 163.87,-530.58 174.76,-517.09"/>
<polygon fill="black" stroke="black" points="177.57,-519.19 181.12,-509.21 172.12,-514.79 177.57,-519.19"/>
</g>
<!-- L12 -->
<g id="node14" class="node">
<title>L12</title>
<text text-anchor="start" x="201" y="-586.3" font-family="Times,serif" font-weight="bold" font-size="14.00">L12</text>
<text text-anchor="start" x="185" y="-564.3" font-family="Times,serif" font-size="14.00">BR {L9}</text>
<polygon fill="none" stroke="black" points="180,-555.5 180,-601.5 252,-601.5 252,-555.5 180,-555.5"/>
</g>
<!-- L12&#45;&gt;L9 -->
<g id="edge15" class="edge">
<title>L12&#45;&gt;L9</title>
<path fill="none" stroke="black" d="M216,-555.47C216,-545.05 216,-532.12 216,-519.36"/>
<polygon fill="black" stroke="black" points="219.5,-519.21 216,-509.21 212.5,-519.21 219.5,-519.21"/>
</g>
<!-- L14&#45;&gt;L19 -->
<g id="edge18" class="edge">
<title>L14&#45;&gt;L19</title>
<path fill="none" stroke="black" d="M468,-153.72C468,-145.83 468,-136.79 468,-128.24"/>
<polygon fill="black" stroke="black" points="471.5,-128.16 468,-118.16 464.5,-128.16 471.5,-128.16"/>
</g>
<!-- L15&#45;&gt;L19 -->
<g id="edge19" class="edge">
<title>L15&#45;&gt;L19</title>
<path fill="none" stroke="black" d="M396.31,-153.93C407.57,-144.83 420.75,-134.18 432.72,-124.51"/>
<polygon fill="black" stroke="black" points="435.2,-127.01 440.77,-118 430.8,-121.56 435.2,-127.01"/>
</g>
<!-- L16 -->
<g id="node17" class="node">
<title>L16</title>
<text text-anchor="start" x="291" y="-586.3" font-family="Times,serif" font-weight="bold" font-size="14.00">L16</text>
<text text-anchor="start" x="275" y="-564.3" font-family="Times,serif" font-size="14.00">BR {L9}</text>
<polygon fill="none" stroke="black" points="270,-555.5 270,-601.5 342,-601.5 342,-555.5 270,-555.5"/>
</g>
<!-- L16&#45;&gt;L9 -->
<g id="edge20" class="edge">
<title>L16&#45;&gt;L9</title>
<path fill="none" stroke="black" d="M288.22,-555.47C279.31,-544.44 268.13,-530.58 257.24,-517.09"/>
<polygon fill="black" stroke="black" points="259.88,-514.79 250.88,-509.21 254.43,-519.19 259.88,-514.79"/>
</g>
<!-- L17 -->
<g id="node18" class="node">
<title>L17</title>
<text text-anchor="start" x="213.5" y="-689.3" font-family="Times,serif" font-weight="bold" font-size="14.00">L17</text>
<text text-anchor="start" x="193" y="-667.3" font-family="Times,serif" font-size="14.00">BR {L16}</text>
<polygon fill="none" stroke="black" points="187.5,-658.5 187.5,-704.5 268.5,-704.5 268.5,-658.5 187.5,-658.5"/>
</g>
<!-- L17&#45;&gt;L16 -->
<g id="edge21" class="edge">
<title>L17&#45;&gt;L16</title>
<path fill="none" stroke="black" d="M245.31,-658.08C256.29,-643.86 270.64,-625.29 282.63,-609.77"/>
<polygon fill="black" stroke="black" points="285.66,-611.56 289.01,-601.51 280.12,-607.28 285.66,-611.56"/>
</g>
<!-- L18 -->
<g id="node19" class="node">
<title>L18</title>
<text text-anchor="start" x="312.5" y="-689.3" font-family="Times,serif" font-weight="bold" font-size="14.00">L18</text>
<text text-anchor="start" x="292" y="-667.3" font-family="Times,serif" font-size="14.00">BR {L16}</text>
<polygon fill="none" stroke="black" points="286.5,-658.5 286.5,-704.5 367.5,-704.5 367.5,-658.5 286.5,-658.5"/>
</g>
<!-- L18&#45;&gt;L16 -->
<g id="edge22" class="edge">
<title>L18&#45;&gt;L16</title>
<path fill="none" stroke="black" d="M322.34,-658.08C319.49,-644.39 315.81,-626.66 312.65,-611.5"/>
<polygon fill="black" stroke="black" points="316.04,-610.58 310.58,-601.51 309.18,-612.01 316.04,-610.58"/>
</g>
</g>
</svg>
