<?xml version="1.0" encoding="UTF-8" standalone="no"?>
<!DOCTYPE svg PUBLIC "-//W3C//DTD SVG 1.1//EN"
 "http://www.w3.org/Graphics/SVG/1.1/DTD/svg11.dtd">
<!-- Generated by graphviz version 2.43.0 (0)
 -->
<!-- Title: Proc1 Pages: 1 -->
<svg width="610pt" height="805pt"
 viewBox="0.00 0.00 609.50 805.00" xmlns="http://www.w3.org/2000/svg" xmlns:xlink="http://www.w3.org/1999/xlink">
<g id="graph0" class="graph" transform="scale(1 1) rotate(0) translate(4 801)">
<title>Proc1</title>
<polygon fill="white" stroke="transparent" points="-4,4 -4,-801 605.5,-801 605.5,4 -4,4"/>
<!-- L0 -->
<g id="node1" class="node">
<title>L0</title>
<text text-anchor="start" x="206.5" y="-781.8" font-family="Times,serif" font-weight="bold" font-size="14.00">L0</text>
<text text-anchor="start" x="185.5" y="-759.8" font-family="Times,serif" font-size="14.00">BR {L2}</text>
<polygon fill="none" stroke="black" points="180.5,-751 180.5,-797 252.5,-797 252.5,-751 180.5,-751"/>
</g>
<!-- L2 -->
<g id="node2" class="node">
<title>L2</title>
<text text-anchor="start" x="207" y="-699.3" font-family="Times,serif" font-weight="bold" font-size="14.00">L2</text>
<text text-anchor="start" x="94.5" y="-677.3" font-family="Times,serif" font-size="14.00">EQ {local(a, 0), local(b, 1)} {T(0)}</text>
<text text-anchor="start" x="141.5" y="-656.3" font-family="Times,serif" font-size="14.00">CBR {T(0)} {L5, L3}</text>
<polygon fill="none" stroke="black" points="89,-648 89,-715 344,-715 344,-648 89,-648"/>
</g>
<!-- L0&#45;&gt;L2 -->
<g id="edge1" class="edge">
<title>L0&#45;&gt;L2</title>
<path fill="none" stroke="black" d="M216.5,-750.63C216.5,-742.95 216.5,-734.09 216.5,-725.34"/>
<polygon fill="black" stroke="black" points="220,-725.21 216.5,-715.21 213,-725.21 220,-725.21"/>
</g>
<!-- L5 -->
<g id="node3" class="node">
<title>L5</title>
<text text-anchor="start" x="116.5" y="-586.3" font-family="Times,serif" font-weight="bold" font-size="14.00">L5</text>
<text text-anchor="start" x="95.5" y="-564.3" font-family="Times,serif" font-size="14.00">BR {L9}</text>
<polygon fill="none" stroke="black" points="90.5,-555.5 90.5,-601.5 162.5,-601.5 162.5,-555.5 90.5,-555.5"/>
</g>
<!-- L2&#45;&gt;L5 -->
<g id="edge2" class="edge">
<title>L2&#45;&gt;L5</title>
<path fill="none" stroke="black" d="M187.53,-647.99C176.48,-635.59 163.96,-621.54 153.14,-609.4"/>
<polygon fill="black" stroke="black" points="155.58,-606.87 146.31,-601.73 150.35,-611.53 155.58,-606.87"/>
</g>
<!-- L3 -->
<g id="node4" class="node">
<title>L3</title>
<text text-anchor="start" x="297.5" y="-596.3" font-family="Times,serif" font-weight="bold" font-size="14.00">L3</text>
<text text-anchor="start" x="185.5" y="-574.3" font-family="Times,serif" font-size="14.00">EQ {local(a, 0), local(c, 2)} {T(1)}</text>
<text text-anchor="start" x="232" y="-553.3" font-family="Times,serif" font-size="14.00">CBR {T(1)} {L6, L4}</text>
<polygon fill="none" stroke="black" points="180.5,-545 180.5,-612 434.5,-612 434.5,-545 180.5,-545"/>
</g>
<!-- L2&#45;&gt;L3 -->
<g id="edge3" class="edge">
<title>L2&#45;&gt;L3</title>
<path fill="none" stroke="black" d="M245.79,-647.99C253.83,-639.07 262.64,-629.28 271.03,-619.98"/>
<polygon fill="black" stroke="black" points="273.86,-622.07 277.95,-612.3 268.66,-617.38 273.86,-622.07"/>
</g>
<!-- L9 -->
<g id="node9" class="node">
<title>L9</title>
<text text-anchor="start" x="117" y="-308.8" font-family="Times,serif" font-weight="bold" font-size="14.00">L9</text>
<text text-anchor="start" x="21.5" y="-286.8" font-family="Times,serif" font-size="14.00">LOADGLOBAL {print} {T(4)}</text>
<text text-anchor="start" x="5.5" y="-265.8" font-family="Times,serif" font-size="14.00">CALL {T(4), &#39;hello&#39; Ks(0)} {T(4..)}</text>
<text text-anchor="start" x="91.5" y="-244.8" font-family="Times,serif" font-size="14.00">BR {L19}</text>
<polygon fill="none" stroke="black" points="0,-236 0,-324 253,-324 253,-236 0,-236"/>
</g>
<!-- L5&#45;&gt;L9 -->
<g id="edge8" class="edge">
<title>L5&#45;&gt;L9</title>
<path fill="none" stroke="black" d="M126.5,-555.21C126.5,-508.68 126.5,-400.07 126.5,-334.36"/>
<polygon fill="black" stroke="black" points="130,-334.2 126.5,-324.2 123,-334.2 130,-334.2"/>
</g>
<!-- L6 -->
<g id="node5" class="node">
<title>L6</title>
<text text-anchor="start" x="272" y="-483.3" font-family="Times,serif" font-weight="bold" font-size="14.00">L6</text>
<text text-anchor="start" x="246.5" y="-461.3" font-family="Times,serif" font-size="14.00">BR {L19}</text>
<polygon fill="none" stroke="black" points="241,-452.5 241,-498.5 322,-498.5 322,-452.5 241,-452.5"/>
</g>
<!-- L3&#45;&gt;L6 -->
<g id="edge4" class="edge">
<title>L3&#45;&gt;L6</title>
<path fill="none" stroke="black" d="M299.13,-544.99C296.12,-533.3 292.73,-520.14 289.74,-508.5"/>
<polygon fill="black" stroke="black" points="293.11,-507.54 287.22,-498.73 286.33,-509.29 293.11,-507.54"/>
</g>
<!-- L4 -->
<g id="node6" class="node">
<title>L4</title>
<text text-anchor="start" x="458" y="-493.3" font-family="Times,serif" font-weight="bold" font-size="14.00">L4</text>
<text text-anchor="start" x="345.5" y="-471.3" font-family="Times,serif" font-size="14.00">EQ {local(a, 0), local(d, 3)} {T(2)}</text>
<text text-anchor="start" x="392.5" y="-450.3" font-family="Times,serif" font-size="14.00">CBR {T(2)} {L7, L8}</text>
<polygon fill="none" stroke="black" points="340,-442 340,-509 595,-509 595,-442 340,-442"/>
</g>
<!-- L3&#45;&gt;L4 -->
<g id="edge5" class="edge">
<title>L3&#45;&gt;L4</title>
<path fill="none" stroke="black" d="M359.01,-544.99C374.34,-535.3 391.29,-524.61 407.14,-514.6"/>
<polygon fill="black" stroke="black" points="409.23,-517.42 415.82,-509.13 405.49,-511.5 409.23,-517.42"/>
</g>
<!-- L19 -->
<g id="node10" class="node">
<title>L19</title>
<text text-anchor="start" x="304.5" y="-102.8" font-family="Times,serif" font-weight="bold" font-size="14.00">L19</text>
<text text-anchor="start" x="288.5" y="-80.8" font-family="Times,serif" font-size="14.00">BR {L1}</text>
<polygon fill="none" stroke="black" points="283.5,-72 283.5,-118 355.5,-118 355.5,-72 283.5,-72"/>
</g>
<!-- L6&#45;&gt;L19 -->
<g id="edge9" class="edge">
<title>L6&#45;&gt;L19</title>
<path fill="none" stroke="black" d="M283.74,-452.24C290.15,-388.35 308.64,-204.19 316.21,-128.78"/>
<polygon fill="black" stroke="black" points="319.73,-128.77 317.24,-118.47 312.76,-128.07 319.73,-128.77"/>
</g>
<!-- L7 -->
<g id="node7" class="node">
<title>L7</title>
<text text-anchor="start" x="353" y="-390.8" font-family="Times,serif" font-weight="bold" font-size="14.00">L7</text>
<text text-anchor="start" x="327.5" y="-368.8" font-family="Times,serif" font-size="14.00">BR {L19}</text>
<polygon fill="none" stroke="black" points="322,-360 322,-406 403,-406 403,-360 322,-360"/>
</g>
<!-- L4&#45;&gt;L7 -->
<g id="edge6" class="edge">
<title>L4&#45;&gt;L7</title>
<path fill="none" stroke="black" d="M429.59,-441.83C418.53,-432.29 406.53,-421.95 395.78,-412.68"/>
<polygon fill="black" stroke="black" points="398.06,-410.03 388.2,-406.15 393.49,-415.33 398.06,-410.03"/>
</g>
<!-- L8 -->
<g id="node8" class="node">
<title>L8</title>
<text text-anchor="start" x="461" y="-390.8" font-family="Times,serif" font-weight="bold" font-size="14.00">L8</text>
<text text-anchor="start" x="435.5" y="-368.8" font-family="Times,serif" font-size="14.00">BR {L13}</text>
<polygon fill="none" stroke="black" points="430,-360 430,-406 511,-406 511,-360 430,-360"/>
</g>
<!-- L4&#45;&gt;L8 -->
<g id="edge7" class="edge">
<title>L4&#45;&gt;L8</title>
<path fill="none" stroke="black" d="M468.58,-441.83C468.86,-433.5 469.16,-424.55 469.43,-416.24"/>
<polygon fill="black" stroke="black" points="472.93,-416.26 469.77,-406.15 465.94,-416.03 472.93,-416.26"/>
</g>
<!-- L7&#45;&gt;L19 -->
<g id="edge10" class="edge">
<title>L7&#45;&gt;L19</title>
<path fill="none" stroke="black" d="M351.49,-359.96C346.68,-349.35 341.48,-336.29 338.5,-324 321.95,-255.71 319.2,-172.92 319.08,-128.28"/>
<polygon fill="black" stroke="black" points="322.58,-128.05 319.1,-118.05 315.58,-128.04 322.58,-128.05"/>
</g>
<!-- L13 -->
<g id="node11" class="node">
<title>L13</title>
<text text-anchor="start" x="459.5" y="-297.8" font-family="Times,serif" font-weight="bold" font-size="14.00">L13</text>
<text text-anchor="start" x="352.5" y="-275.8" font-family="Times,serif" font-size="14.00">EQ {local(a, 0), local(e, 4)} {T(3)}</text>
<text text-anchor="start" x="390" y="-254.8" font-family="Times,serif" font-size="14.00">CBR {T(3)} {L14, L15}</text>
<polygon fill="none" stroke="black" points="347.5,-246.5 347.5,-313.5 601.5,-313.5 601.5,-246.5 347.5,-246.5"/>
</g>
<!-- L8&#45;&gt;L13 -->
<g id="edge11" class="edge">
<title>L8&#45;&gt;L13</title>
<path fill="none" stroke="black" d="M471.39,-359.58C471.8,-349.05 472.32,-336.13 472.8,-323.83"/>
<polygon fill="black" stroke="black" points="476.31,-323.84 473.2,-313.7 469.31,-323.56 476.31,-323.84"/>
</g>
<!-- L9&#45;&gt;L19 -->
<g id="edge12" class="edge">
<title>L9&#45;&gt;L19</title>
<path fill="none" stroke="black" d="M172.24,-235.63C208.1,-201.63 257.04,-155.22 288.46,-125.43"/>
<polygon fill="black" stroke="black" points="291.21,-127.65 296.06,-118.23 286.39,-122.57 291.21,-127.65"/>
</g>
<!-- L1 -->
<g id="node14" class="node">
<title>L1</title>
<ellipse fill="none" stroke="black" cx="319.5" cy="-18" rx="27" ry="18"/>
<text text-anchor="middle" x="319.5" y="-14.3" font-family="Times,serif" font-size="14.00">L1</text>
</g>
<!-- L19&#45;&gt;L1 -->
<g id="edge17" class="edge">
<title>L19&#45;&gt;L1</title>
<path fill="none" stroke="black" d="M319.5,-71.9C319.5,-63.88 319.5,-54.72 319.5,-46.31"/>
<polygon fill="black" stroke="black" points="323,-46.18 319.5,-36.18 316,-46.18 323,-46.18"/>
</g>
<!-- L14 -->
<g id="node12" class="node">
<title>L14</title>
<text text-anchor="start" x="374" y="-184.8" font-family="Times,serif" font-weight="bold" font-size="14.00">L14</text>
<text text-anchor="start" x="353.5" y="-162.8" font-family="Times,serif" font-size="14.00">BR {L19}</text>
<polygon fill="none" stroke="black" points="348,-154 348,-200 429,-200 429,-154 348,-154"/>
</g>
<!-- L13&#45;&gt;L14 -->
<g id="edge13" class="edge">
<title>L13&#45;&gt;L14</title>
<path fill="none" stroke="black" d="M446.82,-246.49C436.26,-234.09 424.29,-220.04 413.96,-207.9"/>
<polygon fill="black" stroke="black" points="416.58,-205.58 407.43,-200.23 411.25,-210.12 416.58,-205.58"/>
</g>
<!-- L15 -->
<g id="node13" class="node">
<title>L15</title>
<text text-anchor="start" x="473" y="-184.8" font-family="Times,serif" font-weight="bold" font-size="14.00">L15</text>
<text text-anchor="start" x="452.5" y="-162.8" font-family="Times,serif" font-size="14.00">BR {L19}</text>
<polygon fill="none" stroke="black" points="447,-154 447,-200 528,-200 528,-154 447,-154"/>
</g>
<!-- L13&#45;&gt;L15 -->
<g id="edge14" class="edge">
<title>L13&#45;&gt;L15</title>
<path fill="none" stroke="black" d="M478.68,-246.49C480.17,-234.92 481.85,-221.9 483.34,-210.35"/>
<polygon fill="black" stroke="black" points="486.83,-210.6 484.64,-200.23 479.89,-209.7 486.83,-210.6"/>
</g>
<!-- L14&#45;&gt;L19 -->
<g id="edge15" class="edge">
<title>L14&#45;&gt;L19</title>
<path fill="none" stroke="black" d="M369.28,-153.72C361.88,-145.13 353.3,-135.19 345.37,-126"/>
<polygon fill="black" stroke="black" points="347.8,-123.45 338.62,-118.16 342.5,-128.02 347.8,-123.45"/>
</g>
<!-- L15&#45;&gt;L19 -->
<g id="edge16" class="edge">
<title>L15&#45;&gt;L19</title>
<path fill="none" stroke="black" d="M446.83,-156.63C422.01,-144.81 390.24,-129.68 364.64,-117.49"/>
<polygon fill="black" stroke="black" points="366.04,-114.29 355.51,-113.15 363.04,-120.61 366.04,-114.29"/>
</g>
</g>
</svg>
