<?xml version="1.0" encoding="UTF-8" standalone="no"?>
<!DOCTYPE svg PUBLIC "-//W3C//DTD SVG 1.1//EN"
 "http://www.w3.org/Graphics/SVG/1.1/DTD/svg11.dtd">
<!-- Generated by graphviz version 2.43.0 (0)
 -->
<!-- Title: Proc1 Pages: 1 -->
<svg width="603pt" height="826pt"
 viewBox="0.00 0.00 603.00 826.00" xmlns="http://www.w3.org/2000/svg" xmlns:xlink="http://www.w3.org/1999/xlink">
<g id="graph0" class="graph" transform="scale(1 1) rotate(0) translate(4 822)">
<title>Proc1</title>
<polygon fill="white" stroke="transparent" points="-4,4 -4,-822 599,-822 599,4 -4,4"/>
<!-- L0 -->
<g id="node1" class="node">
<title>L0</title>
<text text-anchor="start" x="209.5" y="-802.8" font-family="Times,serif" font-weight="bold" font-size="14.00">L0</text>
<text text-anchor="start" x="188.5" y="-780.8" font-family="Times,serif" font-size="14.00">BR {L2}</text>
<polygon fill="none" stroke="black" points="183.5,-772 183.5,-818 255.5,-818 255.5,-772 183.5,-772"/>
</g>
<!-- L2 -->
<g id="node2" class="node">
<title>L2</title>
<text text-anchor="start" x="210" y="-720.3" font-family="Times,serif" font-weight="bold" font-size="14.00">L2</text>
<text text-anchor="start" x="97.5" y="-698.3" font-family="Times,serif" font-size="14.00">EQ {local(a, 0), local(b, 1)} {T(0)}</text>
<text text-anchor="start" x="144.5" y="-677.3" font-family="Times,serif" font-size="14.00">CBR {T(0)} {L5, L3}</text>
<polygon fill="none" stroke="black" points="92,-669 92,-736 347,-736 347,-669 92,-669"/>
</g>
<!-- L0&#45;&gt;L2 -->
<g id="edge1" class="edge">
<title>L0&#45;&gt;L2</title>
<path fill="none" stroke="black" d="M219.5,-771.63C219.5,-763.95 219.5,-755.09 219.5,-746.34"/>
<polygon fill="black" stroke="black" points="223,-746.21 219.5,-736.21 216,-746.21 223,-746.21"/>
</g>
<!-- L5 -->
<g id="node3" class="node">
<title>L5</title>
<text text-anchor="start" x="117" y="-607.3" font-family="Times,serif" font-weight="bold" font-size="14.00">L5</text>
<text text-anchor="start" x="91.5" y="-585.3" font-family="Times,serif" font-size="14.00">BR {L10}</text>
<polygon fill="none" stroke="black" points="86,-576.5 86,-622.5 167,-622.5 167,-576.5 86,-576.5"/>
</g>
<!-- L2&#45;&gt;L5 -->
<g id="edge2" class="edge">
<title>L2&#45;&gt;L5</title>
<path fill="none" stroke="black" d="M189.56,-668.99C178.15,-656.59 165.21,-642.54 154.03,-630.4"/>
<polygon fill="black" stroke="black" points="156.32,-627.72 146.97,-622.73 151.17,-632.46 156.32,-627.72"/>
</g>
<!-- L3 -->
<g id="node4" class="node">
<title>L3</title>
<text text-anchor="start" x="302.5" y="-617.3" font-family="Times,serif" font-weight="bold" font-size="14.00">L3</text>
<text text-anchor="start" x="190.5" y="-595.3" font-family="Times,serif" font-size="14.00">EQ {local(a, 0), local(c, 2)} {T(1)}</text>
<text text-anchor="start" x="237" y="-574.3" font-family="Times,serif" font-size="14.00">CBR {T(1)} {L6, L4}</text>
<polygon fill="none" stroke="black" points="185.5,-566 185.5,-633 439.5,-633 439.5,-566 185.5,-566"/>
</g>
<!-- L2&#45;&gt;L3 -->
<g id="edge3" class="edge">
<title>L2&#45;&gt;L3</title>
<path fill="none" stroke="black" d="M249.44,-668.99C257.73,-659.98 266.84,-650.09 275.49,-640.7"/>
<polygon fill="black" stroke="black" points="278.1,-643.03 282.3,-633.3 272.95,-638.28 278.1,-643.03"/>
</g>
<!-- L10 -->
<g id="node9" class="node">
<title>L10</title>
<text text-anchor="start" x="112" y="-411.8" font-family="Times,serif" font-weight="bold" font-size="14.00">L10</text>
<text text-anchor="start" x="21.5" y="-389.8" font-family="Times,serif" font-size="14.00">LOADGLOBAL {print} {T(4)}</text>
<text text-anchor="start" x="5.5" y="-368.8" font-family="Times,serif" font-size="14.00">CALL {T(4), &#39;hello&#39; Ks(0)} {T(4..)}</text>
<text text-anchor="start" x="91.5" y="-347.8" font-family="Times,serif" font-size="14.00">BR {L12}</text>
<polygon fill="none" stroke="black" points="0,-339 0,-427 253,-427 253,-339 0,-339"/>
</g>
<!-- L5&#45;&gt;L10 -->
<g id="edge8" class="edge">
<title>L5&#45;&gt;L10</title>
<path fill="none" stroke="black" d="M126.5,-576.35C126.5,-543.78 126.5,-481.98 126.5,-437.2"/>
<polygon fill="black" stroke="black" points="130,-437.07 126.5,-427.07 123,-437.07 130,-437.07"/>
</g>
<!-- L6 -->
<g id="node5" class="node">
<title>L6</title>
<text text-anchor="start" x="272" y="-504.3" font-family="Times,serif" font-weight="bold" font-size="14.00">L6</text>
<text text-anchor="start" x="246.5" y="-482.3" font-family="Times,serif" font-size="14.00">BR {L12}</text>
<polygon fill="none" stroke="black" points="241,-473.5 241,-519.5 322,-519.5 322,-473.5 241,-473.5"/>
</g>
<!-- L3&#45;&gt;L6 -->
<g id="edge4" class="edge">
<title>L3&#45;&gt;L6</title>
<path fill="none" stroke="black" d="M302.52,-565.99C298.93,-554.3 294.89,-541.14 291.32,-529.5"/>
<polygon fill="black" stroke="black" points="294.6,-528.27 288.32,-519.73 287.91,-530.32 294.6,-528.27"/>
</g>
<!-- L4 -->
<g id="node6" class="node">
<title>L4</title>
<text text-anchor="start" x="458" y="-514.3" font-family="Times,serif" font-weight="bold" font-size="14.00">L4</text>
<text text-anchor="start" x="345.5" y="-492.3" font-family="Times,serif" font-size="14.00">EQ {local(a, 0), local(d, 3)} {T(2)}</text>
<text text-anchor="start" x="392.5" y="-471.3" font-family="Times,serif" font-size="14.00">CBR {T(2)} {L7, L8}</text>
<polygon fill="none" stroke="black" points="340,-463 340,-530 595,-530 595,-463 340,-463"/>
</g>
<!-- L3&#45;&gt;L4 -->
<g id="edge5" class="edge">
<title>L3&#45;&gt;L4</title>
<path fill="none" stroke="black" d="M362.4,-565.99C377.26,-556.3 393.67,-545.61 409.03,-535.6"/>
<polygon fill="black" stroke="black" points="410.96,-538.52 417.43,-530.13 407.14,-532.65 410.96,-538.52"/>
</g>
<!-- L12 -->
<g id="node10" class="node">
<title>L12</title>
<text text-anchor="start" x="267" y="-277.3" font-family="Times,serif" font-weight="bold" font-size="14.00">L12</text>
<text text-anchor="start" x="246.5" y="-255.3" font-family="Times,serif" font-size="14.00">BR {L19}</text>
<polygon fill="none" stroke="black" points="241,-246.5 241,-292.5 322,-292.5 322,-246.5 241,-246.5"/>
</g>
<!-- L6&#45;&gt;L12 -->
<g id="edge9" class="edge">
<title>L6&#45;&gt;L12</title>
<path fill="none" stroke="black" d="M281.5,-473.1C281.5,-433.09 281.5,-349.2 281.5,-302.9"/>
<polygon fill="black" stroke="black" points="285,-302.81 281.5,-292.81 278,-302.81 285,-302.81"/>
</g>
<!-- L7 -->
<g id="node7" class="node">
<title>L7</title>
<text text-anchor="start" x="350" y="-390.8" font-family="Times,serif" font-weight="bold" font-size="14.00">L7</text>
<text text-anchor="start" x="324.5" y="-368.8" font-family="Times,serif" font-size="14.00">BR {L12}</text>
<polygon fill="none" stroke="black" points="319,-360 319,-406 400,-406 400,-360 319,-360"/>
</g>
<!-- L4&#45;&gt;L7 -->
<g id="edge6" class="edge">
<title>L4&#45;&gt;L7</title>
<path fill="none" stroke="black" d="M435.97,-462.95C420.91,-447.4 403.02,-428.93 388.33,-413.76"/>
<polygon fill="black" stroke="black" points="390.44,-410.91 380.97,-406.16 385.41,-415.78 390.44,-410.91"/>
</g>
<!-- L8 -->
<g id="node8" class="node">
<title>L8</title>
<text text-anchor="start" x="458" y="-390.8" font-family="Times,serif" font-weight="bold" font-size="14.00">L8</text>
<text text-anchor="start" x="432.5" y="-368.8" font-family="Times,serif" font-size="14.00">BR {L15}</text>
<polygon fill="none" stroke="black" points="427,-360 427,-406 508,-406 508,-360 427,-360"/>
</g>
<!-- L4&#45;&gt;L8 -->
<g id="edge7" class="edge">
<title>L4&#45;&gt;L8</title>
<path fill="none" stroke="black" d="M467.5,-462.95C467.5,-448.26 467.5,-430.95 467.5,-416.3"/>
<polygon fill="black" stroke="black" points="471,-416.16 467.5,-406.16 464,-416.16 471,-416.16"/>
</g>
<!-- L7&#45;&gt;L12 -->
<g id="edge10" class="edge">
<title>L7&#45;&gt;L12</title>
<path fill="none" stroke="black" d="M344.09,-359.97C332.31,-343.13 315.93,-319.71 302.88,-301.06"/>
<polygon fill="black" stroke="black" points="305.75,-299.05 297.15,-292.86 300.01,-303.07 305.75,-299.05"/>
</g>
<!-- L15 -->
<g id="node11" class="node">
<title>L15</title>
<text text-anchor="start" x="452.5" y="-287.3" font-family="Times,serif" font-weight="bold" font-size="14.00">L15</text>
<text text-anchor="start" x="345.5" y="-265.3" font-family="Times,serif" font-size="14.00">EQ {local(a, 0), local(e, 4)} {T(3)}</text>
<text text-anchor="start" x="383" y="-244.3" font-family="Times,serif" font-size="14.00">CBR {T(3)} {L16, L17}</text>
<polygon fill="none" stroke="black" points="340.5,-236 340.5,-303 594.5,-303 594.5,-236 340.5,-236"/>
</g>
<!-- L8&#45;&gt;L15 -->
<g id="edge11" class="edge">
<title>L8&#45;&gt;L15</title>
<path fill="none" stroke="black" d="M467.5,-359.97C467.5,-346.64 467.5,-329.2 467.5,-313.25"/>
<polygon fill="black" stroke="black" points="471,-313.05 467.5,-303.05 464,-313.05 471,-313.05"/>
</g>
<!-- L10&#45;&gt;L12 -->
<g id="edge12" class="edge">
<title>L10&#45;&gt;L12</title>
<path fill="none" stroke="black" d="M186.43,-338.89C205.14,-325.43 225.3,-310.93 242.22,-298.76"/>
<polygon fill="black" stroke="black" points="244.67,-301.3 250.75,-292.62 240.59,-295.62 244.67,-301.3"/>
</g>
<!-- L19 -->
<g id="node12" class="node">
<title>L19</title>
<text text-anchor="start" x="353.5" y="-102.8" font-family="Times,serif" font-weight="bold" font-size="14.00">L19</text>
<text text-anchor="start" x="337.5" y="-80.8" font-family="Times,serif" font-size="14.00">BR {L1}</text>
<polygon fill="none" stroke="black" points="332.5,-72 332.5,-118 404.5,-118 404.5,-72 332.5,-72"/>
</g>
<!-- L12&#45;&gt;L19 -->
<g id="edge13" class="edge">
<title>L12&#45;&gt;L19</title>
<path fill="none" stroke="black" d="M285.9,-246.34C291.25,-222.46 301.71,-183.87 318.5,-154 324.09,-144.06 331.54,-134.27 338.98,-125.65"/>
<polygon fill="black" stroke="black" points="341.69,-127.87 345.76,-118.09 336.48,-123.2 341.69,-127.87"/>
</g>
<!-- L16 -->
<g id="node13" class="node">
<title>L16</title>
<text text-anchor="start" x="354" y="-184.8" font-family="Times,serif" font-weight="bold" font-size="14.00">L16</text>
<text text-anchor="start" x="333.5" y="-162.8" font-family="Times,serif" font-size="14.00">BR {L19}</text>
<polygon fill="none" stroke="black" points="328,-154 328,-200 409,-200 409,-154 328,-154"/>
</g>
<!-- L15&#45;&gt;L16 -->
<g id="edge14" class="edge">
<title>L15&#45;&gt;L16</title>
<path fill="none" stroke="black" d="M431.76,-235.83C421.43,-226.39 410.24,-216.15 400.17,-206.95"/>
<polygon fill="black" stroke="black" points="402.48,-204.32 392.73,-200.15 397.75,-209.48 402.48,-204.32"/>
</g>
<!-- L17 -->
<g id="node14" class="node">
<title>L17</title>
<text text-anchor="start" x="453" y="-184.8" font-family="Times,serif" font-weight="bold" font-size="14.00">L17</text>
<text text-anchor="start" x="432.5" y="-162.8" font-family="Times,serif" font-size="14.00">BR {L19}</text>
<polygon fill="none" stroke="black" points="427,-154 427,-200 508,-200 508,-154 427,-154"/>
</g>
<!-- L15&#45;&gt;L17 -->
<g id="edge15" class="edge">
<title>L15&#45;&gt;L17</title>
<path fill="none" stroke="black" d="M467.5,-235.83C467.5,-227.5 467.5,-218.55 467.5,-210.24"/>
<polygon fill="black" stroke="black" points="471,-210.15 467.5,-200.15 464,-210.15 471,-210.15"/>
</g>
<!-- L1 -->
<g id="node15" class="node">
<title>L1</title>
<ellipse fill="none" stroke="black" cx="368.5" cy="-18" rx="27" ry="18"/>
<text text-anchor="middle" x="368.5" y="-14.3" font-family="Times,serif" font-size="14.00">L1</text>
</g>
<!-- L19&#45;&gt;L1 -->
<g id="edge18" class="edge">
<title>L19&#45;&gt;L1</title>
<path fill="none" stroke="black" d="M368.5,-71.9C368.5,-63.88 368.5,-54.72 368.5,-46.31"/>
<polygon fill="black" stroke="black" points="372,-46.18 368.5,-36.18 365,-46.18 372,-46.18"/>
</g>
<!-- L16&#45;&gt;L19 -->
<g id="edge16" class="edge">
<title>L16&#45;&gt;L19</title>
<path fill="none" stroke="black" d="M368.5,-153.72C368.5,-145.83 368.5,-136.79 368.5,-128.24"/>
<polygon fill="black" stroke="black" points="372,-128.16 368.5,-118.16 365,-128.16 372,-128.16"/>
</g>
<!-- L17&#45;&gt;L19 -->
<g id="edge17" class="edge">
<title>L17&#45;&gt;L19</title>
<path fill="none" stroke="black" d="M440.19,-153.93C428.93,-144.83 415.75,-134.18 403.78,-124.51"/>
<polygon fill="black" stroke="black" points="405.7,-121.56 395.73,-118 401.3,-127.01 405.7,-121.56"/>
</g>
</g>
</svg>
