<?xml version="1.0" encoding="UTF-8" standalone="no"?>
<!DOCTYPE svg PUBLIC "-//W3C//DTD SVG 1.1//EN"
 "http://www.w3.org/Graphics/SVG/1.1/DTD/svg11.dtd">
<!-- Generated by graphviz version 2.43.0 (0)
 -->
<!-- Title: Proc1 Pages: 1 -->
<svg width="265pt" height="374pt"
 viewBox="0.00 0.00 264.50 374.00" xmlns="http://www.w3.org/2000/svg" xmlns:xlink="http://www.w3.org/1999/xlink">
<g id="graph0" class="graph" transform="scale(1 1) rotate(0) translate(4 370)">
<title>Proc1</title>
<polygon fill="white" stroke="transparent" points="-4,4 -4,-370 260.5,-370 260.5,4 -4,4"/>
<!-- L0 -->
<g id="node1" class="node">
<title>L0</title>
<text text-anchor="start" x="149.5" y="-350.8" font-family="Times,serif" font-weight="bold" font-size="14.00">L0</text>
<text text-anchor="start" x="67.5" y="-328.8" font-family="Times,serif" font-size="14.00">LOADGLOBAL {a} {T(1)}</text>
<text text-anchor="start" x="90.5" y="-307.8" font-family="Times,serif" font-size="14.00">MOV {T(1)} {T(0)}</text>
<text text-anchor="start" x="84" y="-286.8" font-family="Times,serif" font-size="14.00">CBR {T(0)} {L2, L3}</text>
<polygon fill="none" stroke="black" points="62.5,-278 62.5,-366 256.5,-366 256.5,-278 62.5,-278"/>
</g>
<!-- L2 -->
<g id="node2" class="node">
<title>L2</title>
<text text-anchor="start" x="88" y="-226.8" font-family="Times,serif" font-weight="bold" font-size="14.00">L2</text>
<text text-anchor="start" x="5.5" y="-204.8" font-family="Times,serif" font-size="14.00">LOADGLOBAL {b} {T(1)}</text>
<text text-anchor="start" x="29" y="-183.8" font-family="Times,serif" font-size="14.00">MOV {T(1)} {T(0)}</text>
<text text-anchor="start" x="67" y="-162.8" font-family="Times,serif" font-size="14.00">BR {L3}</text>
<polygon fill="none" stroke="black" points="0,-154 0,-242 195,-242 195,-154 0,-154"/>
</g>
<!-- L0&#45;&gt;L2 -->
<g id="edge1" class="edge">
<title>L0&#45;&gt;L2</title>
<path fill="none" stroke="black" d="M137.64,-277.99C133.24,-269.33 128.57,-260.15 124.04,-251.22"/>
<polygon fill="black" stroke="black" points="127.02,-249.36 119.37,-242.04 120.78,-252.54 127.02,-249.36"/>
</g>
<!-- L3 -->
<g id="node3" class="node">
<title>L3</title>
<text text-anchor="start" x="149.5" y="-102.8" font-family="Times,serif" font-weight="bold" font-size="14.00">L3</text>
<text text-anchor="start" x="98.5" y="-80.8" font-family="Times,serif" font-size="14.00">RET {T(0)} {L1}</text>
<polygon fill="none" stroke="black" points="93.5,-72 93.5,-118 225.5,-118 225.5,-72 93.5,-72"/>
</g>
<!-- L0&#45;&gt;L3 -->
<g id="edge2" class="edge">
<title>L0&#45;&gt;L3</title>
<path fill="none" stroke="black" d="M188.59,-277.98C194.72,-266.74 200.3,-254.31 203.5,-242 213.33,-204.14 215.97,-191.07 203.5,-154 200.18,-144.12 194.42,-134.58 188.16,-126.19"/>
<polygon fill="black" stroke="black" points="190.76,-123.85 181.78,-118.22 185.29,-128.22 190.76,-123.85"/>
</g>
<!-- L2&#45;&gt;L3 -->
<g id="edge3" class="edge">
<title>L2&#45;&gt;L3</title>
<path fill="none" stroke="black" d="M123.97,-153.87C129.59,-144.72 135.41,-135.24 140.68,-126.66"/>
<polygon fill="black" stroke="black" points="143.68,-128.46 145.93,-118.11 137.71,-124.8 143.68,-128.46"/>
</g>
<!-- L1 -->
<g id="node4" class="node">
<title>L1</title>
<ellipse fill="none" stroke="black" cx="159.5" cy="-18" rx="27" ry="18"/>
<text text-anchor="middle" x="159.5" y="-14.3" font-family="Times,serif" font-size="14.00">L1</text>
</g>
<!-- L3&#45;&gt;L1 -->
<g id="edge4" class="edge">
<title>L3&#45;&gt;L1</title>
<path fill="none" stroke="black" d="M159.5,-71.9C159.5,-63.88 159.5,-54.72 159.5,-46.31"/>
<polygon fill="black" stroke="black" points="163,-46.18 159.5,-36.18 156,-46.18 163,-46.18"/>
</g>
</g>
</svg>
