<?xml version="1.0" encoding="UTF-8" standalone="no"?>
<!DOCTYPE svg PUBLIC "-//W3C//DTD SVG 1.1//EN"
 "http://www.w3.org/Graphics/SVG/1.1/DTD/svg11.dtd">
<!-- Generated by graphviz version 2.43.0 (0)
 -->
<!-- Title: Proc1 Pages: 1 -->
<svg width="266pt" height="374pt"
 viewBox="0.00 0.00 265.50 374.00" xmlns="http://www.w3.org/2000/svg" xmlns:xlink="http://www.w3.org/1999/xlink">
<g id="graph0" class="graph" transform="scale(1 1) rotate(0) translate(4 370)">
<title>Proc1</title>
<polygon fill="white" stroke="transparent" points="-4,4 -4,-370 261.5,-370 261.5,4 -4,4"/>
<!-- L0 -->
<g id="node1" class="node">
<title>L0</title>
<text text-anchor="start" x="87" y="-350.8" font-family="Times,serif" font-weight="bold" font-size="14.00">L0</text>
<text text-anchor="start" x="5" y="-328.8" font-family="Times,serif" font-size="14.00">LOADGLOBAL {a} {T(1)}</text>
<text text-anchor="start" x="28" y="-307.8" font-family="Times,serif" font-size="14.00">MOV {T(1)} {T(0)}</text>
<text text-anchor="start" x="21.5" y="-286.8" font-family="Times,serif" font-size="14.00">CBR {T(0)} {L3, L2}</text>
<polygon fill="none" stroke="black" points="0,-278 0,-366 194,-366 194,-278 0,-278"/>
</g>
<!-- L3 -->
<g id="node2" class="node">
<title>L3</title>
<text text-anchor="start" x="87" y="-102.8" font-family="Times,serif" font-weight="bold" font-size="14.00">L3</text>
<text text-anchor="start" x="36" y="-80.8" font-family="Times,serif" font-size="14.00">RET {T(0)} {L1}</text>
<polygon fill="none" stroke="black" points="31,-72 31,-118 163,-118 163,-72 31,-72"/>
</g>
<!-- L0&#45;&gt;L3 -->
<g id="edge1" class="edge">
<title>L0&#45;&gt;L3</title>
<path fill="none" stroke="black" d="M68.56,-277.91C62.57,-266.67 57.12,-254.26 54,-242 44.35,-204.1 41.73,-191.14 54,-154 57.27,-144.09 62.96,-134.49 69.15,-126.05"/>
<polygon fill="black" stroke="black" points="72.03,-128.06 75.44,-118.03 66.52,-123.74 72.03,-128.06"/>
</g>
<!-- L2 -->
<g id="node3" class="node">
<title>L2</title>
<text text-anchor="start" x="150.5" y="-226.8" font-family="Times,serif" font-weight="bold" font-size="14.00">L2</text>
<text text-anchor="start" x="68" y="-204.8" font-family="Times,serif" font-size="14.00">LOADGLOBAL {b} {T(1)}</text>
<text text-anchor="start" x="91.5" y="-183.8" font-family="Times,serif" font-size="14.00">MOV {T(1)} {T(0)}</text>
<text text-anchor="start" x="129.5" y="-162.8" font-family="Times,serif" font-size="14.00">BR {L3}</text>
<polygon fill="none" stroke="black" points="62.5,-154 62.5,-242 257.5,-242 257.5,-154 62.5,-154"/>
</g>
<!-- L0&#45;&gt;L2 -->
<g id="edge2" class="edge">
<title>L0&#45;&gt;L2</title>
<path fill="none" stroke="black" d="M119.21,-277.99C123.73,-269.24 128.52,-259.95 133.18,-250.93"/>
<polygon fill="black" stroke="black" points="136.3,-252.53 137.78,-242.04 130.08,-249.31 136.3,-252.53"/>
</g>
<!-- L1 -->
<g id="node4" class="node">
<title>L1</title>
<ellipse fill="none" stroke="black" cx="97" cy="-18" rx="27" ry="18"/>
<text text-anchor="middle" x="97" y="-14.3" font-family="Times,serif" font-size="14.00">L1</text>
</g>
<!-- L3&#45;&gt;L1 -->
<g id="edge4" class="edge">
<title>L3&#45;&gt;L1</title>
<path fill="none" stroke="black" d="M97,-71.9C97,-63.88 97,-54.72 97,-46.31"/>
<polygon fill="black" stroke="black" points="100.5,-46.18 97,-36.18 93.5,-46.18 100.5,-46.18"/>
</g>
<!-- L2&#45;&gt;L3 -->
<g id="edge3" class="edge">
<title>L2&#45;&gt;L3</title>
<path fill="none" stroke="black" d="M133.1,-153.87C127.39,-144.72 121.48,-135.24 116.13,-126.66"/>
<polygon fill="black" stroke="black" points="119.05,-124.74 110.79,-118.11 113.11,-128.44 119.05,-124.74"/>
</g>
</g>
</svg>
