<?xml version="1.0" encoding="UTF-8" standalone="no"?>
<!DOCTYPE svg PUBLIC "-//W3C//DTD SVG 1.1//EN"
 "http://www.w3.org/Graphics/SVG/1.1/DTD/svg11.dtd">
<!-- Generated by graphviz version 2.43.0 (0)
 -->
<!-- Title: Proc1 Pages: 1 -->
<svg width="288pt" height="601pt"
 viewBox="0.00 0.00 287.66 601.00" xmlns="http://www.w3.org/2000/svg" xmlns:xlink="http://www.w3.org/1999/xlink">
<g id="graph0" class="graph" transform="scale(1 1) rotate(0) translate(4 597)">
<title>Proc1</title>
<polygon fill="white" stroke="transparent" points="-4,4 -4,-597 283.66,-597 283.66,4 -4,4"/>
<!-- L0 -->
<g id="node1" class="node">
<title>L0</title>
<text text-anchor="start" x="87" y="-577.8" font-family="Times,serif" font-weight="bold" font-size="14.00">L0</text>
<text text-anchor="start" x="5" y="-555.8" font-family="Times,serif" font-size="14.00">LOADGLOBAL {a} {T(1)}</text>
<text text-anchor="start" x="28" y="-534.8" font-family="Times,serif" font-size="14.00">MOV {T(1)} {T(0)}</text>
<text text-anchor="start" x="21.5" y="-513.8" font-family="Times,serif" font-size="14.00">CBR {T(0)} {L3, L2}</text>
<polygon fill="none" stroke="black" points="0,-505 0,-593 194,-593 194,-505 0,-505"/>
</g>
<!-- L3 -->
<g id="node2" class="node">
<title>L3</title>
<text text-anchor="start" x="87" y="-102.8" font-family="Times,serif" font-weight="bold" font-size="14.00">L3</text>
<text text-anchor="start" x="36" y="-80.8" font-family="Times,serif" font-size="14.00">RET {T(0)} {L1}</text>
<polygon fill="none" stroke="black" points="31,-72 31,-118 163,-118 163,-72 31,-72"/>
</g>
<!-- L0&#45;&gt;L3 -->
<g id="edge1" class="edge">
<title>L0&#45;&gt;L3</title>
<path fill="none" stroke="black" d="M67.91,-504.98C61.78,-493.74 56.2,-481.31 53,-469 17.71,-333.1 38.75,-289.1 77,-154 79.44,-145.38 82.43,-136.17 85.36,-127.68"/>
<polygon fill="black" stroke="black" points="88.7,-128.72 88.72,-118.12 82.1,-126.4 88.7,-128.72"/>
</g>
<!-- L2 -->
<g id="node3" class="node">
<title>L2</title>
<text text-anchor="start" x="150.5" y="-453.8" font-family="Times,serif" font-weight="bold" font-size="14.00">L2</text>
<text text-anchor="start" x="68" y="-431.8" font-family="Times,serif" font-size="14.00">LOADGLOBAL {b} {T(2)}</text>
<text text-anchor="start" x="91.5" y="-410.8" font-family="Times,serif" font-size="14.00">MOV {T(2)} {T(1)}</text>
<text text-anchor="start" x="85" y="-389.8" font-family="Times,serif" font-size="14.00">CBR {T(1)} {L4, L5}</text>
<polygon fill="none" stroke="black" points="62.5,-381 62.5,-469 257.5,-469 257.5,-381 62.5,-381"/>
</g>
<!-- L0&#45;&gt;L2 -->
<g id="edge2" class="edge">
<title>L0&#45;&gt;L2</title>
<path fill="none" stroke="black" d="M119.21,-504.99C123.73,-496.24 128.52,-486.95 133.18,-477.93"/>
<polygon fill="black" stroke="black" points="136.3,-479.53 137.78,-469.04 130.08,-476.31 136.3,-479.53"/>
</g>
<!-- L1 -->
<g id="node6" class="node">
<title>L1</title>
<ellipse fill="none" stroke="black" cx="97" cy="-18" rx="27" ry="18"/>
<text text-anchor="middle" x="97" y="-14.3" font-family="Times,serif" font-size="14.00">L1</text>
</g>
<!-- L3&#45;&gt;L1 -->
<g id="edge5" class="edge">
<title>L3&#45;&gt;L1</title>
<path fill="none" stroke="black" d="M97,-71.9C97,-63.88 97,-54.72 97,-46.31"/>
<polygon fill="black" stroke="black" points="100.5,-46.18 97,-36.18 93.5,-46.18 100.5,-46.18"/>
</g>
<!-- L4 -->
<g id="node4" class="node">
<title>L4</title>
<text text-anchor="start" x="150" y="-329.8" font-family="Times,serif" font-weight="bold" font-size="14.00">L4</text>
<text text-anchor="start" x="68" y="-307.8" font-family="Times,serif" font-size="14.00">LOADGLOBAL {c} {T(2)}</text>
<text text-anchor="start" x="91" y="-286.8" font-family="Times,serif" font-size="14.00">MOV {T(2)} {T(1)}</text>
<text text-anchor="start" x="129" y="-265.8" font-family="Times,serif" font-size="14.00">BR {L5}</text>
<polygon fill="none" stroke="black" points="63,-257 63,-345 257,-345 257,-257 63,-257"/>
</g>
<!-- L2&#45;&gt;L4 -->
<g id="edge3" class="edge">
<title>L2&#45;&gt;L4</title>
<path fill="none" stroke="black" d="M160,-380.99C160,-372.6 160,-363.72 160,-355.06"/>
<polygon fill="black" stroke="black" points="163.5,-355.04 160,-345.04 156.5,-355.04 163.5,-355.04"/>
</g>
<!-- L5 -->
<g id="node5" class="node">
<title>L5</title>
<text text-anchor="start" x="150" y="-205.3" font-family="Times,serif" font-weight="bold" font-size="14.00">L5</text>
<text text-anchor="start" x="91" y="-183.3" font-family="Times,serif" font-size="14.00">MOV {T(1)} {T(0)}</text>
<text text-anchor="start" x="129" y="-162.3" font-family="Times,serif" font-size="14.00">BR {L3}</text>
<polygon fill="none" stroke="black" points="86,-154 86,-221 234,-221 234,-154 86,-154"/>
</g>
<!-- L2&#45;&gt;L5 -->
<g id="edge4" class="edge">
<title>L2&#45;&gt;L5</title>
<path fill="none" stroke="black" d="M236.74,-380.87C248.55,-370.7 259.1,-358.74 266,-345 283.54,-310.04 284.7,-291.35 266,-257 259.74,-245.5 250.62,-235.63 240.33,-227.27"/>
<polygon fill="black" stroke="black" points="242.34,-224.4 232.25,-221.16 238.12,-229.99 242.34,-224.4"/>
</g>
<!-- L4&#45;&gt;L5 -->
<g id="edge6" class="edge">
<title>L4&#45;&gt;L5</title>
<path fill="none" stroke="black" d="M160,-256.89C160,-248.44 160,-239.58 160,-231.14"/>
<polygon fill="black" stroke="black" points="163.5,-231.12 160,-221.12 156.5,-231.12 163.5,-231.12"/>
</g>
<!-- L5&#45;&gt;L3 -->
<g id="edge7" class="edge">
<title>L5&#45;&gt;L3</title>
<path fill="none" stroke="black" d="M137.26,-153.83C131.07,-144.94 124.4,-135.35 118.29,-126.59"/>
<polygon fill="black" stroke="black" points="121.01,-124.36 112.42,-118.15 115.26,-128.36 121.01,-124.36"/>
</g>
</g>
</svg>
