<?xml version="1.0" encoding="UTF-8" standalone="no"?>
<!DOCTYPE svg PUBLIC "-//W3C//DTD SVG 1.1//EN"
 "http://www.w3.org/Graphics/SVG/1.1/DTD/svg11.dtd">
<!-- Generated by graphviz version 2.43.0 (0)
 -->
<!-- Title: Proc1 Pages: 1 -->
<svg width="265pt" height="601pt"
 viewBox="0.00 0.00 264.50 601.00" xmlns="http://www.w3.org/2000/svg" xmlns:xlink="http://www.w3.org/1999/xlink">
<g id="graph0" class="graph" transform="scale(1 1) rotate(0) translate(4 597)">
<title>Proc1</title>
<polygon fill="white" stroke="transparent" points="-4,4 -4,-597 260.5,-597 260.5,4 -4,4"/>
<!-- L0 -->
<g id="node1" class="node">
<title>L0</title>
<text text-anchor="start" x="149.5" y="-577.8" font-family="Times,serif" font-weight="bold" font-size="14.00">L0</text>
<text text-anchor="start" x="67.5" y="-555.8" font-family="Times,serif" font-size="14.00">LOADGLOBAL {a} {T(2)}</text>
<text text-anchor="start" x="90.5" y="-534.8" font-family="Times,serif" font-size="14.00">MOV {T(2)} {T(1)}</text>
<text text-anchor="start" x="84" y="-513.8" font-family="Times,serif" font-size="14.00">CBR {T(1)} {L4, L5}</text>
<polygon fill="none" stroke="black" points="62.5,-505 62.5,-593 256.5,-593 256.5,-505 62.5,-505"/>
</g>
<!-- L4 -->
<g id="node2" class="node">
<title>L4</title>
<text text-anchor="start" x="88" y="-453.8" font-family="Times,serif" font-weight="bold" font-size="14.00">L4</text>
<text text-anchor="start" x="5.5" y="-431.8" font-family="Times,serif" font-size="14.00">LOADGLOBAL {b} {T(2)}</text>
<text text-anchor="start" x="29" y="-410.8" font-family="Times,serif" font-size="14.00">MOV {T(2)} {T(1)}</text>
<text text-anchor="start" x="67" y="-389.8" font-family="Times,serif" font-size="14.00">BR {L5}</text>
<polygon fill="none" stroke="black" points="0,-381 0,-469 195,-469 195,-381 0,-381"/>
</g>
<!-- L0&#45;&gt;L4 -->
<g id="edge1" class="edge">
<title>L0&#45;&gt;L4</title>
<path fill="none" stroke="black" d="M137.64,-504.99C133.24,-496.33 128.57,-487.15 124.04,-478.22"/>
<polygon fill="black" stroke="black" points="127.02,-476.36 119.37,-469.04 120.78,-479.54 127.02,-476.36"/>
</g>
<!-- L5 -->
<g id="node3" class="node">
<title>L5</title>
<text text-anchor="start" x="150" y="-329.3" font-family="Times,serif" font-weight="bold" font-size="14.00">L5</text>
<text text-anchor="start" x="91" y="-307.3" font-family="Times,serif" font-size="14.00">MOV {T(1)} {T(0)}</text>
<text text-anchor="start" x="84.5" y="-286.3" font-family="Times,serif" font-size="14.00">CBR {T(0)} {L3, L2}</text>
<polygon fill="none" stroke="black" points="79,-278 79,-345 240,-345 240,-278 79,-278"/>
</g>
<!-- L0&#45;&gt;L5 -->
<g id="edge2" class="edge">
<title>L0&#45;&gt;L5</title>
<path fill="none" stroke="black" d="M188.59,-504.98C194.72,-493.74 200.3,-481.31 203.5,-469 213.33,-431.14 214.51,-418.53 203.5,-381 200.75,-371.64 196.29,-362.35 191.23,-353.76"/>
<polygon fill="black" stroke="black" points="194.08,-351.72 185.8,-345.11 188.15,-355.44 194.08,-351.72"/>
</g>
<!-- L4&#45;&gt;L5 -->
<g id="edge5" class="edge">
<title>L4&#45;&gt;L5</title>
<path fill="none" stroke="black" d="M121.47,-380.89C126.38,-372.07 131.53,-362.8 136.41,-354.03"/>
<polygon fill="black" stroke="black" points="139.56,-355.56 141.36,-345.12 133.44,-352.16 139.56,-355.56"/>
</g>
<!-- L2 -->
<g id="node4" class="node">
<title>L2</title>
<text text-anchor="start" x="87.5" y="-226.8" font-family="Times,serif" font-weight="bold" font-size="14.00">L2</text>
<text text-anchor="start" x="5.5" y="-204.8" font-family="Times,serif" font-size="14.00">LOADGLOBAL {c} {T(1)}</text>
<text text-anchor="start" x="28.5" y="-183.8" font-family="Times,serif" font-size="14.00">MOV {T(1)} {T(0)}</text>
<text text-anchor="start" x="66.5" y="-162.8" font-family="Times,serif" font-size="14.00">BR {L3}</text>
<polygon fill="none" stroke="black" points="0.5,-154 0.5,-242 194.5,-242 194.5,-154 0.5,-154"/>
</g>
<!-- L5&#45;&gt;L2 -->
<g id="edge7" class="edge">
<title>L5&#45;&gt;L2</title>
<path fill="none" stroke="black" d="M141.4,-277.95C136.69,-269.47 131.49,-260.13 126.37,-250.92"/>
<polygon fill="black" stroke="black" points="129.42,-249.21 121.5,-242.17 123.31,-252.61 129.42,-249.21"/>
</g>
<!-- L3 -->
<g id="node5" class="node">
<title>L3</title>
<text text-anchor="start" x="149.5" y="-102.8" font-family="Times,serif" font-weight="bold" font-size="14.00">L3</text>
<text text-anchor="start" x="98.5" y="-80.8" font-family="Times,serif" font-size="14.00">RET {T(0)} {L1}</text>
<polygon fill="none" stroke="black" points="93.5,-72 93.5,-118 225.5,-118 225.5,-72 93.5,-72"/>
</g>
<!-- L5&#45;&gt;L3 -->
<g id="edge6" class="edge">
<title>L5&#45;&gt;L3</title>
<path fill="none" stroke="black" d="M185.8,-277.89C192.98,-267.1 199.8,-254.61 203.5,-242 214.51,-204.47 215.97,-191.07 203.5,-154 200.18,-144.12 194.42,-134.58 188.16,-126.19"/>
<polygon fill="black" stroke="black" points="190.76,-123.85 181.78,-118.22 185.29,-128.22 190.76,-123.85"/>
</g>
<!-- L2&#45;&gt;L3 -->
<g id="edge3" class="edge">
<title>L2&#45;&gt;L3</title>
<path fill="none" stroke="black" d="M123.97,-153.87C129.59,-144.72 135.41,-135.24 140.68,-126.66"/>
<polygon fill="black" stroke="black" points="143.68,-128.46 145.93,-118.11 137.71,-124.8 143.68,-128.46"/>
</g>
<!-- L1 -->
<g id="node6" class="node">
<title>L1</title>
<ellipse fill="none" stroke="black" cx="159.5" cy="-18" rx="27" ry="18"/>
<text text-anchor="middle" x="159.5" y="-14.3" font-family="Times,serif" font-size="14.00">L1</text>
</g>
<!-- L3&#45;&gt;L1 -->
<g id="edge4" class="edge">
<title>L3&#45;&gt;L1</title>
<path fill="none" stroke="black" d="M159.5,-71.9C159.5,-63.88 159.5,-54.72 159.5,-46.31"/>
<polygon fill="black" stroke="black" points="163,-46.18 159.5,-36.18 156,-46.18 163,-46.18"/>
</g>
</g>
</svg>
