<?xml version="1.0" encoding="UTF-8" standalone="no"?>
<!DOCTYPE svg PUBLIC "-//W3C//DTD SVG 1.1//EN"
 "http://www.w3.org/Graphics/SVG/1.1/DTD/svg11.dtd">
<!-- Generated by graphviz version 2.43.0 (0)
 -->
<!-- Title: Proc1 Pages: 1 -->
<svg width="278pt" height="332pt"
 viewBox="0.00 0.00 278.00 332.00" xmlns="http://www.w3.org/2000/svg" xmlns:xlink="http://www.w3.org/1999/xlink">
<g id="graph0" class="graph" transform="scale(1 1) rotate(0) translate(4 328)">
<title>Proc1</title>
<polygon fill="white" stroke="transparent" points="-4,4 -4,-328 274,-328 274,4 -4,4"/>
<!-- L0 -->
<g id="node1" class="node">
<title>L0</title>
<text text-anchor="start" x="125" y="-308.8" font-family="Times,serif" font-weight="bold" font-size="14.00">L0</text>
<text text-anchor="start" x="104" y="-286.8" font-family="Times,serif" font-size="14.00">BR {L3}</text>
<polygon fill="none" stroke="black" points="99,-278 99,-324 171,-324 171,-278 99,-278"/>
</g>
<!-- L3 -->
<g id="node2" class="node">
<title>L3</title>
<text text-anchor="start" x="125" y="-226.8" font-family="Times,serif" font-weight="bold" font-size="14.00">L3</text>
<text text-anchor="start" x="29.5" y="-204.8" font-family="Times,serif" font-size="14.00">LOADGLOBAL {print} {T(0)}</text>
<text text-anchor="start" x="5" y="-183.8" font-family="Times,serif" font-size="14.00">CALL {T(0), &#39;forever&#39; Ks(0)} {T(0..)}</text>
<text text-anchor="start" x="104" y="-162.8" font-family="Times,serif" font-size="14.00">BR {L4}</text>
<polygon fill="none" stroke="black" points="0,-154 0,-242 270,-242 270,-154 0,-154"/>
</g>
<!-- L0&#45;&gt;L3 -->
<g id="edge1" class="edge">
<title>L0&#45;&gt;L3</title>
<path fill="none" stroke="black" d="M135,-277.58C135,-269.98 135,-261.14 135,-252.18"/>
<polygon fill="black" stroke="black" points="138.5,-252.08 135,-242.08 131.5,-252.08 138.5,-252.08"/>
</g>
<!-- L4 -->
<g id="node3" class="node">
<title>L4</title>
<text text-anchor="start" x="125.5" y="-102.8" font-family="Times,serif" font-weight="bold" font-size="14.00">L4</text>
<text text-anchor="start" x="100" y="-80.8" font-family="Times,serif" font-size="14.00">RET {L1}</text>
<polygon fill="none" stroke="black" points="94.5,-72 94.5,-118 175.5,-118 175.5,-72 94.5,-72"/>
</g>
<!-- L3&#45;&gt;L4 -->
<g id="edge2" class="edge">
<title>L3&#45;&gt;L4</title>
<path fill="none" stroke="black" d="M135,-153.87C135,-145.3 135,-136.44 135,-128.3"/>
<polygon fill="black" stroke="black" points="138.5,-128.11 135,-118.11 131.5,-128.11 138.5,-128.11"/>
</g>
<!-- L1 -->
<g id="node4" class="node">
<title>L1</title>
<ellipse fill="none" stroke="black" cx="135" cy="-18" rx="27" ry="18"/>
<text text-anchor="middle" x="135" y="-14.3" font-family="Times,serif" font-size="14.00">L1</text>
</g>
<!-- L4&#45;&gt;L1 -->
<g id="edge3" class="edge">
<title>L4&#45;&gt;L1</title>
<path fill="none" stroke="black" d="M135,-71.9C135,-63.88 135,-54.72 135,-46.31"/>
<polygon fill="black" stroke="black" points="138.5,-46.18 135,-36.18 131.5,-46.18 138.5,-46.18"/>
</g>
</g>
</svg>
