<?xml version="1.0" encoding="UTF-8" standalone="no"?>
<!DOCTYPE svg PUBLIC "-//W3C//DTD SVG 1.1//EN"
 "http://www.w3.org/Graphics/SVG/1.1/DTD/svg11.dtd">
<!-- Generated by graphviz version 2.43.0 (0)
 -->
<!-- Title: Proc1 Pages: 1 -->
<svg width="373pt" height="414pt"
 viewBox="0.00 0.00 373.00 414.00" xmlns="http://www.w3.org/2000/svg" xmlns:xlink="http://www.w3.org/1999/xlink">
<g id="graph0" class="graph" transform="scale(1 1) rotate(0) translate(4 410)">
<title>Proc1</title>
<polygon fill="white" stroke="transparent" points="-4,4 -4,-410 369,-410 369,4 -4,4"/>
<!-- L0 -->
<g id="node1" class="node">
<title>L0</title>
<text text-anchor="start" x="125" y="-308.8" font-family="Times,serif" font-weight="bold" font-size="14.00">L0</text>
<text text-anchor="start" x="104" y="-286.8" font-family="Times,serif" font-size="14.00">BR {L3}</text>
<polygon fill="none" stroke="black" points="99,-278 99,-324 171,-324 171,-278 99,-278"/>
</g>
<!-- L3 -->
<g id="node2" class="node">
<title>L3</title>
<text text-anchor="start" x="125" y="-226.8" font-family="Times,serif" font-weight="bold" font-size="14.00">L3</text>
<text text-anchor="start" x="29.5" y="-204.8" font-family="Times,serif" font-size="14.00">LOADGLOBAL {print} {T(0)}</text>
<text text-anchor="start" x="5" y="-183.8" font-family="Times,serif" font-size="14.00">CALL {T(0), &#39;forever&#39; Ks(0)} {T(0..)}</text>
<text text-anchor="start" x="104" y="-162.8" font-family="Times,serif" font-size="14.00">BR {L4}</text>
<polygon fill="none" stroke="black" points="0,-154 0,-242 270,-242 270,-154 0,-154"/>
</g>
<!-- L0&#45;&gt;L3 -->
<g id="edge1" class="edge">
<title>L0&#45;&gt;L3</title>
<path fill="none" stroke="black" d="M135,-277.58C135,-269.98 135,-261.14 135,-252.18"/>
<polygon fill="black" stroke="black" points="138.5,-252.08 135,-242.08 131.5,-252.08 138.5,-252.08"/>
</g>
<!-- L4 -->
<g id="node4" class="node">
<title>L4</title>
<text text-anchor="start" x="206.5" y="-102.8" font-family="Times,serif" font-weight="bold" font-size="14.00">L4</text>
<text text-anchor="start" x="181" y="-80.8" font-family="Times,serif" font-size="14.00">RET {L1}</text>
<polygon fill="none" stroke="black" points="175.5,-72 175.5,-118 256.5,-118 256.5,-72 175.5,-72"/>
</g>
<!-- L3&#45;&gt;L4 -->
<g id="edge4" class="edge">
<title>L3&#45;&gt;L4</title>
<path fill="none" stroke="black" d="M169.59,-153.87C177.08,-144.53 184.85,-134.84 191.84,-126.12"/>
<polygon fill="black" stroke="black" points="194.74,-128.1 198.27,-118.11 189.28,-123.72 194.74,-128.1"/>
</g>
<!-- L2 -->
<g id="node3" class="node">
<title>L2</title>
<text text-anchor="start" x="274" y="-308.8" font-family="Times,serif" font-weight="bold" font-size="14.00">L2</text>
<text text-anchor="start" x="208" y="-286.8" font-family="Times,serif" font-size="14.00">CBR {true} {L3, L4}</text>
<polygon fill="none" stroke="black" points="203,-278 203,-324 365,-324 365,-278 203,-278"/>
</g>
<!-- L2&#45;&gt;L3 -->
<g id="edge2" class="edge">
<title>L2&#45;&gt;L3</title>
<path fill="none" stroke="black" d="M251.3,-277.84C238.22,-268.97 222.59,-258.38 207.11,-247.88"/>
<polygon fill="black" stroke="black" points="208.77,-244.78 198.53,-242.07 204.85,-250.57 208.77,-244.78"/>
</g>
<!-- L2&#45;&gt;L4 -->
<g id="edge3" class="edge">
<title>L2&#45;&gt;L4</title>
<path fill="none" stroke="black" d="M288.34,-277.77C293.03,-248.06 297.57,-194.45 279,-154 273.96,-143.02 265.77,-133.17 256.94,-124.84"/>
<polygon fill="black" stroke="black" points="259.24,-122.2 249.43,-118.2 254.61,-127.44 259.24,-122.2"/>
</g>
<!-- L1 -->
<g id="node5" class="node">
<title>L1</title>
<ellipse fill="none" stroke="black" cx="216" cy="-18" rx="27" ry="18"/>
<text text-anchor="middle" x="216" y="-14.3" font-family="Times,serif" font-size="14.00">L1</text>
</g>
<!-- L4&#45;&gt;L1 -->
<g id="edge5" class="edge">
<title>L4&#45;&gt;L1</title>
<path fill="none" stroke="black" d="M216,-71.9C216,-63.88 216,-54.72 216,-46.31"/>
<polygon fill="black" stroke="black" points="219.5,-46.18 216,-36.18 212.5,-46.18 219.5,-46.18"/>
</g>
<!-- L5 -->
<g id="node6" class="node">
<title>L5</title>
<text text-anchor="start" x="274" y="-390.8" font-family="Times,serif" font-weight="bold" font-size="14.00">L5</text>
<text text-anchor="start" x="253" y="-368.8" font-family="Times,serif" font-size="14.00">BR {L2}</text>
<polygon fill="none" stroke="black" points="248,-360 248,-406 320,-406 320,-360 248,-360"/>
</g>
<!-- L5&#45;&gt;L2 -->
<g id="edge6" class="edge">
<title>L5&#45;&gt;L2</title>
<path fill="none" stroke="black" d="M284,-359.72C284,-351.83 284,-342.79 284,-334.24"/>
<polygon fill="black" stroke="black" points="287.5,-334.16 284,-324.16 280.5,-334.16 287.5,-334.16"/>
</g>
</g>
</svg>
