<?xml version="1.0" encoding="UTF-8" standalone="no"?>
<!DOCTYPE svg PUBLIC "-//W3C//DTD SVG 1.1//EN"
 "http://www.w3.org/Graphics/SVG/1.1/DTD/svg11.dtd">
<!-- Generated by graphviz version 2.43.0 (0)
 -->
<!-- Title: Proc1 Pages: 1 -->
<svg width="356pt" height="353pt"
 viewBox="0.00 0.00 356.00 353.00" xmlns="http://www.w3.org/2000/svg" xmlns:xlink="http://www.w3.org/1999/xlink">
<g id="graph0" class="graph" transform="scale(1 1) rotate(0) translate(4 349)">
<title>Proc1</title>
<polygon fill="white" stroke="transparent" points="-4,4 -4,-349 352,-349 352,4 -4,4"/>
<!-- L0 -->
<g id="node1" class="node">
<title>L0</title>
<text text-anchor="start" x="119" y="-329.8" font-family="Times,serif" font-weight="bold" font-size="14.00">L0</text>
<text text-anchor="start" x="98" y="-307.8" font-family="Times,serif" font-size="14.00">BR {L2}</text>
<polygon fill="none" stroke="black" points="93,-299 93,-345 165,-345 165,-299 93,-299"/>
</g>
<!-- L2 -->
<g id="node2" class="node">
<title>L2</title>
<text text-anchor="start" x="119" y="-247.3" font-family="Times,serif" font-weight="bold" font-size="14.00">L2</text>
<text text-anchor="start" x="8" y="-225.3" font-family="Times,serif" font-size="14.00">LT {local(a, 0), 10 Kint(0)} {T(0)}</text>
<text text-anchor="start" x="53.5" y="-204.3" font-family="Times,serif" font-size="14.00">CBR {T(0)} {L3, L4}</text>
<polygon fill="none" stroke="black" points="3,-196 3,-263 255,-263 255,-196 3,-196"/>
</g>
<!-- L0&#45;&gt;L2 -->
<g id="edge1" class="edge">
<title>L0&#45;&gt;L2</title>
<path fill="none" stroke="black" d="M129,-298.63C129,-290.95 129,-282.09 129,-273.34"/>
<polygon fill="black" stroke="black" points="132.5,-273.21 129,-263.21 125.5,-273.21 132.5,-273.21"/>
</g>
<!-- L3 -->
<g id="node3" class="node">
<title>L3</title>
<text text-anchor="start" x="119" y="-144.8" font-family="Times,serif" font-weight="bold" font-size="14.00">L3</text>
<text text-anchor="start" x="5" y="-122.8" font-family="Times,serif" font-size="14.00">ADD {local(a, 0), 1 Kint(1)} {T(0)}</text>
<text text-anchor="start" x="39.5" y="-101.8" font-family="Times,serif" font-size="14.00">MOV {T(0)} {local(a, 0)}</text>
<text text-anchor="start" x="98" y="-80.8" font-family="Times,serif" font-size="14.00">BR {L2}</text>
<polygon fill="none" stroke="black" points="0,-72 0,-160 258,-160 258,-72 0,-72"/>
</g>
<!-- L2&#45;&gt;L3 -->
<g id="edge2" class="edge">
<title>L2&#45;&gt;L3</title>
<path fill="none" stroke="black" d="M122.8,-195.95C122.4,-187.91 122.21,-179.09 122.26,-170.35"/>
<polygon fill="black" stroke="black" points="125.76,-170.22 122.41,-160.17 118.76,-170.12 125.76,-170.22"/>
</g>
<!-- L4 -->
<g id="node4" class="node">
<title>L4</title>
<text text-anchor="start" x="302" y="-123.8" font-family="Times,serif" font-weight="bold" font-size="14.00">L4</text>
<text text-anchor="start" x="281" y="-101.8" font-family="Times,serif" font-size="14.00">BR {L1}</text>
<polygon fill="none" stroke="black" points="276,-93 276,-139 348,-139 348,-93 276,-93"/>
</g>
<!-- L2&#45;&gt;L4 -->
<g id="edge3" class="edge">
<title>L2&#45;&gt;L4</title>
<path fill="none" stroke="black" d="M205.11,-195.83C225.91,-185.56 247.95,-173.36 267,-160 272.71,-156 278.39,-151.28 283.71,-146.47"/>
<polygon fill="black" stroke="black" points="286.32,-148.82 291.19,-139.41 281.51,-143.73 286.32,-148.82"/>
</g>
<!-- L3&#45;&gt;L2 -->
<g id="edge4" class="edge">
<title>L3&#45;&gt;L2</title>
<path fill="none" stroke="black" d="M135.59,-160.17C135.81,-168.63 135.8,-177.49 135.58,-185.93"/>
<polygon fill="black" stroke="black" points="132.08,-185.82 135.2,-195.95 139.08,-186.09 132.08,-185.82"/>
</g>
<!-- L1 -->
<g id="node5" class="node">
<title>L1</title>
<ellipse fill="none" stroke="black" cx="312" cy="-18" rx="27" ry="18"/>
<text text-anchor="middle" x="312" y="-14.3" font-family="Times,serif" font-size="14.00">L1</text>
</g>
<!-- L4&#45;&gt;L1 -->
<g id="edge5" class="edge">
<title>L4&#45;&gt;L1</title>
<path fill="none" stroke="black" d="M312,-92.73C312,-78.83 312,-60.83 312,-46.1"/>
<polygon fill="black" stroke="black" points="315.5,-46.05 312,-36.05 308.5,-46.05 315.5,-46.05"/>
</g>
</g>
</svg>
