<?xml version="1.0" encoding="UTF-8" standalone="no"?>
<!DOCTYPE svg PUBLIC "-//W3C//DTD SVG 1.1//EN"
 "http://www.w3.org/Graphics/SVG/1.1/DTD/svg11.dtd">
<!-- Generated by graphviz version 2.43.0 (0)
 -->
<!-- Title: Proc1 Pages: 1 -->
<svg width="368pt" height="332pt"
 viewBox="0.00 0.00 368.00 332.00" xmlns="http://www.w3.org/2000/svg" xmlns:xlink="http://www.w3.org/1999/xlink">
<g id="graph0" class="graph" transform="scale(1 1) rotate(0) translate(4 328)">
<title>Proc1</title>
<polygon fill="white" stroke="transparent" points="-4,4 -4,-328 364,-328 364,4 -4,4"/>
<!-- L0 -->
<g id="node1" class="node">
<title>L0</title>
<text text-anchor="start" x="125" y="-308.8" font-family="Times,serif" font-weight="bold" font-size="14.00">L0</text>
<text text-anchor="start" x="104" y="-286.8" font-family="Times,serif" font-size="14.00">BR {L2}</text>
<polygon fill="none" stroke="black" points="99,-278 99,-324 171,-324 171,-278 99,-278"/>
</g>
<!-- L2 -->
<g id="node2" class="node">
<title>L2</title>
<text text-anchor="start" x="125" y="-226.8" font-family="Times,serif" font-weight="bold" font-size="14.00">L2</text>
<text text-anchor="start" x="59" y="-204.8" font-family="Times,serif" font-size="14.00">CBR {true} {L3, L4}</text>
<polygon fill="none" stroke="black" points="54,-196 54,-242 216,-242 216,-196 54,-196"/>
</g>
<!-- L0&#45;&gt;L2 -->
<g id="edge1" class="edge">
<title>L0&#45;&gt;L2</title>
<path fill="none" stroke="black" d="M135,-277.72C135,-269.83 135,-260.79 135,-252.24"/>
<polygon fill="black" stroke="black" points="138.5,-252.16 135,-242.16 131.5,-252.16 138.5,-252.16"/>
</g>
<!-- L3 -->
<g id="node3" class="node">
<title>L3</title>
<text text-anchor="start" x="125" y="-144.8" font-family="Times,serif" font-weight="bold" font-size="14.00">L3</text>
<text text-anchor="start" x="29.5" y="-122.8" font-family="Times,serif" font-size="14.00">LOADGLOBAL {print} {T(0)}</text>
<text text-anchor="start" x="5" y="-101.8" font-family="Times,serif" font-size="14.00">CALL {T(0), &#39;forever&#39; Ks(0)} {T(0..)}</text>
<text text-anchor="start" x="104" y="-80.8" font-family="Times,serif" font-size="14.00">BR {L2}</text>
<polygon fill="none" stroke="black" points="0,-72 0,-160 270,-160 270,-72 0,-72"/>
</g>
<!-- L2&#45;&gt;L3 -->
<g id="edge2" class="edge">
<title>L2&#45;&gt;L3</title>
<path fill="none" stroke="black" d="M129.28,-195.58C128.66,-187.98 128.32,-179.14 128.26,-170.18"/>
<polygon fill="black" stroke="black" points="131.76,-170.1 128.32,-160.08 124.76,-170.06 131.76,-170.1"/>
</g>
<!-- L4 -->
<g id="node4" class="node">
<title>L4</title>
<text text-anchor="start" x="314" y="-123.8" font-family="Times,serif" font-weight="bold" font-size="14.00">L4</text>
<text text-anchor="start" x="293" y="-101.8" font-family="Times,serif" font-size="14.00">BR {L1}</text>
<polygon fill="none" stroke="black" points="288,-93 288,-139 360,-139 360,-93 288,-93"/>
</g>
<!-- L2&#45;&gt;L4 -->
<g id="edge3" class="edge">
<title>L2&#45;&gt;L4</title>
<path fill="none" stroke="black" d="M205.02,-195.91C229.42,-186.65 256.35,-174.61 279,-160 284.98,-156.14 290.86,-151.43 296.3,-146.55"/>
<polygon fill="black" stroke="black" points="299.04,-148.77 303.9,-139.36 294.23,-143.68 299.04,-148.77"/>
</g>
<!-- L3&#45;&gt;L2 -->
<g id="edge4" class="edge">
<title>L3&#45;&gt;L2</title>
<path fill="none" stroke="black" d="M141.68,-160.08C141.84,-168.58 141.73,-177.37 141.36,-185.45"/>
<polygon fill="black" stroke="black" points="137.85,-185.39 140.72,-195.58 144.84,-185.82 137.85,-185.39"/>
</g>
<!-- L1 -->
<g id="node5" class="node">
<title>L1</title>
<ellipse fill="none" stroke="black" cx="324" cy="-18" rx="27" ry="18"/>
<text text-anchor="middle" x="324" y="-14.3" font-family="Times,serif" font-size="14.00">L1</text>
</g>
<!-- L4&#45;&gt;L1 -->
<g id="edge5" class="edge">
<title>L4&#45;&gt;L1</title>
<path fill="none" stroke="black" d="M324,-92.73C324,-78.83 324,-60.83 324,-46.1"/>
<polygon fill="black" stroke="black" points="327.5,-46.05 324,-36.05 320.5,-46.05 327.5,-46.05"/>
</g>
</g>
</svg>
